<?xml version="1.0" standalone="no"?>
<!DOCTYPE svg PUBLIC "-//W3C//DTD SVG 1.1//EN" "http://www.w3.org/Graphics/SVG/1.1/DTD/svg11.dtd" >
<svg xmlns="http://www.w3.org/2000/svg" xmlns:xlink="http://www.w3.org/1999/xlink" version="1.1">
<metadata>
Created by FontForge 20170731 at Fri Nov  1 09:19:44 2019
 By Aleksey,,,
Copyright 2011 The Lemonada Project Authors (https://github.com/Gue3bara/Lemonada)
</metadata>
<defs>
<font id="Lemonada-Medium" horiz-adv-x="0" >
  <font-face 
    font-family="Lemonada Medium"
    font-weight="500"
    font-stretch="normal"
    units-per-em="1000"
    panose-1="0 0 0 0 0 0 0 0 0 0"
    ascent="800"
    descent="-200"
    x-height="600"
    cap-height="726"
    bbox="-129 -588 1750 1345"
    underline-thickness="50"
    underline-position="-175"
    unicode-range="U+000D-FEFC"
  />
<missing-glyph horiz-adv-x="633" 
d="M-49 -25l116 735h633l-116 -735h-633zM116 69h332l88 546h-331z" />
    <glyph glyph-name="uniFDF2" unicode="&#x627;&#xfedf;&#xfee0;&#xfeea;" horiz-adv-x="1764" arabic-form="isolated" 
d="M646 -25l19 119h181l-45 -14q0 26 5.5 71t14 100t18 114.5t20 116.5t18.5 105l23 -58l-75 94q29 23 66 37.5t73 14.5q31 0 45.5 -13.5t14.5 -40.5q0 -25 -8 -65t-19.5 -93t-23 -116.5t-20 -134t-8.5 -146.5l-58 -91h-241zM1013 -25q-41 0 -63.5 22.5t-28.5 61.5l51 -32
h-108l99 255q-4 -27 -6.5 -50.5t-2.5 -41.5q0 -42 21.5 -69t64.5 -27h91l-18 -119h-100zM1072 -25q-13 0 -15.5 15.5t1.5 43.5q6 28 13 44t21 16zM1072 -25l20 119h169l-45 -14q1 26 8 80.5t18 124.5t23.5 144.5t24.5 142t21 115.5l22 -58l-74 94q29 23 66 37.5t72 14.5
q31 0 46 -13.5t15 -40.5q0 -21 -7.5 -59.5t-18.5 -90.5t-23 -114t-23 -128t-18 -133t-7 -130l-58 -91h-231zM311 -25q-80 0 -139.5 30.5t-91.5 90t-32 145.5q0 83 30 150t81.5 114.5t117.5 73t138 25.5q59 0 102 -15t71 -37t40 -45l-79 -441l-59 -91h-179zM415 85l75 426
l6 -55q-7 14 -29 21.5t-53 7.5q-66 0 -118 -31t-81.5 -87t-29.5 -133q0 -72 30.5 -106t95.5 -34h120zM705 -25l20 119q13 0 15.5 -16t-2.5 -44q-4 -26 -12 -42.5t-21 -16.5zM406 -25l59 119h260l-20 -119h-299zM919 757q-38 0 -54.5 17t-20.5 42t-4 50q-1 19 -2 33.5
t-5 26.5q9 8 20.5 11.5t21.5 3.5q18 0 26 -12t8 -46q0 -20 -2 -35.5t-5 -25.5q12 0 25 11t13 46q0 12 -1.5 25t-5.5 22q9 8 20 11.5t21 3.5q19 0 27 -12t8 -46q0 -20 -2 -35.5t-4 -25.5q13 -1 26 10.5t13 48.5q0 10 -1.5 23t-4.5 22q9 8 20 11.5t21 3.5q20 0 27.5 -12.5
t7.5 -43.5q0 -32 -8.5 -61.5t-27.5 -48t-52 -18.5q-19 0 -32.5 5.5t-20.5 10.5q-10 -8 -22 -12t-30 -4zM978 1005q-8 0 -17.5 2.5t-20.5 7.5q2 5 4 17.5t2 25.5q0 21 -3.5 46.5t-6.5 50t-3 42.5t7 25.5t21 7.5t28 -4.5t26 -11.5q-3 -7 -5 -19.5t-2 -26.5q0 -15 1 -35t2 -41
t1 -38q0 -25 -7.5 -37t-26.5 -12zM1586 -25q-39 0 -58.5 25t-19.5 67q0 23 5 64.5t12.5 97t18 117.5l21 124t20.5 118.5t17 99.5l23 -59l-74 94q30 24 67.5 38t70.5 14q31 0 46 -13.5t15 -40.5q0 -19 -7.5 -59t-18.5 -93t-23 -114t-23 -124.5t-18.5 -124t-7.5 -111.5
q0 -23 2 -38.5t8 -26t14 -21.5q-19 -16 -42.5 -25t-47.5 -9z" />
    <glyph glyph-name="uniFEF5" unicode="&#xfedf;&#xfe82;" horiz-adv-x="820" arabic-form="isolated" 
d="M171 -25q-55 0 -86.5 5t-44.5 19t-13 39q0 18 5.5 36.5t16.5 33.5q23 -5 45 -8t49.5 -4.5t63.5 -1.5h79l-50 -31q7 46 15.5 98l17 104t15.5 97t12.5 77.5t7.5 45.5l25 -50l-75 94q31 23 68 37.5t71 14.5q33 0 46.5 -14t13.5 -46q0 -16 -6 -50.5t-16 -81t-21 -102
t-21 -114t-17 -116.5l-40 37h288l-45 -14q1 26 8 80.5t18 124.5t23.5 144.5t24.5 142t21 115.5l23 -58l-75 94q29 23 66 37.5t72 14.5q32 0 46.5 -13.5t14.5 -40.5q0 -21 -7 -59.5t-18 -91.5t-23 -115t-23 -128t-18.5 -132.5t-7.5 -128.5l-65 -91h-484zM274 640
q-23 0 -32.5 9.5t-9.5 29.5q0 15 4.5 32t11.5 34q13 -6 27 -9.5t31 -3.5q33 0 61 10t55 19t54 9q23 0 32.5 -9t9.5 -30q0 -30 -16 -65q-13 5 -27 8t-31 3q-32 0 -60.5 -9t-55.5 -18.5t-54 -9.5z" />
    <glyph glyph-name="uniFEF6" unicode="&#xfee0;&#xfe82;" horiz-adv-x="925" arabic-form="final" 
d="M787 -25q-41 0 -63.5 22.5t-28.5 61.5l52 -32h-108l99 255q-4 -27 -7 -50.5t-3 -41.5q0 -42 22 -69t64 -27h80l-19 -119h-88zM171 -25q-55 0 -86.5 5t-44.5 19t-13 39q0 18 5.5 36.5t16.5 33.5q23 -5 45 -8t49.5 -4.5t63.5 -1.5h79l-50 -31q7 46 15.5 98l17 104t15.5 97
t12.5 77.5t7.5 45.5l25 -50l-75 94q31 23 68 37.5t71 14.5q33 0 46.5 -14t13.5 -46q0 -16 -6 -50.5t-16 -81t-21 -102t-21 -114t-17 -116.5l-40 37h288l-45 -14q1 26 8 80.5t18 124.5t23.5 144.5t24.5 142t21 115.5l23 -58l-75 94q29 23 66 37.5t72 14.5q32 0 46.5 -13.5
t14.5 -40.5q0 -21 -7 -59.5t-18 -91.5t-23 -115t-23 -128t-18.5 -132.5t-7.5 -128.5l-65 -91h-484zM875 -25l19 119q14 0 16.5 -16t-2.5 -44q-5 -26 -12.5 -42.5t-20.5 -16.5zM274 640q-23 0 -32.5 9.5t-9.5 29.5q0 15 4.5 32t11.5 34q13 -6 27 -9.5t31 -3.5q33 0 61 10
t55 19t54 9q23 0 32.5 -9t9.5 -30q0 -30 -16 -65q-13 5 -27 8t-31 3q-32 0 -60.5 -9t-55.5 -18.5t-54 -9.5z" />
    <glyph glyph-name="uniFEF7" unicode="&#xfedf;&#xfe84;" horiz-adv-x="820" arabic-form="isolated" 
d="M171 -25q-55 0 -86.5 5t-44.5 19t-13 39q0 18 5.5 36.5t16.5 33.5q23 -5 45 -8t49.5 -4.5t63.5 -1.5h79l-50 -31q7 46 15.5 98l17 104t15.5 97t12.5 77.5t7.5 45.5l25 -50l-75 94q31 23 68 37.5t71 14.5q33 0 46.5 -14t13.5 -46q0 -16 -6 -50.5t-16 -81t-21 -102
t-21 -114t-17 -116.5l-40 37h288l-45 -14q1 26 8 80.5t18 124.5t23.5 144.5t24.5 142t21 115.5l23 -58l-75 94q29 23 66 37.5t72 14.5q32 0 46.5 -13.5t14.5 -40.5q0 -21 -7 -59.5t-18 -91.5t-23 -115t-23 -128t-18.5 -132.5t-7.5 -128.5l-65 -91h-484zM281 639
q-24 0 -34 9.5t-10 29.5q0 15 4.5 32t12.5 33q13 -5 27 -8.5t29 -3.5q17 0 35 4t32 9l14 -25q-42 17 -67.5 38t-36 45.5t-10.5 49.5q0 27 11 44t27.5 27t35.5 14t37 4q17 0 39 -3t42.5 -10t33.5 -19t13 -29q0 -16 -13 -29.5t-40 -11.5q-19 1 -32 12.5t-19 24.5
q-20 -1 -35 -13.5t-15 -37.5q0 -19 9 -36t23 -30.5t27 -24.5l-56 6q39 10 64 19.5t52 9.5q23 0 33 -8.5t10 -29.5q0 -32 -16 -66q-13 5 -27 8t-30 3q-32 0 -61.5 -9.5t-56 -18.5t-52.5 -9z" />
    <glyph glyph-name="uniFEF8" unicode="&#xfee0;&#xfe84;" horiz-adv-x="925" arabic-form="final" 
d="M787 -25q-41 0 -63.5 22.5t-28.5 61.5l52 -32h-108l99 255q-4 -27 -7 -50.5t-3 -41.5q0 -42 22 -69t64 -27h80l-19 -119h-88zM171 -25q-55 0 -86.5 5t-44.5 19t-13 39q0 18 5.5 36.5t16.5 33.5q23 -5 45 -8t49.5 -4.5t63.5 -1.5h79l-50 -31q7 46 15.5 98l17 104t15.5 97
t12.5 77.5t7.5 45.5l25 -50l-75 94q31 23 68 37.5t71 14.5q33 0 46.5 -14t13.5 -46q0 -16 -6 -50.5t-16 -81t-21 -102t-21 -114t-17 -116.5l-40 37h288l-45 -14q1 26 8 80.5t18 124.5t23.5 144.5t24.5 142t21 115.5l23 -58l-75 94q29 23 66 37.5t72 14.5q32 0 46.5 -13.5
t14.5 -40.5q0 -21 -7 -59.5t-18 -91.5t-23 -115t-23 -128t-18.5 -132.5t-7.5 -128.5l-65 -91h-484zM875 -25l19 119q14 0 16.5 -16t-2.5 -44q-5 -26 -12.5 -42.5t-20.5 -16.5zM281 639q-24 0 -34 9.5t-10 29.5q0 15 4.5 32t12.5 33q13 -5 27 -8.5t29 -3.5q17 0 35 4t32 9
l14 -25q-42 17 -67.5 38t-36 45.5t-10.5 49.5q0 27 11 44t27.5 27t35.5 14t37 4q17 0 39 -3t42.5 -10t33.5 -19t13 -29q0 -16 -13 -29.5t-40 -11.5q-19 1 -32 12.5t-19 24.5q-20 -1 -35 -13.5t-15 -37.5q0 -19 9 -36t23 -30.5t27 -24.5l-56 6q39 10 64 19.5t52 9.5
q23 0 33 -8.5t10 -29.5q0 -32 -16 -66q-13 5 -27 8t-30 3q-32 0 -61.5 -9.5t-56 -18.5t-52.5 -9z" />
    <glyph glyph-name="uniFEF9" unicode="&#xfedf;&#xfe88;" horiz-adv-x="820" arabic-form="isolated" 
d="M171 -25q-55 0 -86.5 5t-44.5 19t-13 39q0 18 5.5 36.5t16.5 33.5q23 -5 45 -8t49.5 -4.5t63.5 -1.5h79l-50 -31q7 46 15.5 98l17 104t15.5 97t12.5 77.5t7.5 45.5l25 -50l-75 94q31 23 68 37.5t71 14.5q33 0 46.5 -14t13.5 -46q0 -16 -6 -50.5t-16 -81t-21 -102
t-21 -114t-17 -116.5l-40 37h288l-45 -14q1 26 8 80.5t18 124.5t23.5 144.5t24.5 142t21 115.5l23 -58l-75 94q29 23 66 37.5t72 14.5q32 0 46.5 -13.5t14.5 -40.5q0 -21 -7 -59.5t-18 -91.5t-23 -115t-23 -128t-18.5 -132.5t-7.5 -128.5l-65 -91h-484zM132 -411
q-22 0 -32 9.5t-10 29.5q0 15 4.5 32t11.5 33q13 -5 27 -8t29 -3q17 0 35 3.5t33 8.5l13 -25q-42 17 -67 38.5t-36 45.5t-11 49q0 27 11 44t27.5 27t36 13.5t35.5 3.5q18 0 40 -2.5t42.5 -9.5t33.5 -19t13 -30q-1 -15 -13.5 -28.5t-38.5 -11.5q-20 1 -33 12.5t-18 24.5
q-22 -1 -36 -13.5t-14 -37.5q0 -19 9 -36t22.5 -30.5t26.5 -24.5l-55 5q39 11 63.5 20.5t51.5 9.5q24 0 33.5 -8.5t9.5 -29.5q0 -15 -4.5 -32.5t-11.5 -33.5q-13 5 -27 8t-30 3q-32 0 -61 -9t-56 -18.5t-54 -9.5z" />
    <glyph glyph-name="uniFEFA" unicode="&#xfee0;&#xfe88;" horiz-adv-x="925" arabic-form="final" 
d="M787 -25q-41 0 -63.5 22.5t-28.5 61.5l52 -32h-108l99 255q-4 -27 -7 -50.5t-3 -41.5q0 -42 22 -69t64 -27h80l-19 -119h-88zM171 -25q-55 0 -86.5 5t-44.5 19t-13 39q0 18 5.5 36.5t16.5 33.5q23 -5 45 -8t49.5 -4.5t63.5 -1.5h79l-50 -31q7 46 15.5 98l17 104t15.5 97
t12.5 77.5t7.5 45.5l25 -50l-75 94q31 23 68 37.5t71 14.5q33 0 46.5 -14t13.5 -46q0 -16 -6 -50.5t-16 -81t-21 -102t-21 -114t-17 -116.5l-40 37h288l-45 -14q1 26 8 80.5t18 124.5t23.5 144.5t24.5 142t21 115.5l23 -58l-75 94q29 23 66 37.5t72 14.5q32 0 46.5 -13.5
t14.5 -40.5q0 -21 -7 -59.5t-18 -91.5t-23 -115t-23 -128t-18.5 -132.5t-7.5 -128.5l-65 -91h-484zM875 -25l19 119q14 0 16.5 -16t-2.5 -44q-5 -26 -12.5 -42.5t-20.5 -16.5zM132 -411q-22 0 -32 9.5t-10 29.5q0 15 4.5 32t11.5 33q13 -5 27 -8t29 -3q17 0 35 3.5t33 8.5
l13 -25q-42 17 -67 38.5t-36 45.5t-11 49q0 27 11 44t27.5 27t36 13.5t35.5 3.5q18 0 40 -2.5t42.5 -9.5t33.5 -19t13 -30q-1 -15 -13.5 -28.5t-38.5 -11.5q-20 1 -33 12.5t-18 24.5q-22 -1 -36 -13.5t-14 -37.5q0 -19 9 -36t22.5 -30.5t26.5 -24.5l-55 5q39 11 63.5 20.5
t51.5 9.5q24 0 33.5 -8.5t9.5 -29.5q0 -15 -4.5 -32.5t-11.5 -33.5q-13 5 -27 8t-30 3q-32 0 -61 -9t-56 -18.5t-54 -9.5z" />
    <glyph glyph-name="uniFEFB" unicode="&#xfedf;&#xfe8e;" horiz-adv-x="820" arabic-form="isolated" 
d="M171 -25q-55 0 -86.5 5t-44.5 19t-13 39q0 18 5.5 36.5t16.5 33.5q23 -5 45 -8t49.5 -4.5t63.5 -1.5h79l-50 -31q7 46 15.5 98l17 104t15.5 97t12.5 77.5t7.5 45.5l25 -50l-75 94q31 23 68 37.5t71 14.5q33 0 46.5 -14t13.5 -46q0 -16 -6 -50.5t-16 -81t-21 -102
t-21 -114t-17 -116.5l-40 37h288l-45 -14q1 26 8 80.5t18 124.5t23.5 144.5t24.5 142t21 115.5l23 -58l-75 94q29 23 66 37.5t72 14.5q32 0 46.5 -13.5t14.5 -40.5q0 -21 -7 -59.5t-18 -91.5t-23 -115t-23 -128t-18.5 -132.5t-7.5 -128.5l-65 -91h-484z" />
    <glyph glyph-name="uniFEFC" unicode="&#xfee0;&#xfe8e;" horiz-adv-x="925" arabic-form="final" 
d="M787 -25q-41 0 -63.5 22.5t-28.5 61.5l52 -32h-108l99 255q-4 -27 -7 -50.5t-3 -41.5q0 -42 22 -69t64 -27h80l-19 -119h-88zM171 -25q-55 0 -86.5 5t-44.5 19t-13 39q0 18 5.5 36.5t16.5 33.5q23 -5 45 -8t49.5 -4.5t63.5 -1.5h79l-50 -31q7 46 15.5 98l17 104t15.5 97
t12.5 77.5t7.5 45.5l25 -50l-75 94q31 23 68 37.5t71 14.5q33 0 46.5 -14t13.5 -46q0 -16 -6 -50.5t-16 -81t-21 -102t-21 -114t-17 -116.5l-40 37h288l-45 -14q1 26 8 80.5t18 124.5t23.5 144.5t24.5 142t21 115.5l23 -58l-75 94q29 23 66 37.5t72 14.5q32 0 46.5 -13.5
t14.5 -40.5q0 -21 -7 -59.5t-18 -91.5t-23 -115t-23 -128t-18.5 -132.5t-7.5 -128.5l-65 -91h-484zM875 -25l19 119q14 0 16.5 -16t-2.5 -44q-5 -26 -12.5 -42.5t-20.5 -16.5z" />
    <glyph glyph-name="lam_alefWaslaar" unicode="&#xfedf;&#xfb51;" horiz-adv-x="820" 
d="M171 -25q-55 0 -86.5 5t-44.5 19t-13 39q0 18 5.5 36.5t16.5 33.5q23 -5 45 -8t49.5 -4.5t63.5 -1.5h79l-50 -31q7 46 15.5 98l17 104t15.5 97t12.5 77.5t7.5 45.5l25 -50l-75 94q31 23 68 37.5t71 14.5q33 0 46.5 -14t13.5 -46q0 -16 -6 -50.5t-16 -81t-21 -102
t-21 -114t-17 -116.5l-40 37h288l-45 -14q1 26 8 80.5t18 124.5t23.5 144.5t24.5 142t21 115.5l23 -58l-75 94q29 23 66 37.5t72 14.5q32 0 46.5 -13.5t14.5 -40.5q0 -21 -7 -59.5t-18 -91.5t-23 -115t-23 -128t-18.5 -132.5t-7.5 -128.5l-65 -91h-484zM271 640
q-23 0 -33 9.5t-10 29.5q0 14 4.5 30.5t11.5 34.5q7 -1 14 -3.5t13 -3.5q-2 15 -2 32q0 58 22.5 94.5t57.5 54t71 17.5q51 0 85 -31.5t34 -93.5q0 -30 -8.5 -57t-20.5 -47.5t-24 -36.5q-9 4 -19.5 6t-23.5 2q-34 0 -63 -9t-55.5 -18.5t-53.5 -9.5zM494 712q10 59 0 91
t-31.5 44t-47.5 12q-47 0 -77.5 -33t-32.5 -93q34 1 62 10t53.5 18.5t50.5 9.5q16 0 28 -6t13 -15z" />
    <glyph glyph-name="lam_alefWaslaar.fina" unicode="&#xfee0;&#xfb51;" horiz-adv-x="908" 
d="M270 640q-23 0 -33 9.5t-10 29.5q0 14 4.5 30.5t11.5 34.5q7 -1 14 -3.5t13 -3.5q-2 15 -2 32q0 58 22.5 94.5t57.5 54t71 17.5q51 0 85 -31.5t34 -93.5q0 -30 -8.5 -57t-20.5 -47.5t-24 -36.5q-9 4 -19.5 6t-23.5 2q-34 0 -63 -9t-55.5 -18.5t-53.5 -9.5zM493 712
q10 59 0 91t-31.5 44t-47.5 12q-47 0 -77.5 -33t-32.5 -93q34 1 62 10t53.5 18.5t50.5 9.5q16 0 28 -6t13 -15zM787 -25q-41 0 -63.5 22.5t-28.5 61.5l52 -32h-108l99 255q-4 -27 -7 -50.5t-3 -41.5q0 -42 22 -69t64 -27h80l-19 -119h-88zM171 -25q-55 0 -86.5 5t-44.5 19
t-13 39q0 18 5.5 36.5t16.5 33.5q23 -5 45 -8t49.5 -4.5t63.5 -1.5h79l-50 -31q7 46 15.5 98l17 104t15.5 97t12.5 77.5t7.5 45.5l25 -50l-75 94q31 23 68 37.5t71 14.5q33 0 46.5 -14t13.5 -46q0 -16 -6 -50.5t-16 -81t-21 -102t-21 -114t-17 -116.5l-40 37h288l-45 -14
q1 26 8 80.5t18 124.5t23.5 144.5t24.5 142t21 115.5l23 -58l-75 94q29 23 66 37.5t72 14.5q32 0 46.5 -13.5t14.5 -40.5q0 -21 -7 -59.5t-18 -91.5t-23 -115t-23 -128t-18.5 -132.5t-7.5 -128.5l-65 -91h-484zM875 -25l19 119q14 0 16.5 -16t-2.5 -44q-5 -26 -12.5 -42.5
t-20.5 -16.5z" />
    <glyph glyph-name="uni066E.init" unicode="&#x66e;" horiz-adv-x="348" 
d="M-49 -25l19 119h164l-39 -21q2 41 9 88t16 94t19 87.5t17 68.5t9 37l4 -48l-63 78q31 23 69 37.5t72 14.5q31 0 45 -13.5t14 -43.5q0 -11 -7 -42t-17 -75.5t-21 -95.5t-19 -101.5t-11 -93.5l-58 -90h-222zM-49 -25q-13 0 -16 15.5t2 43.5t12.5 44t20.5 16z" />
    <glyph glyph-name="uni066E.medi" unicode="&#x66e;" horiz-adv-x="417" 
d="M-49 -25l19 119h160l-45 -45v46q0 25 5.5 56.5t13.5 66t16 69.5t13 68t5 61q0 23 -3.5 44t-10.5 36q27 16 55 25t52 9q31 0 44.5 -17t13.5 -50q0 -27 -7 -61.5t-16.5 -72t-17 -73t-7.5 -64.5q0 -46 22.5 -72t64.5 -26h58l-19 -119h-81q-41 0 -63.5 22.5t-27.5 61.5
l36 -32h-37l-34 -52h-209zM367 -25l20 119q13 0 15.5 -16t-2.5 -44q-4 -26 -12 -42.5t-21 -16.5zM-49 -25q-13 0 -16 15.5t2 43.5t12.5 44t20.5 16z" />
    <glyph glyph-name="uni066E.fina" unicode="&#x66e;" horiz-adv-x="1118" 
d="M980 -25q-41 0 -63.5 22.5t-27.5 61.5l51 -32h-109l115 253q-5 -25 -8.5 -49.5t-3.5 -42.5q0 -42 22 -68t65 -26h67l-20 -119h-88zM239 -25q-83 0 -121.5 40t-38.5 132q0 45 7 80.5t13.5 69t6.5 72.5q0 29 -4 50t-11 35q26 14 52 24t52 10q30 0 43.5 -17t13.5 -52
q0 -36 -9 -77.5t-19 -85.5t-10 -87q0 -44 16 -59.5t54 -15.5h532l-40 -21q2 41 9 88t16.5 94t19 87.5t17 68.5t9.5 37l4 -48l-63 78q31 23 68.5 37.5t71.5 14.5q31 0 45.5 -13.5t14.5 -43.5q0 -11 -7 -42t-17.5 -75.5t-21.5 -95.5t-19 -101.5t-10 -93.5l-59 -90h-615z
M1068 -25l20 119q13 0 15.5 -16t-2.5 -44q-4 -26 -12 -42.5t-21 -16.5z" />
    <glyph glyph-name="uni066F.init" unicode="&#x66f;" horiz-adv-x="713" 
d="M-49 -25l19 119h197l-31 -29q-17 31 -26 70t-9 84q0 85 25 156t70.5 122.5t109 80t139.5 28.5q52 0 93.5 -11.5t70.5 -29t47 -34.5t25 -28q0 -8 -5.5 -34t-14 -63t-19 -81.5t-19.5 -90.5t-15.5 -89.5t-8.5 -79.5l-58 -90h-590zM463 73q1 38 8 84.5t16.5 94.5t19.5 93
t19 80.5t14 55.5l3 -21q-11 11 -38.5 19t-59.5 8q-57 0 -103.5 -31t-75 -90t-28.5 -143q0 -43 8 -71.5t18.5 -44t17.5 -24.5l-30 11h256zM-49 -25q-13 0 -16 15.5t2 43.5t12.5 44t20.5 16z" />
    <glyph glyph-name="uni066F.medi" unicode="&#x66f;" horiz-adv-x="804" 
d="M667 -25q-41 0 -63.5 22.5t-27.5 61.5l51 -32h-108l114 255q-5 -26 -9 -51t-4 -43q0 -42 22.5 -68t65.5 -26h65l-19 -119h-87zM-49 -25l19 119h197l-31 -29q-17 31 -26 70t-9 84q0 85 25 156t70.5 122.5t109 80t139.5 28.5q52 0 93.5 -11.5t70.5 -29t47 -34.5t25 -28
q0 -8 -5.5 -34t-14 -63t-19 -81.5t-19.5 -90.5t-15.5 -89.5t-8.5 -79.5l-58 -90h-590zM463 73q1 38 8 84.5t16.5 94.5t19.5 93t19 80.5t14 55.5l3 -21q-11 11 -38.5 19t-59.5 8q-57 0 -103.5 -31t-75 -90t-28.5 -143q0 -43 8 -71.5t18.5 -44t17.5 -24.5l-30 11h256zM-49 -25
q-13 0 -16 15.5t2 43.5t12.5 44t20.5 16zM754 -25l19 119q14 0 16 -16t-2 -44q-5 -26 -12.5 -42.5t-20.5 -16.5z" />
    <glyph glyph-name="uni066F.fina" unicode="&#x66f;" horiz-adv-x="1231" 
d="M922 -25l54 119h224l-19 -119h-259zM471 -352q-97 0 -170 25.5t-124.5 68.5t-83.5 97t-46.5 111.5t-14.5 110.5q0 58 15 98t42.5 61t62.5 21q21 0 37 -6.5t25.5 -14.5t11.5 -12q-6 -4 -19.5 -22t-25.5 -51t-12 -85q0 -83 37.5 -147t105.5 -100.5t159 -36.5
q105 0 190.5 49.5t147.5 143.5t97.5 227.5t41.5 301.5l13 -32q-14 8 -43 19.5t-68 11.5q-43 0 -80.5 -19t-65 -54t-43.5 -82.5t-16 -104.5q0 -50 13 -79.5t38 -41.5t63 -12h151v-119h-157q-122 0 -183 64t-61 187q0 80 24.5 149t70 121t108.5 81t140 29q51 0 91.5 -11.5
t70.5 -29t48 -34.5t24 -28q-3 -92 -17.5 -190.5t-44 -194.5t-76 -181t-114 -150t-157 -102t-206.5 -37zM1181 -25l19 119q13 0 15.5 -16t-1.5 -44q-5 -26 -12.5 -42.5t-20.5 -16.5z" />
    <glyph glyph-name="uni06A1.init" unicode="&#x6a1;" horiz-adv-x="713" 
d="M-49 -25l19 119h197l-31 -29q-17 31 -26 70t-9 84q0 85 25 156t70.5 122.5t109 80t139.5 28.5q52 0 93.5 -11.5t70.5 -29t47 -34.5t25 -28q0 -8 -5.5 -34t-14 -63t-19 -81.5t-19.5 -90.5t-15.5 -89.5t-8.5 -79.5l-58 -90h-590zM463 73q1 38 8 84.5t16.5 94.5t19.5 93
t19 80.5t14 55.5l3 -21q-11 11 -38.5 19t-59.5 8q-57 0 -103.5 -31t-75 -90t-28.5 -143q0 -43 8 -71.5t18.5 -44t17.5 -24.5l-30 11h256zM-49 -25q-13 0 -16 15.5t2 43.5t12.5 44t20.5 16z" />
    <glyph glyph-name="uni06A1.medi" unicode="&#x6a1;" horiz-adv-x="804" 
d="M667 -25q-41 0 -63.5 22.5t-27.5 61.5l51 -32h-108l114 255q-5 -26 -9 -51t-4 -43q0 -42 22.5 -68t65.5 -26h65l-19 -119h-87zM-49 -25l19 119h197l-31 -29q-17 31 -26 70t-9 84q0 85 25 156t70.5 122.5t109 80t139.5 28.5q52 0 93.5 -11.5t70.5 -29t47 -34.5t25 -28
q0 -8 -5.5 -34t-14 -63t-19 -81.5t-19.5 -90.5t-15.5 -89.5t-8.5 -79.5l-58 -90h-590zM463 73q1 38 8 84.5t16.5 94.5t19.5 93t19 80.5t14 55.5l3 -21q-11 11 -38.5 19t-59.5 8q-57 0 -103.5 -31t-75 -90t-28.5 -143q0 -43 8 -71.5t18.5 -44t17.5 -24.5l-30 11h256zM-49 -25
q-13 0 -16 15.5t2 43.5t12.5 44t20.5 16zM754 -25l19 119q14 0 16 -16t-2 -44q-5 -26 -12.5 -42.5t-20.5 -16.5z" />
    <glyph glyph-name="uni06A1.fina" unicode="&#x6a1;" horiz-adv-x="1290" 
d="M1154 -25q-41 0 -63.5 22.5t-28.5 61.5l52 -32h-109l115 255q-6 -26 -9.5 -51t-3.5 -43q0 -42 22.5 -68t64.5 -26h65l-19 -119h-86zM239 -25q-83 0 -121.5 40t-38.5 132q0 45 7 80.5t13.5 69t6.5 72.5q0 29 -4 50t-11 35q26 14 52 24t52 10q30 0 43.5 -17t13.5 -52
q0 -36 -9 -77.5t-19 -85.5t-10 -87q0 -44 16 -59.5t54 -15.5h370l-31 -29q-17 31 -26 70t-9 84q0 85 25 156t70.5 122.5t109 80t139.5 28.5q52 0 93.5 -11.5t70.5 -29t47 -34.5t25 -28q0 -8 -5.5 -34t-14 -63t-19 -81.5t-19.5 -90.5t-15.5 -89.5t-8.5 -79.5l-58 -90h-789z
M950 73q1 38 8 84.5t16.5 94.5t19.5 93t19 80.5t14 55.5l3 -21q-11 11 -38.5 19t-59.5 8q-57 0 -104 -31t-75 -90t-28 -143q0 -43 8 -71.5t18.5 -44t17.5 -24.5l-30 11h256zM1240 -25l20 119q13 0 15.5 -16t-2.5 -44q-4 -26 -12 -42.5t-21 -16.5z" />
    <glyph glyph-name="uni06BA.init" unicode="&#x6ba;" horiz-adv-x="348" 
d="M-49 -25l19 119h164l-39 -21q2 41 9 88t16 94t19 87.5t17 68.5t9 37l4 -48l-63 78q31 23 69 37.5t72 14.5q31 0 45 -13.5t14 -43.5q0 -11 -7 -42t-17 -75.5t-21 -95.5t-19 -101.5t-11 -93.5l-58 -90h-222zM-49 -25q-13 0 -16 15.5t2 43.5t12.5 44t20.5 16z" />
    <glyph glyph-name="uni06BA.medi" unicode="&#x6ba;" horiz-adv-x="417" 
d="M-49 -25l19 119h160l-45 -45v46q0 25 5.5 56.5t13.5 66t16 69.5t13 68t5 61q0 23 -3.5 44t-10.5 36q27 16 55 25t52 9q31 0 44.5 -17t13.5 -50q0 -27 -7 -61.5t-16.5 -72t-17 -73t-7.5 -64.5q0 -46 22.5 -72t64.5 -26h58l-19 -119h-81q-41 0 -63.5 22.5t-27.5 61.5
l36 -32h-37l-34 -52h-209zM367 -25l20 119q13 0 15.5 -16t-2.5 -44q-4 -26 -12 -42.5t-21 -16.5zM-49 -25q-13 0 -16 15.5t2 43.5t12.5 44t20.5 16z" />
    <glyph glyph-name="uni06C2.init" unicode="&#x6c2;" horiz-adv-x="348" 
d="M-49 -25l19 119h164l-39 -21q2 41 9 88t16 94t19 87.5t17 68.5t9 37l4 -48l-63 78q31 23 69 37.5t72 14.5q31 0 45 -13.5t14 -43.5q0 -11 -7 -42t-17 -75.5t-21 -95.5t-19 -101.5t-11 -93.5l-58 -90h-222zM-49 -25q-13 0 -16 15.5t2 43.5t12.5 44t20.5 16zM140 11l13 -36
q-27 -14 -46 -36.5t-30 -47t-11 -45.5l57 -74q-2 -26 -16 -48t-37.5 -35t-50.5 -13q-42 0 -64.5 28t-22.5 64q0 58 25.5 106t72 83t110.5 54zM145 609q-24 0 -34 9.5t-10 29.5q0 15 4.5 32t12.5 33q13 -5 27 -8.5t29 -3.5q17 0 35 4t32 9l14 -25q-42 17 -67.5 38t-36 45.5
t-10.5 49.5q0 27 11 44t27.5 27t35.5 14t37 4q17 0 39 -3t42.5 -10t33.5 -19t13 -29q0 -16 -13 -29.5t-40 -11.5q-19 1 -32 12.5t-19 24.5q-20 -1 -35 -13.5t-15 -37.5q0 -19 9 -36t23 -30.5t27 -24.5l-56 6q39 10 64 19.5t52 9.5q23 0 33 -8.5t10 -29.5q0 -32 -16 -66
q-13 5 -27 8t-30 3q-32 0 -61.5 -9.5t-56 -18.5t-52.5 -9z" />
    <glyph glyph-name="uni06C2.medi" unicode="&#x6c2;" horiz-adv-x="820" 
d="M323 -566q-83 0 -140.5 31t-87.5 96.5t-30 169.5q0 29 2 73t5.5 90t6.5 81h-128l19 119h191l64 -80q-3 -33 -7.5 -74.5t-8 -83t-6 -77.5t-2.5 -60q0 -85 32 -127.5t89 -42.5q26 0 53 9.5t49.5 28.5t38 48t18.5 67q5 52 9.5 111t8.5 116t6.5 100.5t2.5 64.5h281l-19 -119
h-173l47 37l-19 -286q-5 -76 -28 -127.5t-57 -84.5t-73.5 -50.5t-77 -23.5t-66.5 -6zM770 -25l20 119q13 0 15.5 -16t-1.5 -44q-5 -26 -13 -42.5t-21 -16.5zM-49 -25q-13 0 -16 15.5t2 43.5t12.5 44t20.5 16zM348 451q-24 0 -34 9.5t-10 29.5q0 15 4.5 32t12.5 33
q13 -5 27 -8.5t29 -3.5q17 0 35 4t32 9l14 -25q-42 17 -67.5 38t-36 45.5t-10.5 49.5q0 27 11 44t27.5 27t35.5 14t37 4q17 0 39 -3t42.5 -10t33.5 -19t13 -29q0 -16 -13 -29.5t-40 -11.5q-19 1 -32 12.5t-19 24.5q-20 -1 -35 -13.5t-15 -37.5q0 -19 9 -36t23 -30.5
t27 -24.5l-56 6q39 10 64 19.5t52 9.5q23 0 33 -8.5t10 -29.5q0 -32 -16 -66q-13 5 -27 8t-30 3q-32 0 -61.5 -9.5t-56 -18.5t-52.5 -9z" />
    <glyph glyph-name="uni06C2.fina" unicode="&#x6c2;" horiz-adv-x="770" 
d="M320 684q-24 0 -34 9.5t-10 29.5q0 15 4.5 32t12.5 33q13 -5 27 -8.5t29 -3.5q17 0 35 4t32 9l14 -25q-42 17 -67.5 38t-36 45.5t-10.5 49.5q0 27 11 44t27.5 27t35.5 14t37 4q17 0 39 -3t42.5 -10t33.5 -19t13 -29q0 -16 -13 -29.5t-40 -11.5q-19 1 -32 12.5t-19 24.5
q-20 -1 -35 -13.5t-15 -37.5q0 -19 9 -36t23 -30.5t27 -24.5l-56 6q39 10 64 19.5t52 9.5q23 0 33 -8.5t10 -29.5q0 -32 -16 -66q-13 5 -27 8t-30 3q-32 0 -61.5 -9.5t-56 -18.5t-52.5 -9zM422 -25l58 119h260l-20 -119h-298zM326 -25q-80 0 -139 30.5t-91.5 90t-32.5 145.5
q0 83 30 150t81.5 114.5t117.5 73t139 25.5q59 0 101.5 -15t70.5 -37t40 -45l-78 -441l-60 -91h-179zM430 85l75 426l6 -55q-6 14 -28.5 21.5t-53.5 7.5q-66 0 -118 -31t-81.5 -87t-29.5 -133q0 -72 30.5 -106t95.5 -34h120zM720 -25l20 119q13 0 15.5 -16t-1.5 -44
q-5 -26 -12.5 -42.5t-21.5 -16.5z" />
    <glyph glyph-name="uni06C3.fina" unicode="&#x6c3;" horiz-adv-x="770" 
d="M106 -132q-43 0 -62.5 35.5t-13.5 95.5l39 310q10 75 32.5 126.5t54 84t67.5 50.5t71 24.5t65 6.5q62 0 111 -17t84.5 -53t53.5 -92.5t18 -134.5q0 -29 -4 -67.5t-9.5 -76.5t-11.5 -66h140l-20 -119h-202l-64 79q6 29 12 64t11 71.5t8.5 69.5t3.5 57q0 56 -17.5 94
t-46.5 57t-67 19q-35 0 -65.5 -16.5t-52 -50.5t-28.5 -86q-5 -35 -11 -78t-11.5 -86.5t-10.5 -81.5t-7 -64q-4 -41 0.5 -72t22.5 -48q-18 -16 -41 -25.5t-49 -9.5zM720 -25l20 119q13 0 15.5 -16t-1.5 -44q-5 -26 -12.5 -42.5t-21.5 -16.5zM459 695q-32 0 -51.5 17t-19.5 43
q0 41 27 65.5t69 24.5q33 0 52 -16.5t19 -44.5q0 -39 -27 -64t-69 -25zM277 695q-32 0 -51.5 17t-19.5 43q0 41 27.5 65.5t68.5 24.5q33 0 52 -16.5t19 -44.5q0 -39 -27 -64t-69 -25z" />
    <glyph glyph-name="uniFB51" unicode="&#x671;" horiz-adv-x="413" arabic-form="final" 
d="M329 -25q-47 0 -93 12.5t-86 33.5l40 73h192l-19 -119h-34zM158 -25q-38 0 -58 23.5t-20 69.5q0 19 3.5 52.5t9.5 77t13.5 92.5t15.5 98t15.5 94.5t14 81.5t9.5 58l24 -54l-76 95q31 23 68 37.5t71 14.5q31 0 46 -13.5t15 -40.5q0 -19 -6.5 -55t-16 -83t-20.5 -102
t-20.5 -111.5t-15.5 -110.5t-6 -100q0 -28 2.5 -44t8 -26t13.5 -20q-20 -16 -43.5 -25t-46.5 -9zM363 -25l20 119q13 0 15.5 -16t-2.5 -44q-4 -26 -12 -42.5t-21 -16.5zM136 765q-23 0 -33 9.5t-10 29.5q0 14 4.5 30.5t11.5 34.5q7 -1 14 -3.5t13 -3.5q-2 15 -2 32
q0 58 22.5 94.5t57.5 54t71 17.5q51 0 85 -31.5t34 -93.5q0 -30 -8.5 -57t-20.5 -47.5t-24 -36.5q-9 4 -19.5 6t-23.5 2q-34 0 -63 -9t-55.5 -18.5t-53.5 -9.5zM359 837q10 59 0 91t-31.5 44t-47.5 12q-47 0 -77.5 -33t-32.5 -93q34 1 62 10t53.5 18.5t50.5 9.5q16 0 28 -6
t13 -15z" />
    <glyph glyph-name="uniFB57" unicode="&#x67e;" horiz-adv-x="1118" arabic-form="final" 
d="M980 -25q-41 0 -63.5 22.5t-27.5 61.5l51 -32h-109l115 253q-5 -25 -8.5 -49.5t-3.5 -42.5q0 -42 22 -68t65 -26h67l-20 -119h-88zM239 -25q-83 0 -121.5 40t-38.5 132q0 45 7 80.5t13.5 69t6.5 72.5q0 29 -4 50t-11 35q26 14 52 24t52 10q30 0 43.5 -17t13.5 -52
q0 -36 -9 -77.5t-19 -85.5t-10 -87q0 -44 16 -59.5t54 -15.5h532l-40 -21q2 41 9 88t16.5 94t19 87.5t17 68.5t9.5 37l4 -48l-63 78q31 23 68.5 37.5t71.5 14.5q31 0 45.5 -13.5t14.5 -43.5q0 -11 -7 -42t-17.5 -75.5t-21.5 -95.5t-19 -101.5t-10 -93.5l-59 -90h-615z
M1068 -25l20 119q13 0 15.5 -16t-2.5 -44q-4 -26 -12 -42.5t-21 -16.5zM516 -255q-32 0 -51 16.5t-19 43.5q0 40 27 65t69 25q32 0 51 -16.5t19 -44.5q0 -39 -26.5 -64t-69.5 -25zM399 -404q-29 0 -46.5 15.5t-17.5 40.5q0 36 24.5 58.5t62.5 22.5q29 0 46.5 -15t17.5 -41
q0 -35 -24.5 -58t-62.5 -23zM334 -255q-32 0 -51.5 16.5t-19.5 43.5q0 40 27.5 65t68.5 25q33 0 52.5 -16.5t19.5 -44.5q0 -39 -27.5 -64t-69.5 -25z" />
    <glyph glyph-name="uniFB58" unicode="&#x67e;" horiz-adv-x="348" arabic-form="initial" 
d="M-49 -25l19 119h164l-39 -21q2 41 9 88t16 94t19 87.5t17 68.5t9 37l4 -48l-63 78q31 23 69 37.5t72 14.5q31 0 45 -13.5t14 -43.5q0 -11 -7 -42t-17 -75.5t-21 -95.5t-19 -101.5t-11 -93.5l-58 -90h-222zM-49 -25q-13 0 -16 15.5t2 43.5t12.5 44t20.5 16zM180 -255
q-32 0 -51 16.5t-19 43.5q0 40 27 65t69 25q32 0 51 -16.5t19 -44.5q0 -39 -26.5 -64t-69.5 -25zM63 -404q-29 0 -46.5 15.5t-17.5 40.5q0 36 24.5 58.5t62.5 22.5q29 0 46.5 -15t17.5 -41q0 -35 -24.5 -58t-62.5 -23zM-2 -255q-32 0 -51.5 16.5t-19.5 43.5q0 40 27.5 65
t68.5 25q33 0 52.5 -16.5t19.5 -44.5q0 -39 -27.5 -64t-69.5 -25z" />
    <glyph glyph-name="uniFB59" unicode="&#x67e;" horiz-adv-x="417" arabic-form="medial" 
d="M-49 -25l19 119h160l-45 -45v46q0 25 5.5 56.5t13.5 66t16 69.5t13 68t5 61q0 23 -3.5 44t-10.5 36q27 16 55 25t52 9q31 0 44.5 -17t13.5 -50q0 -27 -7 -61.5t-16.5 -72t-17 -73t-7.5 -64.5q0 -46 22.5 -72t64.5 -26h58l-19 -119h-81q-41 0 -63.5 22.5t-27.5 61.5
l36 -32h-37l-34 -52h-209zM367 -25l20 119q13 0 15.5 -16t-2.5 -44q-4 -26 -12 -42.5t-21 -16.5zM-49 -25q-13 0 -16 15.5t2 43.5t12.5 44t20.5 16zM179 -255q-32 0 -51 16.5t-19 43.5q0 40 27 65t69 25q32 0 51 -16.5t19 -44.5q0 -39 -26.5 -64t-69.5 -25zM62 -404
q-29 0 -46.5 15.5t-17.5 40.5q0 36 24.5 58.5t62.5 22.5q29 0 46.5 -15t17.5 -41q0 -35 -24.5 -58t-62.5 -23zM-3 -255q-32 0 -51.5 16.5t-19.5 43.5q0 40 27.5 65t68.5 25q33 0 52.5 -16.5t19.5 -44.5q0 -39 -27.5 -64t-69.5 -25z" />
    <glyph glyph-name="uniFB67" unicode="&#x679;" horiz-adv-x="1118" arabic-form="final" 
d="M980 -25q-41 0 -63.5 22.5t-27.5 61.5l51 -32h-109l115 253q-5 -25 -8.5 -49.5t-3.5 -42.5q0 -42 22 -68t65 -26h67l-20 -119h-88zM239 -25q-83 0 -121.5 40t-38.5 132q0 45 7 80.5t13.5 69t6.5 72.5q0 29 -4 50t-11 35q26 14 52 24t52 10q30 0 43.5 -17t13.5 -52
q0 -36 -9 -77.5t-19 -85.5t-10 -87q0 -44 16 -59.5t54 -15.5h532l-40 -21q2 41 9 88t16.5 94t19 87.5t17 68.5t9.5 37l4 -48l-63 78q31 23 68.5 37.5t71.5 14.5q31 0 45.5 -13.5t14.5 -43.5q0 -11 -7 -42t-17.5 -75.5t-21.5 -95.5t-19 -101.5t-10 -93.5l-59 -90h-615z
M1068 -25l20 119q13 0 15.5 -16t-2.5 -44q-4 -26 -12 -42.5t-21 -16.5zM491 595q-24 0 -34 10t-10 29q0 15 5 31t12 35q6 -1 13 -3.5t14 -3.5q-1 6 -1.5 15t-0.5 18t0.5 17.5t2.5 15.5q1 14 5.5 37.5t10.5 53t13 61.5t13 61l-24 32q16 12 35.5 19.5t36.5 7.5q31 0 31 -29
q0 -7 -7.5 -39.5t-18.5 -81.5q13 5 26 8t26 3q52 0 85.5 -32.5t33.5 -94.5q0 -30 -8 -56.5t-20.5 -47.5t-24.5 -36q-8 4 -19.5 6t-22.5 2q-34 0 -63 -9.5t-56 -19t-53 -9.5zM713 668q10 60 0.5 91t-31 43.5t-47.5 12.5q-48 0 -78 -33t-32 -93q33 1 61.5 10.5t54 18.5t50.5 9
q16 0 27.5 -6t19.5 -15z" />
    <glyph glyph-name="uniFB68" unicode="&#x679;" horiz-adv-x="348" arabic-form="initial" 
d="M-49 -25l19 119h164l-39 -21q2 41 9 88t16 94t19 87.5t17 68.5t9 37l4 -48l-63 78q31 23 69 37.5t72 14.5q31 0 45 -13.5t14 -43.5q0 -11 -7 -42t-17 -75.5t-21 -95.5t-19 -101.5t-11 -93.5l-58 -90h-222zM-49 -25q-13 0 -16 15.5t2 43.5t12.5 44t20.5 16zM160 620
q-24 0 -34 10t-10 29q0 15 5 31t12 35q6 -1 13 -3.5t14 -3.5q-1 6 -1.5 15t-0.5 18t0.5 17.5t2.5 15.5q1 14 5.5 37.5t10.5 53t13 61.5t13 61l-24 32q16 12 35.5 19.5t36.5 7.5q31 0 31 -29q0 -7 -7.5 -39.5t-18.5 -81.5q13 5 26 8t26 3q52 0 85.5 -32.5t33.5 -94.5
q0 -30 -8 -56.5t-20.5 -47.5t-24.5 -36q-8 4 -19.5 6t-22.5 2q-34 0 -63 -9.5t-56 -19t-53 -9.5zM382 693q10 60 0.5 91t-31 43.5t-47.5 12.5q-48 0 -78 -33t-32 -93q33 1 61.5 10.5t54 18.5t50.5 9q16 0 27.5 -6t19.5 -15z" />
    <glyph glyph-name="uniFB69" unicode="&#x679;" horiz-adv-x="417" arabic-form="medial" 
d="M-49 -25l19 119h160l-45 -45v46q0 25 5.5 56.5t13.5 66t16 69.5t13 68t5 61q0 23 -3.5 44t-10.5 36q27 16 55 25t52 9q31 0 44.5 -17t13.5 -50q0 -27 -7 -61.5t-16.5 -72t-17 -73t-7.5 -64.5q0 -46 22.5 -72t64.5 -26h58l-19 -119h-81q-41 0 -63.5 22.5t-27.5 61.5
l36 -32h-37l-34 -52h-209zM367 -25l20 119q13 0 15.5 -16t-2.5 -44q-4 -26 -12 -42.5t-21 -16.5zM-49 -25q-13 0 -16 15.5t2 43.5t12.5 44t20.5 16zM159 620q-24 0 -34 10t-10 29q0 15 5 31t12 35q6 -1 13 -3.5t14 -3.5q-1 6 -1.5 15t-0.5 18t0.5 17.5t2.5 15.5
q1 14 5.5 37.5t10.5 53t13 61.5t13 61l-24 32q16 12 35.5 19.5t36.5 7.5q31 0 31 -29q0 -7 -7.5 -39.5t-18.5 -81.5q13 5 26 8t26 3q52 0 85.5 -32.5t33.5 -94.5q0 -30 -8 -56.5t-20.5 -47.5t-24.5 -36q-8 4 -19.5 6t-22.5 2q-34 0 -63 -9.5t-56 -19t-53 -9.5zM381 693
q10 60 0.5 91t-31 43.5t-47.5 12.5q-48 0 -78 -33t-32 -93q33 1 61.5 10.5t54 18.5t50.5 9q16 0 27.5 -6t19.5 -15z" />
    <glyph glyph-name="uniFB6B" unicode="&#x6a4;" horiz-adv-x="1290" arabic-form="final" 
d="M1154 -25q-41 0 -63.5 22.5t-28.5 61.5l52 -32h-109l115 255q-6 -26 -9.5 -51t-3.5 -43q0 -42 22.5 -68t64.5 -26h65l-19 -119h-86zM239 -25q-83 0 -121.5 40t-38.5 132q0 45 7 80.5t13.5 69t6.5 72.5q0 29 -4 50t-11 35q26 14 52 24t52 10q30 0 43.5 -17t13.5 -52
q0 -36 -9 -77.5t-19 -85.5t-10 -87q0 -44 16 -59.5t54 -15.5h370l-31 -29q-17 31 -26 70t-9 84q0 85 25 156t70.5 122.5t109 80t139.5 28.5q52 0 93.5 -11.5t70.5 -29t47 -34.5t25 -28q0 -8 -5.5 -34t-14 -63t-19 -81.5t-19.5 -90.5t-15.5 -89.5t-8.5 -79.5l-58 -90h-789z
M950 73q1 38 8 84.5t16.5 94.5t19.5 93t19 80.5t14 55.5l3 -21q-11 11 -38.5 19t-59.5 8q-57 0 -104 -31t-75 -90t-28 -143q0 -43 8 -71.5t18.5 -44t17.5 -24.5l-30 11h256zM1240 -25l20 119q13 0 15.5 -16t-2.5 -44q-4 -26 -12 -42.5t-21 -16.5zM1025 695q-32 0 -51 16.5
t-19 43.5q0 40 27 65t69 25q32 0 51 -16.5t19 -44.5q0 -40 -26.5 -64.5t-69.5 -24.5zM843 695q-32 0 -51.5 16.5t-19.5 43.5q0 40 27.5 65t68.5 25q33 0 52.5 -16.5t19.5 -44.5q0 -40 -27.5 -64.5t-69.5 -24.5zM958 858q-29 0 -47 15t-18 40q0 36 25 58.5t63 22.5
q30 0 47.5 -15t17.5 -40q0 -37 -24.5 -59t-63.5 -22z" />
    <glyph glyph-name="uniFB6C" unicode="&#x6a4;" horiz-adv-x="713" arabic-form="initial" 
d="M-49 -25l19 119h197l-31 -29q-17 31 -26 70t-9 84q0 85 25 156t70.5 122.5t109 80t139.5 28.5q52 0 93.5 -11.5t70.5 -29t47 -34.5t25 -28q0 -8 -5.5 -34t-14 -63t-19 -81.5t-19.5 -90.5t-15.5 -89.5t-8.5 -79.5l-58 -90h-590zM463 73q1 38 8 84.5t16.5 94.5t19.5 93
t19 80.5t14 55.5l3 -21q-11 11 -38.5 19t-59.5 8q-57 0 -103.5 -31t-75 -90t-28.5 -143q0 -43 8 -71.5t18.5 -44t17.5 -24.5l-30 11h256zM-49 -25q-13 0 -16 15.5t2 43.5t12.5 44t20.5 16zM535 695q-32 0 -51 16.5t-19 43.5q0 40 27 65t69 25q32 0 51 -16.5t19 -44.5
q0 -40 -26.5 -64.5t-69.5 -24.5zM353 695q-32 0 -51.5 16.5t-19.5 43.5q0 40 27.5 65t68.5 25q33 0 52.5 -16.5t19.5 -44.5q0 -40 -27.5 -64.5t-69.5 -24.5zM468 858q-29 0 -47 15t-18 40q0 36 25 58.5t63 22.5q30 0 47.5 -15t17.5 -40q0 -37 -24.5 -59t-63.5 -22z" />
    <glyph glyph-name="uniFB6D" unicode="&#x6a4;" horiz-adv-x="804" arabic-form="medial" 
d="M667 -25q-41 0 -63.5 22.5t-27.5 61.5l51 -32h-108l114 255q-5 -26 -9 -51t-4 -43q0 -42 22.5 -68t65.5 -26h65l-19 -119h-87zM-49 -25l19 119h197l-31 -29q-17 31 -26 70t-9 84q0 85 25 156t70.5 122.5t109 80t139.5 28.5q52 0 93.5 -11.5t70.5 -29t47 -34.5t25 -28
q0 -8 -5.5 -34t-14 -63t-19 -81.5t-19.5 -90.5t-15.5 -89.5t-8.5 -79.5l-58 -90h-590zM463 73q1 38 8 84.5t16.5 94.5t19.5 93t19 80.5t14 55.5l3 -21q-11 11 -38.5 19t-59.5 8q-57 0 -103.5 -31t-75 -90t-28.5 -143q0 -43 8 -71.5t18.5 -44t17.5 -24.5l-30 11h256zM-49 -25
q-13 0 -16 15.5t2 43.5t12.5 44t20.5 16zM754 -25l19 119q14 0 16 -16t-2 -44q-5 -26 -12.5 -42.5t-20.5 -16.5zM535 695q-32 0 -51 16.5t-19 43.5q0 40 27 65t69 25q32 0 51 -16.5t19 -44.5q0 -40 -26.5 -64.5t-69.5 -24.5zM353 695q-32 0 -51.5 16.5t-19.5 43.5
q0 40 27.5 65t68.5 25q33 0 52.5 -16.5t19.5 -44.5q0 -40 -27.5 -64.5t-69.5 -24.5zM468 858q-29 0 -47 15t-18 40q0 36 25 58.5t63 22.5q30 0 47.5 -15t17.5 -40q0 -37 -24.5 -59t-63.5 -22z" />
    <glyph glyph-name="uniFB7B" unicode="&#x686;" horiz-adv-x="984" arabic-form="final" 
d="M323 -389q-39 0 -69.5 21.5t-52 59.5t-32 89.5t-10.5 111.5q0 89 24.5 167.5t66 143t91.5 113t103 77.5l6 -7q-11 -3 -27 -4t-31 -1.5t-27 -0.5q-36 0 -74.5 5t-74 16.5t-64 29.5t-45 43.5t-16.5 60.5q0 19 5 33.5t14 30.5q51 -14 123 -30.5t152.5 -31t157.5 -23
t137 -8.5q32 0 56.5 4.5t44.5 16.5q16 -21 23.5 -37.5t7.5 -37.5q0 -43 -29.5 -62t-77.5 -19q-31 0 -63.5 6.5t-58.5 18.5l31 33l-10 -58q-57 -27 -111.5 -74.5t-98 -111t-69 -136.5t-25.5 -151q0 -64 15.5 -109.5t40.5 -75t53 -44.5q-5 -12 -16 -26t-28.5 -23.5t-41.5 -9.5
zM546 -366q-29 0 -46.5 15t-17.5 40q0 37 25 59t62 22q30 0 47.5 -15t17.5 -40q0 -36 -24.5 -58.5t-63.5 -22.5zM482 -218q-33 0 -52 17t-19 43q0 41 27 65.5t69 24.5q33 0 52 -16.5t19 -44.5q0 -39 -26.5 -64t-69.5 -25zM663 -218q-31 0 -50.5 17t-19.5 43q0 41 27.5 65.5
t68.5 24.5q33 0 52 -16.5t19 -44.5q0 -39 -27 -64t-70 -25zM839 -25q-75 0 -127 23t-84 63.5t-45 94.5t-10.5 116.5t18.5 129.5l127 22q-13 -53 -16.5 -102t2.5 -90.5t25 -72.5t51.5 -48t80.5 -17h92l-19 -119h-95zM934 -25l19 119q13 0 15.5 -16t-1.5 -44
q-5 -26 -12.5 -42.5t-20.5 -16.5z" />
    <glyph glyph-name="uniFB7C" unicode="&#x686;" horiz-adv-x="865" arabic-form="initial" 
d="M-49 -25l19 119h681l-43 -43q4 68 -12.5 123t-45 97t-63 71.5t-67.5 46.5q-17 -3 -44 -5.5t-48 -2.5q-35 0 -73 5t-73.5 16.5t-63.5 29.5t-44.5 43.5t-16.5 60.5q0 19 4.5 33.5t14.5 30.5q50 -14 122 -30.5t152.5 -31t157.5 -23t137 -8.5q32 0 57 4.5t44 16.5
q16 -21 23.5 -37.5t7.5 -39.5q0 -45 -31.5 -62t-89.5 -17q-13 0 -25 1t-26 2t-34.5 1.5t-53.5 1.5l65 16q55 -30 91.5 -72t57.5 -89t28.5 -92.5t4.5 -81.5l-55 -84h-758zM-49 -25q-13 0 -16 15.5t2 43.5t12.5 44t20.5 16zM375 -255q-32 0 -51 16.5t-19 43.5q0 40 27 65
t69 25q32 0 51 -16.5t19 -44.5q0 -39 -26.5 -64t-69.5 -25zM258 -404q-29 0 -46.5 15.5t-17.5 40.5q0 36 24.5 58.5t62.5 22.5q29 0 46.5 -15t17.5 -41q0 -35 -24.5 -58t-62.5 -23zM193 -255q-32 0 -51.5 16.5t-19.5 43.5q0 40 27.5 65t68.5 25q33 0 52.5 -16.5t19.5 -44.5
q0 -39 -27.5 -64t-69.5 -25z" />
    <glyph glyph-name="uniFB7D" unicode="&#x686;" horiz-adv-x="940" arabic-form="medial" 
d="M831 -25q-39 0 -61.5 23.5t-30.5 57.5l54 -29h-76l33 151q5 -15 13 -35t27 -34.5t58 -14.5h61l-19 -119h-59zM-49 -25l19 119h681l-43 -43q4 68 -12.5 123t-45 97t-63 71.5t-67.5 46.5q-17 -3 -44 -5.5t-48 -2.5q-35 0 -73 5t-73.5 16.5t-63.5 29.5t-44.5 43.5
t-16.5 60.5q0 19 4.5 33.5t14.5 30.5q50 -14 122 -30.5t152.5 -31t157.5 -23t137 -8.5q32 0 57 4.5t44 16.5q16 -21 23.5 -37.5t7.5 -39.5q0 -45 -31.5 -62t-89.5 -17q-13 0 -25 1t-26 2t-34.5 1.5t-53.5 1.5l65 16q55 -30 91.5 -72t57.5 -89t28.5 -92.5t4.5 -81.5l-55 -84
h-758zM-49 -25q-13 0 -16 15.5t2 43.5t12.5 44t20.5 16zM890 -25l19 119q14 0 16.5 -16t-2.5 -44q-5 -26 -12.5 -42.5t-20.5 -16.5zM375 -255q-32 0 -51 16.5t-19 43.5q0 40 27 65t69 25q32 0 51 -16.5t19 -44.5q0 -39 -26.5 -64t-69.5 -25zM258 -404q-29 0 -46.5 15.5
t-17.5 40.5q0 36 24.5 58.5t62.5 22.5q29 0 46.5 -15t17.5 -41q0 -35 -24.5 -58t-62.5 -23zM193 -255q-32 0 -51.5 16.5t-19.5 43.5q0 40 27.5 65t68.5 25q33 0 52.5 -16.5t19.5 -44.5q0 -39 -27.5 -64t-69.5 -25z" />
    <glyph glyph-name="uniFB89" unicode="&#x688;" horiz-adv-x="742" arabic-form="final" 
d="M605 -25q-41 0 -63.5 22.5t-28.5 61.5l52 -32h-108l98 159q0 -40 21.5 -66t64.5 -26h71l-20 -119h-87zM167 -24q-75 0 -112 24.5t-37 74.5q0 14 2.5 26.5t6.5 22.5q25 -10 57 -20t64 -10h297l-47 -30q-1 27 5.5 62.5t15.5 75t16 78t7 70.5q0 72 -37.5 106.5t-92.5 34.5
q-58 0 -92.5 -37t-38.5 -105q-31 0 -57 7.5t-41 25.5t-15 51q0 46 30.5 86t85.5 65.5t128 25.5q81 0 141.5 -33t93.5 -91.5t33 -135.5q0 -40 -7.5 -82t-16.5 -81t-15.5 -70t-5.5 -49l-55 -92h-313zM692 -25l20 119q13 0 15.5 -16t-2.5 -44q-4 -26 -12 -42.5t-21 -16.5z
M269 690q-24 0 -34 10t-10 29q0 15 5 31t12 35q6 -1 13 -3.5t14 -3.5q-1 6 -1.5 15t-0.5 18t0.5 17.5t2.5 15.5q1 14 5.5 37.5t10.5 53t13 61.5t13 61l-24 32q16 12 35.5 19.5t36.5 7.5q31 0 31 -29q0 -7 -7.5 -39.5t-18.5 -81.5q13 5 26 8t26 3q52 0 85.5 -32.5t33.5 -94.5
q0 -30 -8 -56.5t-20.5 -47.5t-24.5 -36q-8 4 -19.5 6t-22.5 2q-34 0 -63 -9.5t-56 -19t-53 -9.5zM491 763q10 60 0.5 91t-31 43.5t-47.5 12.5q-48 0 -78 -33t-32 -93q33 1 61.5 10.5t54 18.5t50.5 9q16 0 27.5 -6t19.5 -15z" />
    <glyph glyph-name="uniFB8B" unicode="&#x698;" horiz-adv-x="522" arabic-form="final" 
d="M412 -25q-41 0 -63 22.5t-28 61.5l51 -32h-98l75 165q1 -46 23.5 -71.5t64.5 -26.5h55l-20 -119h-60zM23 -365q-51 0 -85 12.5t-50.5 32.5t-16.5 44q79 0 132.5 17.5t88.5 55.5t57 98t37 146q8 45 15 87t13.5 81.5t12 76t10.5 69t9 60.5l6 -56l-57 120q39 25 72.5 38
t60.5 13q31 0 47.5 -15.5t16.5 -35.5q0 -8 -4 -37.5t-12 -79.5t-19 -120t-25 -158q-17 -106 -40.5 -189.5t-59.5 -141t-87 -88t-122 -30.5zM472 -25l20 119q13 0 15.5 -16t-1.5 -44q-5 -26 -12.5 -42.5t-21.5 -16.5zM409 620q-32 0 -51 16.5t-19 43.5q0 40 27 65t69 25
q32 0 51 -16.5t19 -44.5q0 -40 -26.5 -64.5t-69.5 -24.5zM227 620q-32 0 -51.5 16.5t-19.5 43.5q0 40 27.5 65t68.5 25q33 0 52.5 -16.5t19.5 -44.5q0 -40 -27.5 -64.5t-69.5 -24.5zM342 783q-29 0 -47 15t-18 40q0 36 25 58.5t63 22.5q30 0 47.5 -15t17.5 -40
q0 -37 -24.5 -59t-63.5 -22z" />
    <glyph glyph-name="uniFB8D" unicode="&#x691;" horiz-adv-x="522" arabic-form="final" 
d="M412 -25q-41 0 -63 22.5t-28 61.5l51 -32h-98l75 165q1 -46 23.5 -71.5t64.5 -26.5h55l-20 -119h-60zM23 -365q-51 0 -85 12.5t-50.5 32.5t-16.5 44q79 0 132.5 17.5t88.5 55.5t57 98t37 146q8 45 15 87t13.5 81.5t12 76t10.5 69t9 60.5l6 -56l-57 120q39 25 72.5 38
t60.5 13q31 0 47.5 -15.5t16.5 -35.5q0 -8 -4 -37.5t-12 -79.5t-19 -120t-25 -158q-17 -106 -40.5 -189.5t-59.5 -141t-87 -88t-122 -30.5zM472 -25l20 119q13 0 15.5 -16t-1.5 -44q-5 -26 -12.5 -42.5t-21.5 -16.5zM250 620q-24 0 -34 10t-10 29q0 15 5 31t12 35
q6 -1 13 -3.5t14 -3.5q-1 6 -1.5 15t-0.5 18t0.5 17.5t2.5 15.5q1 14 5.5 37.5t10.5 53t13 61.5t13 61l-24 32q16 12 35.5 19.5t36.5 7.5q31 0 31 -29q0 -7 -7.5 -39.5t-18.5 -81.5q13 5 26 8t26 3q52 0 85.5 -32.5t33.5 -94.5q0 -30 -8 -56.5t-20.5 -47.5t-24.5 -36
q-8 4 -19.5 6t-22.5 2q-34 0 -63 -9.5t-56 -19t-53 -9.5zM472 693q10 60 0.5 91t-31 43.5t-47.5 12.5q-48 0 -78 -33t-32 -93q33 1 61.5 10.5t54 18.5t50.5 9q16 0 27.5 -6t19.5 -15z" />
    <glyph glyph-name="uniFB8F" unicode="&#x6a9;" horiz-adv-x="1421" arabic-form="final" 
d="M1283 -25q-40 0 -62.5 22.5t-28.5 61.5l51 -32h-108l94 162q0 -42 22.5 -68.5t64.5 -26.5h74l-19 -119h-88zM236 -25q-83 0 -121 40t-38 132q0 41 5 65.5t10 47.5t5 59q0 27 -3.5 48t-10.5 36q25 14 51 24t52 10q31 0 44 -17.5t13 -52.5q0 -33 -7.5 -63t-16 -62t-8.5 -73
q0 -29 7 -45.5t22 -23t41 -6.5h816l-13 -18q2 34 5 66.5t3 63.5q0 45 -11.5 58.5t-40.5 13.5h-413q-54 0 -95.5 20.5t-65.5 69t-24 130.5q0 38 4.5 79.5t10 77.5t9.5 55q19 -5 63.5 -9.5t111.5 -4.5q41 0 95 1.5t113 4t115.5 4.5t102.5 2q55 0 85 -5t42 -18t12 -40
q0 -17 -4.5 -36.5t-14.5 -35.5q-31 6 -73.5 10t-96.5 4q-32 0 -76.5 -1.5t-95 -3l-101 -3t-94.5 -3t-74 -1.5l13 12q-4 -16 -8.5 -46.5t-4.5 -54.5q0 -48 20.5 -68.5t55.5 -20.5h433q72 0 108.5 -39.5t36.5 -131.5q0 -26 -2.5 -53t-5.5 -53.5t-4 -53.5l-60 -91h-922z
M1371 -25l19 119q14 0 16.5 -16t-2.5 -44q-5 -26 -12.5 -42.5t-20.5 -16.5z" />
    <glyph glyph-name="uniFB90" unicode="&#x6a9;" horiz-adv-x="941" arabic-form="initial" 
d="M-49 -25l19 119h752l-15 -18q2 34 5.5 66.5t3.5 63.5q0 45 -12 58.5t-40 13.5h-414q-53 0 -95 20.5t-65.5 69t-23.5 130.5q0 38 4.5 79.5t10 77.5t9.5 55q18 -5 62.5 -9.5t112.5 -4.5q40 0 94.5 1.5t113 4t115.5 4.5t103 2q54 0 84.5 -5t42.5 -18t12 -40q0 -17 -5 -36.5
t-15 -35.5q-32 6 -73.5 10t-96.5 4q-31 0 -75.5 -1.5t-95.5 -3t-101 -3t-94 -3t-74 -1.5l12 12q-4 -16 -8 -46.5t-4 -54.5q0 -48 20.5 -68.5t54.5 -20.5h434q71 0 108 -39.5t37 -131.5q0 -26 -2.5 -53t-5.5 -53.5t-5 -53.5l-59 -91h-831zM-49 -25q-13 0 -16 15.5t2 43.5
t12.5 44t20.5 16z" />
    <glyph glyph-name="uniFB91" unicode="&#x6a9;" horiz-adv-x="1045" arabic-form="medial" 
d="M907 -25q-42 0 -64.5 22.5t-27.5 61.5l51 -32h-108l94 162q0 -42 22.5 -68.5t64.5 -26.5h75l-19 -119h-88zM-49 -25l19 119h752l-15 -18q2 34 5.5 66.5t3.5 63.5q0 45 -12 58.5t-40 13.5h-414q-53 0 -95 20.5t-65.5 69t-23.5 130.5q0 38 4.5 79.5t10 77.5t9.5 55
q18 -5 62.5 -9.5t112.5 -4.5q40 0 94.5 1.5t113 4t115.5 4.5t103 2q54 0 84.5 -5t42.5 -18t12 -40q0 -17 -5 -36.5t-15 -35.5q-32 6 -73.5 10t-96.5 4q-31 0 -75.5 -1.5t-95.5 -3t-101 -3t-94 -3t-74 -1.5l12 12q-4 -16 -8 -46.5t-4 -54.5q0 -48 20.5 -68.5t54.5 -20.5h434
q71 0 108 -39.5t37 -131.5q0 -26 -2.5 -53t-5.5 -53.5t-5 -53.5l-59 -91h-831zM-49 -25q-13 0 -16 15.5t2 43.5t12.5 44t20.5 16zM995 -25l19 119q13 0 15.5 -16t-1.5 -44q-5 -26 -12.5 -42.5t-20.5 -16.5z" />
    <glyph glyph-name="uniFB93" unicode="&#x6af;" horiz-adv-x="1421" arabic-form="final" 
d="M618 780q-74 0 -101.5 11t-27.5 43q0 17 5 32.5t15 29.5q20 -4 45.5 -6.5t55.5 -4.5t62 -2q66 0 135.5 4t140.5 7t141 3q77 0 104.5 -11t27.5 -43q0 -33 -20 -62q-31 7 -72.5 10t-90.5 3q-64 0 -133.5 -3.5t-141.5 -7t-145 -3.5zM236 -25q-83 0 -121 40t-38 132
q0 41 5 65.5t10 47.5t5 59q0 27 -3.5 48t-10.5 36q25 14 51 24t52 10q31 0 44 -17.5t13 -52.5q0 -33 -7.5 -63t-16 -62t-8.5 -73q0 -29 7 -45.5t22 -23t41 -6.5h816l-13 -18q2 34 5 66.5t3 63.5q0 45 -11.5 58.5t-40.5 13.5h-413q-54 0 -95.5 20.5t-65.5 69t-24 130.5
q0 38 4.5 79.5t10 77.5t9.5 55q19 -5 63.5 -9.5t111.5 -4.5q41 0 95 1.5t113 4t115.5 4.5t102.5 2q55 0 85 -5t42 -18t12 -40q0 -17 -4.5 -36.5t-14.5 -35.5q-31 6 -73.5 10t-96.5 4q-32 0 -76.5 -1.5t-95 -3l-101 -3t-94.5 -3t-74 -1.5l13 12q-4 -16 -8.5 -46.5t-4.5 -54.5
q0 -48 20.5 -68.5t55.5 -20.5h433q72 0 108.5 -39.5t36.5 -131.5q0 -26 -2.5 -53t-5.5 -53.5t-4 -53.5l-60 -91h-922zM1371 -25l19 119q14 0 16.5 -16t-2.5 -44q-5 -26 -12.5 -42.5t-20.5 -16.5zM1283 -25q-40 0 -62.5 22.5t-28.5 61.5l51 -32h-108l94 162q0 -42 22.5 -68.5
t64.5 -26.5h74l-19 -119h-88z" />
    <glyph glyph-name="uniFB94" unicode="&#x6af;" horiz-adv-x="941" arabic-form="initial" 
d="M251 807q-74 0 -101.5 10.5t-27.5 43.5q0 17 5 32t15 29q20 -3 45.5 -6t55.5 -4.5t62 -1.5q66 0 135.5 3.5t140.5 7t141 3.5q77 0 104.5 -11t27.5 -44q0 -32 -20 -61q-31 6 -72.5 9.5t-90.5 3.5q-64 0 -133.5 -3.5t-141.5 -7t-145 -3.5zM-49 -25q-13 0 -16 15.5t2 43.5
t12.5 44t20.5 16zM-49 -25l19 119h752l-15 -18q2 34 5.5 66.5t3.5 63.5q0 45 -12 58.5t-40 13.5h-414q-53 0 -95 20.5t-65.5 69t-23.5 130.5q0 38 4.5 79.5t10 77.5t9.5 55q18 -5 62.5 -9.5t112.5 -4.5q40 0 94.5 1.5t113 4t115.5 4.5t103 2q54 0 84.5 -5t42.5 -18t12 -40
q0 -17 -5 -36.5t-15 -35.5q-32 6 -73.5 10t-96.5 4q-31 0 -75.5 -1.5t-95.5 -3t-101 -3t-94 -3t-74 -1.5l12 12q-4 -16 -8 -46.5t-4 -54.5q0 -48 20.5 -68.5t54.5 -20.5h434q71 0 108 -39.5t37 -131.5q0 -26 -2.5 -53t-5.5 -53.5t-5 -53.5l-59 -91h-831z" />
    <glyph glyph-name="uniFB95" unicode="&#x6af;" horiz-adv-x="1045" arabic-form="medial" 
d="M239 793q-75 0 -102.5 11t-27.5 43q0 17 5.5 32.5t15.5 29.5q20 -4 45.5 -6.5t55.5 -4.5t62 -2q66 0 135 4t140.5 7t141.5 3q76 0 103.5 -11t27.5 -43q0 -33 -19 -62q-31 7 -72.5 10t-90.5 3q-65 0 -134.5 -3.5t-141.5 -7t-144 -3.5zM-49 -25q-13 0 -16 15.5t2 43.5
t12.5 44t20.5 16zM-49 -25l19 119h752l-15 -18q2 34 5.5 66.5t3.5 63.5q0 45 -12 58.5t-40 13.5h-414q-53 0 -95 20.5t-65.5 69t-23.5 130.5q0 38 4.5 79.5t10 77.5t9.5 55q18 -5 62.5 -9.5t112.5 -4.5q40 0 94.5 1.5t113 4t115.5 4.5t103 2q54 0 84.5 -5t42.5 -18t12 -40
q0 -17 -5 -36.5t-15 -35.5q-32 6 -73.5 10t-96.5 4q-31 0 -75.5 -1.5t-95.5 -3t-101 -3t-94 -3t-74 -1.5l12 12q-4 -16 -8 -46.5t-4 -54.5q0 -48 20.5 -68.5t54.5 -20.5h434q71 0 108 -39.5t37 -131.5q0 -26 -2.5 -53t-5.5 -53.5t-5 -53.5l-59 -91h-831zM995 -25l19 119
q13 0 15.5 -16t-1.5 -44q-5 -26 -12.5 -42.5t-20.5 -16.5zM907 -25q-42 0 -64.5 22.5t-27.5 61.5l51 -32h-108l94 162q0 -42 22.5 -68.5t64.5 -26.5h75l-19 -119h-88z" />
    <glyph glyph-name="uniFB9F" unicode="&#x6ba;" horiz-adv-x="954" arabic-form="final" 
d="M813 -25q-42 0 -64 22.5t-28 61.5l51 -32h-108l108 255q-4 -25 -9 -50t-5 -41q0 -45 21.5 -71t64.5 -26h79l-19 -119h-91zM352 -278q-89 0 -148 23.5t-94 61.5t-52 80.5t-22.5 81.5t-5.5 64q0 50 13 90t38.5 62.5t63.5 22.5q31 0 50.5 -11t27.5 -22q-25 -24 -40.5 -56
t-15.5 -91q0 -97 45.5 -142t141.5 -45q73 0 121 26t79 90t52 176l55 302l26 -51l-74 95q30 23 66.5 37t74.5 14q30 0 42.5 -10.5t12.5 -37.5q-16 -92 -29.5 -165t-23 -125t-15.5 -81q-10 -52 -26 -106.5t-42 -104.5t-67.5 -90.5t-104 -64t-149.5 -23.5zM904 -25l20 119
q13 0 15.5 -16t-2.5 -44q-4 -26 -12 -42.5t-21 -16.5z" />
    <glyph glyph-name="uniFBA7" unicode="&#x6c1;" horiz-adv-x="770" arabic-form="final" 
d="M106 -132q-43 0 -62.5 35.5t-13.5 95.5l39 310q10 75 32.5 126.5t54 84t67.5 50.5t71 24.5t65 6.5q62 0 111 -17t84.5 -53t53.5 -92.5t18 -134.5q0 -29 -4 -67.5t-9.5 -76.5t-11.5 -66h140l-20 -119h-202l-64 79q6 29 12 64t11 71.5t8.5 69.5t3.5 57q0 56 -17.5 94
t-46.5 57t-67 19q-35 0 -65.5 -16.5t-52 -50.5t-28.5 -86q-5 -35 -11 -78t-11.5 -86.5t-10.5 -81.5t-7 -64q-4 -41 0.5 -72t22.5 -48q-18 -16 -41 -25.5t-49 -9.5zM720 -25l20 119q13 0 15.5 -16t-1.5 -44q-5 -26 -12.5 -42.5t-21.5 -16.5z" />
    <glyph glyph-name="uniFBA8" unicode="&#x6c1;" horiz-adv-x="348" arabic-form="initial" 
d="M-49 -25l19 119h164l-39 -21q2 41 9 88t16 94t19 87.5t17 68.5t9 37l4 -48l-63 78q31 23 69 37.5t72 14.5q31 0 45 -13.5t14 -43.5q0 -11 -7 -42t-17 -75.5t-21 -95.5t-19 -101.5t-11 -93.5l-58 -90h-222zM-49 -25q-13 0 -16 15.5t2 43.5t12.5 44t20.5 16zM140 11l13 -36
q-27 -14 -46 -36.5t-30 -47t-11 -45.5l57 -74q-2 -26 -16 -48t-37.5 -35t-50.5 -13q-42 0 -64.5 28t-22.5 64q0 58 25.5 106t72 83t110.5 54z" />
    <glyph glyph-name="uniFBA9" unicode="&#x6c1;" horiz-adv-x="820" arabic-form="medial" 
d="M323 -566q-83 0 -140.5 31t-87.5 96.5t-30 169.5q0 29 2 73t5.5 90t6.5 81h-128l19 119h191l64 -80q-3 -33 -7.5 -74.5t-8 -83t-6 -77.5t-2.5 -60q0 -85 32 -127.5t89 -42.5q26 0 53 9.5t49.5 28.5t38 48t18.5 67q5 52 9.5 111t8.5 116t6.5 100.5t2.5 64.5h281l-19 -119
h-173l47 37l-19 -286q-5 -76 -28 -127.5t-57 -84.5t-73.5 -50.5t-77 -23.5t-66.5 -6zM770 -25l20 119q13 0 15.5 -16t-1.5 -44q-5 -26 -13 -42.5t-21 -16.5zM-49 -25q-13 0 -16 15.5t2 43.5t12.5 44t20.5 16z" />
    <glyph glyph-name="uniFBAB" unicode="&#x6be;" horiz-adv-x="1239" arabic-form="final" 
d="M991 -25l67 119h150l-19 -119h-198zM495 -132q-30 0 -46.5 14t-23.5 35t-5.5 43t7.5 39l39 -24h-300q-54 0 -84 5.5t-42.5 19.5t-12.5 39q0 19 7 38t16 31q18 -4 39 -7t46.5 -5t55.5 -2h51l-43 -27q-2 77 21 145.5t67 122.5t108 88.5t144 42.5l-43 -25q6 32 16 63.5
t27.5 60.5t42.5 54t58.5 44t77 29t97.5 10q60 0 114 -15.5t95 -50t65 -91t24 -139.5q0 -59 -10 -112.5t-20 -108t-10 -119.5l-60 -91h-494l46 18q-3 -6 -2.5 -25t6 -38t17.5 -27q-18 -16 -42.5 -25.5t-48.5 -9.5zM430 50l57 323l24 -32q-47 -12 -79.5 -36.5t-53.5 -60.5
t-30.5 -81t-10.5 -99l-45 30h190zM569 50l-36 44h193l-53 -44l57 320l-4 -48q-3 4 -24 12.5t-56.5 14.5t-82.5 1l67 43zM809 50l-36 44h206l-42 -34q-2 48 4 91t14 83.5t14.5 80t6.5 80.5q0 66 -18.5 107.5t-55 61.5t-91.5 20q-49 0 -83.5 -15t-56 -45t-30.5 -74l-46 19
q72 -3 121 -17t79.5 -34.5t46.5 -41t19 -37.5zM1189 -25l20 119q13 0 15.5 -16t-2.5 -44q-5 -26 -12.5 -42.5t-20.5 -16.5z" />
    <glyph glyph-name="uniFBAC" unicode="&#x6be;" horiz-adv-x="1033" arabic-form="initial" 
d="M346 -132q-33 0 -49 17t-19 41.5t-1 48.5h-326l19 119h108q3 92 38.5 166t98.5 124.5t145 70.5q8 38 23 74.5t39 67.5t59 54.5t83 37t110 13.5q61 0 115.5 -15.5t96 -50t65 -91t23.5 -139.5q0 -59 -10 -112.5t-20.5 -108t-10.5 -119.5l-59 -91h-460q-1 -22 4.5 -42
t19.5 -30q-17 -16 -42 -25.5t-50 -9.5zM215 94h81l40 224q-56 -30 -87.5 -90t-33.5 -134zM434 94h90l37 233q-13 9 -34.5 14.5t-46.5 6.5zM668 94h130q3 64 12.5 117t17.5 101t8 99q0 62 -16.5 100t-52 55.5t-93.5 17.5q-49 0 -83 -12.5t-55 -38.5t-34 -67q85 -7 136.5 -36
t70.5 -60zM-49 -25q-13 0 -16 15.5t2 43.5t12.5 44t20.5 16z" />
    <glyph glyph-name="uniFBAD" unicode="&#x6be;" horiz-adv-x="1100" arabic-form="medial" 
d="M863 -25l19 119h187l-19 -119h-187zM346 -132q-33 0 -49 17t-19 41.5t-1 48.5h-326l19 119h108q3 92 38.5 166t98.5 124.5t145 70.5q8 38 23 74.5t39 67.5t59 54.5t83 37t110 13.5q61 0 115.5 -15.5t96 -50t65 -91t23.5 -139.5q0 -59 -10 -112.5t-20.5 -108t-10.5 -119.5
l-59 -91h-460q-1 -22 4.5 -42t19.5 -30q-17 -16 -42 -25.5t-50 -9.5zM215 94h81l40 224q-56 -30 -87.5 -90t-33.5 -134zM434 94h90l37 233q-13 9 -34.5 14.5t-46.5 6.5zM668 94h130q3 64 12.5 117t17.5 101t8 99q0 62 -16.5 100t-52 55.5t-93.5 17.5q-49 0 -83 -12.5
t-55 -38.5t-34 -67q85 -7 136.5 -36t70.5 -60zM-49 -25q-13 0 -16 15.5t2 43.5t12.5 44t20.5 16zM1050 -25l19 119q14 0 16.5 -16t-2.5 -44q-5 -26 -12.5 -42.5t-20.5 -16.5z" />
    <glyph glyph-name="uniFBAF" unicode="&#x6d2;" horiz-adv-x="738" arabic-form="final" 
d="M189 -343q-52 0 -91 23t-62 75t-23 138q0 37 4 77t9.5 76.5t11.5 61.5q26 -6 67.5 -10t101.5 -4h501l-20 -119h-532q-2 -13 -5 -34.5t-3 -42.5q0 -64 22.5 -93t58.5 -29h85.5h106.5h107h86l-20 -119h-405zM688 -25l20 119q13 0 15.5 -16t-2.5 -44q-5 -26 -12.5 -42.5
t-20.5 -16.5z" />
    <glyph glyph-name="uniFBB1" unicode="&#x6d3;" horiz-adv-x="738" arabic-form="final" 
d="M189 -343q-52 0 -91 23t-62 75t-23 138q0 37 4 77t9.5 76.5t11.5 61.5q26 -6 67.5 -10t101.5 -4h501l-20 -119h-532q-2 -13 -5 -34.5t-3 -42.5q0 -64 22.5 -93t58.5 -29h85.5h106.5h107h86l-20 -119h-405zM688 -25l20 119q13 0 15.5 -16t-2.5 -44q-5 -26 -12.5 -42.5
t-20.5 -16.5zM114 236q-24 0 -34 9.5t-10 29.5q0 15 4.5 32t12.5 33q13 -5 27 -8.5t29 -3.5q17 0 35 4t32 9l14 -25q-42 17 -67.5 38t-36 45.5t-10.5 49.5q0 27 11 44t27.5 27t35.5 14t37 4q17 0 39 -3t42.5 -10t33.5 -19t13 -29q0 -16 -13 -29.5t-40 -11.5q-19 1 -32 12.5
t-19 24.5q-20 -1 -35 -13.5t-15 -37.5q0 -19 9 -36t23 -30.5t27 -24.5l-56 6q39 10 64 19.5t52 9.5q23 0 33 -8.5t10 -29.5q0 -32 -16 -66q-13 5 -27 8t-30 3q-32 0 -61.5 -9.5t-56 -18.5t-52.5 -9z" />
    <glyph glyph-name="uniFBE8" unicode="&#x649;" horiz-adv-x="348" arabic-form="initial" 
d="M-49 -25l19 119h164l-39 -21q2 41 9 88t16 94t19 87.5t17 68.5t9 37l4 -48l-63 78q31 23 69 37.5t72 14.5q31 0 45 -13.5t14 -43.5q0 -11 -7 -42t-17 -75.5t-21 -95.5t-19 -101.5t-11 -93.5l-58 -90h-222zM-49 -25q-13 0 -16 15.5t2 43.5t12.5 44t20.5 16z" />
    <glyph glyph-name="uniFBE9" unicode="&#x649;" horiz-adv-x="417" arabic-form="medial" 
d="M-49 -25l19 119h160l-45 -45v46q0 25 5.5 56.5t13.5 66t16 69.5t13 68t5 61q0 23 -3.5 44t-10.5 36q27 16 55 25t52 9q31 0 44.5 -17t13.5 -50q0 -27 -7 -61.5t-16.5 -72t-17 -73t-7.5 -64.5q0 -46 22.5 -72t64.5 -26h58l-19 -119h-81q-41 0 -63.5 22.5t-27.5 61.5
l36 -32h-37l-34 -52h-209zM367 -25l20 119q13 0 15.5 -16t-2.5 -44q-4 -26 -12 -42.5t-21 -16.5zM-49 -25q-13 0 -16 15.5t2 43.5t12.5 44t20.5 16z" />
    <glyph glyph-name="uniFBFD" unicode="&#x6cc;" horiz-adv-x="1122" arabic-form="final" 
d="M477 -314q-90 0 -168 26.5t-137 75t-92 112.5t-33 140q0 77 33.5 120.5t85.5 43.5q21 0 36.5 -6.5t25.5 -14.5t12 -12q-5 -4 -18.5 -21t-25.5 -45t-12 -65q0 -44 19.5 -85.5t56.5 -75.5t91.5 -54t125.5 -20q72 0 136.5 20.5t114 54.5t77.5 72.5t28 74.5l137 10
q0 -57 -27 -109t-75 -96t-110.5 -77t-134.5 -51t-146 -18zM799 -25q-56 0 -87.5 5t-44.5 19t-13 39q0 18 6 36.5t17 33.5q22 -5 44 -8t50 -4.5t64 -1.5h256l-19 -119h-273zM1071 -25l20 119q13 0 15.5 -16t-2.5 -44q-4 -26 -12 -42.5t-21 -16.5z" />
    <glyph glyph-name="uniFBFE" unicode="&#x6cc;" horiz-adv-x="348" arabic-form="initial" 
d="M-49 -25l19 119h164l-39 -21q2 41 9 88t16 94t19 87.5t17 68.5t9 37l4 -48l-63 78q31 23 69 37.5t72 14.5q31 0 45 -13.5t14 -43.5q0 -11 -7 -42t-17 -75.5t-21 -95.5t-19 -101.5t-11 -93.5l-58 -90h-222zM-49 -25q-13 0 -16 15.5t2 43.5t12.5 44t20.5 16zM186 -256
q-31 0 -50.5 17t-19.5 44q0 40 27.5 65t68.5 25q33 0 52 -17t19 -45q0 -39 -27 -64t-70 -25zM5 -256q-33 0 -52 17t-19 44q0 40 27 65t69 25q33 0 52 -17t19 -45q0 -39 -26.5 -64t-69.5 -25z" />
    <glyph glyph-name="uniFBFF" unicode="&#x6cc;" horiz-adv-x="417" arabic-form="medial" 
d="M-49 -25l19 119h160l-45 -45v46q0 25 5.5 56.5t13.5 66t16 69.5t13 68t5 61q0 23 -3.5 44t-10.5 36q27 16 55 25t52 9q31 0 44.5 -17t13.5 -50q0 -27 -7 -61.5t-16.5 -72t-17 -73t-7.5 -64.5q0 -46 22.5 -72t64.5 -26h58l-19 -119h-81q-41 0 -63.5 22.5t-27.5 61.5
l36 -32h-37l-34 -52h-209zM367 -25l20 119q13 0 15.5 -16t-2.5 -44q-4 -26 -12 -42.5t-21 -16.5zM-49 -25q-13 0 -16 15.5t2 43.5t12.5 44t20.5 16zM185 -256q-31 0 -50.5 17t-19.5 44q0 40 27.5 65t68.5 25q33 0 52 -17t19 -45q0 -39 -27 -64t-70 -25zM4 -256q-33 0 -52 17
t-19 44q0 40 27 65t69 25q33 0 52 -17t19 -45q0 -39 -26.5 -64t-69.5 -25z" />
    <glyph glyph-name="uniFE82" unicode="&#x622;" horiz-adv-x="413" arabic-form="final" 
d="M329 -25q-47 0 -93 12.5t-86 33.5l40 73h192l-19 -119h-34zM158 -25q-38 0 -58 23.5t-20 69.5q0 19 3.5 52.5t9.5 77t13.5 92.5t15.5 98t15.5 94.5t14 81.5t9.5 58l24 -54l-76 95q31 23 68 37.5t71 14.5q31 0 46 -13.5t15 -40.5q0 -19 -6.5 -55t-16 -83t-20.5 -102
t-20.5 -111.5t-15.5 -110.5t-6 -100q0 -28 2.5 -44t8 -26t13.5 -20q-20 -16 -43.5 -25t-46.5 -9zM363 -25l20 119q13 0 15.5 -16t-2.5 -44q-4 -26 -12 -42.5t-21 -16.5zM139 765q-23 0 -32.5 9.5t-9.5 29.5q0 15 4.5 32t11.5 34q13 -6 27 -9.5t31 -3.5q33 0 61 10t55 19
t54 9q23 0 32.5 -9t9.5 -30q0 -30 -16 -65q-13 5 -27 8t-31 3q-32 0 -60.5 -9t-55.5 -18.5t-54 -9.5z" />
    <glyph glyph-name="uniFE84" unicode="&#x623;" horiz-adv-x="413" arabic-form="final" 
d="M329 -25q-47 0 -93 12.5t-86 33.5l40 73h192l-19 -119h-34zM158 -25q-38 0 -58 23.5t-20 69.5q0 19 3.5 52.5t9.5 77t13.5 92.5t15.5 98t15.5 94.5t14 81.5t9.5 58l24 -54l-76 95q31 23 68 37.5t71 14.5q31 0 46 -13.5t15 -40.5q0 -19 -6.5 -55t-16 -83t-20.5 -102
t-20.5 -111.5t-15.5 -110.5t-6 -100q0 -28 2.5 -44t8 -26t13.5 -20q-20 -16 -43.5 -25t-46.5 -9zM363 -25l20 119q13 0 15.5 -16t-2.5 -44q-4 -26 -12 -42.5t-21 -16.5zM147 764q-24 0 -34 9.5t-10 29.5q0 15 4.5 32t12.5 33q13 -5 27 -8.5t29 -3.5q17 0 35 4t32 9l14 -25
q-42 17 -67.5 38t-36 45.5t-10.5 49.5q0 27 11 44t27.5 27t35.5 14t37 4q17 0 39 -3t42.5 -10t33.5 -19t13 -29q0 -16 -13 -29.5t-40 -11.5q-19 1 -32 12.5t-19 24.5q-20 -1 -35 -13.5t-15 -37.5q0 -19 9 -36t23 -30.5t27 -24.5l-56 6q39 10 64 19.5t52 9.5q23 0 33 -8.5
t10 -29.5q0 -32 -16 -66q-13 5 -27 8t-30 3q-32 0 -61.5 -9.5t-56 -18.5t-52.5 -9z" />
    <glyph glyph-name="uniFE86" unicode="&#x624;" horiz-adv-x="755" arabic-form="final" 
d="M541 -25l28 119h155l-19 -119h-164zM270 -365q-54 0 -88.5 12.5t-50.5 32.5t-16 44q64 0 110 9.5t78 31t54.5 58t38.5 90.5t31 128q9 42 18 92t17.5 102.5t16 102.5t13.5 92.5t10 70.5l8 -45q-14 8 -43 19.5t-68 11.5q-43 0 -80.5 -19t-65 -54t-43.5 -82.5t-16 -104.5
q0 -50 13 -79.5t38 -41.5t64 -12h150v-119h-156q-123 0 -184 64t-61 187q0 80 24.5 149t70 121t108.5 81t140 29q51 0 91.5 -11.5t70.5 -29t48 -34.5t24 -28q0 -6 -4.5 -46t-13.5 -100.5t-20 -132t-23 -140.5q-14 -85 -31.5 -155.5t-41 -125t-55 -92t-75 -57t-101.5 -19.5z
M705 -25l19 119q13 0 15.5 -16t-1.5 -44q-5 -26 -12.5 -42.5t-20.5 -16.5zM299 684q-24 0 -34 9.5t-10 29.5q0 15 4.5 32t12.5 33q13 -5 27 -8.5t29 -3.5q17 0 35 4t32 9l14 -25q-42 17 -67.5 38t-36 45.5t-10.5 49.5q0 27 11 44t27.5 27t35.5 14t37 4q17 0 39 -3t42.5 -10
t33.5 -19t13 -29q0 -16 -13 -29.5t-40 -11.5q-19 1 -32 12.5t-19 24.5q-20 -1 -35 -13.5t-15 -37.5q0 -19 9 -36t23 -30.5t27 -24.5l-56 6q39 10 64 19.5t52 9.5q23 0 33 -8.5t10 -29.5q0 -32 -16 -66q-13 5 -27 8t-30 3q-32 0 -61.5 -9.5t-56 -18.5t-52.5 -9z" />
    <glyph glyph-name="uniFE88" unicode="&#x625;" horiz-adv-x="413" arabic-form="final" 
d="M329 -25q-47 0 -93 12.5t-86 33.5l40 73h192l-19 -119h-34zM155 -25q-39 0 -58.5 25t-19.5 67q0 23 5 64.5t12.5 97t17.5 117.5t21 124t21 118.5t17 99.5l23 -59l-75 94q31 24 68.5 38t70.5 14q31 0 46 -13.5t15 -40.5q0 -19 -7.5 -59t-18.5 -93t-23 -114t-23 -124.5
t-18.5 -124t-7.5 -111.5q0 -23 2 -38.5t8 -26t14 -21.5q-19 -16 -42.5 -25t-47.5 -9zM362 -25l20 119q13 0 15.5 -16t-2.5 -44q-4 -26 -12 -42.5t-21 -16.5zM27 -381q-22 0 -32 9.5t-10 29.5q0 15 4.5 32t11.5 33q13 -5 27 -8t29 -3q17 0 35 3.5t33 8.5l13 -25
q-42 17 -67 38.5t-36 45.5t-11 49q0 27 11 44t27.5 27t36 13.5t35.5 3.5q18 0 40 -2.5t42.5 -9.5t33.5 -19t13 -30q-1 -15 -13.5 -28.5t-38.5 -11.5q-20 1 -33 12.5t-18 24.5q-22 -1 -36 -13.5t-14 -37.5q0 -19 9 -36t22.5 -30.5t26.5 -24.5l-55 5q39 11 63.5 20.5t51.5 9.5
q24 0 33.5 -8.5t9.5 -29.5q0 -15 -4.5 -32.5t-11.5 -33.5q-13 5 -27 8t-30 3q-32 0 -61 -9t-56 -18.5t-54 -9.5z" />
    <glyph glyph-name="uniFE8A" unicode="&#x626;" horiz-adv-x="1122" arabic-form="final" 
d="M477 -314q-90 0 -168 26.5t-137 75t-92 112.5t-33 140q0 77 33.5 120.5t85.5 43.5q21 0 36.5 -6.5t25.5 -14.5t12 -12q-5 -4 -18.5 -21t-25.5 -45t-12 -65q0 -44 19.5 -85.5t56.5 -75.5t91.5 -54t125.5 -20q72 0 136.5 20.5t114 54.5t77.5 72.5t28 74.5l137 10
q0 -57 -27 -109t-75 -96t-110.5 -77t-134.5 -51t-146 -18zM799 -25q-56 0 -87.5 5t-44.5 19t-13 39q0 18 6 36.5t17 33.5q22 -5 44 -8t50 -4.5t64 -1.5h256l-19 -119h-273zM1071 -25l20 119q13 0 15.5 -16t-2.5 -44q-4 -26 -12 -42.5t-21 -16.5zM111 291q-24 0 -34 9.5
t-10 29.5q0 15 4.5 32t12.5 33q13 -5 27 -8.5t29 -3.5q17 0 35 4t32 9l14 -25q-42 17 -67.5 38t-36 45.5t-10.5 49.5q0 27 11 44t27.5 27t35.5 14t37 4q17 0 39 -3t42.5 -10t33.5 -19t13 -29q0 -16 -13 -29.5t-40 -11.5q-19 1 -32 12.5t-19 24.5q-20 -1 -35 -13.5t-15 -37.5
q0 -19 9 -36t23 -30.5t27 -24.5l-56 6q39 10 64 19.5t52 9.5q23 0 33 -8.5t10 -29.5q0 -32 -16 -66q-13 5 -27 8t-30 3q-32 0 -61.5 -9.5t-56 -18.5t-52.5 -9z" />
    <glyph glyph-name="uniFE8B" unicode="&#x626;" horiz-adv-x="348" arabic-form="initial" 
d="M-49 -25l19 119h164l-39 -21q2 41 9 88t16 94t19 87.5t17 68.5t9 37l4 -48l-63 78q31 23 69 37.5t72 14.5q31 0 45 -13.5t14 -43.5q0 -11 -7 -42t-17 -75.5t-21 -95.5t-19 -101.5t-11 -93.5l-58 -90h-222zM-49 -25q-13 0 -16 15.5t2 43.5t12.5 44t20.5 16zM145 609
q-24 0 -34 9.5t-10 29.5q0 15 4.5 32t12.5 33q13 -5 27 -8.5t29 -3.5q17 0 35 4t32 9l14 -25q-42 17 -67.5 38t-36 45.5t-10.5 49.5q0 27 11 44t27.5 27t35.5 14t37 4q17 0 39 -3t42.5 -10t33.5 -19t13 -29q0 -16 -13 -29.5t-40 -11.5q-19 1 -32 12.5t-19 24.5
q-20 -1 -35 -13.5t-15 -37.5q0 -19 9 -36t23 -30.5t27 -24.5l-56 6q39 10 64 19.5t52 9.5q23 0 33 -8.5t10 -29.5q0 -32 -16 -66q-13 5 -27 8t-30 3q-32 0 -61.5 -9.5t-56 -18.5t-52.5 -9z" />
    <glyph glyph-name="uniFE8C" unicode="&#x626;" horiz-adv-x="417" arabic-form="medial" 
d="M-49 -25l19 119h160l-45 -45v46q0 25 5.5 56.5t13.5 66t16 69.5t13 68t5 61q0 23 -3.5 44t-10.5 36q27 16 55 25t52 9q31 0 44.5 -17t13.5 -50q0 -27 -7 -61.5t-16.5 -72t-17 -73t-7.5 -64.5q0 -46 22.5 -72t64.5 -26h58l-19 -119h-81q-41 0 -63.5 22.5t-27.5 61.5
l36 -32h-37l-34 -52h-209zM367 -25l20 119q13 0 15.5 -16t-2.5 -44q-4 -26 -12 -42.5t-21 -16.5zM-49 -25q-13 0 -16 15.5t2 43.5t12.5 44t20.5 16zM144 609q-24 0 -34 9.5t-10 29.5q0 15 4.5 32t12.5 33q13 -5 27 -8.5t29 -3.5q17 0 35 4t32 9l14 -25q-42 17 -67.5 38
t-36 45.5t-10.5 49.5q0 27 11 44t27.5 27t35.5 14t37 4q17 0 39 -3t42.5 -10t33.5 -19t13 -29q0 -16 -13 -29.5t-40 -11.5q-19 1 -32 12.5t-19 24.5q-20 -1 -35 -13.5t-15 -37.5q0 -19 9 -36t23 -30.5t27 -24.5l-56 6q39 10 64 19.5t52 9.5q23 0 33 -8.5t10 -29.5
q0 -32 -16 -66q-13 5 -27 8t-30 3q-32 0 -61.5 -9.5t-56 -18.5t-52.5 -9z" />
    <glyph glyph-name="uniFE8E" unicode="&#x627;" horiz-adv-x="413" arabic-form="final" 
d="M329 -25q-47 0 -93 12.5t-86 33.5l40 73h192l-19 -119h-34zM155 -25q-39 0 -58.5 25t-19.5 67q0 23 5 64.5t12.5 97t17.5 117.5t21 124t21 118.5t17 99.5l23 -59l-75 94q31 24 68.5 38t70.5 14q31 0 46 -13.5t15 -40.5q0 -19 -7.5 -59t-18.5 -93t-23 -114t-23 -124.5
t-18.5 -124t-7.5 -111.5q0 -23 2 -38.5t8 -26t14 -21.5q-19 -16 -42.5 -25t-47.5 -9zM362 -25l20 119q13 0 15.5 -16t-2.5 -44q-4 -26 -12 -42.5t-21 -16.5z" />
    <glyph glyph-name="uniFE90" unicode="&#x628;" horiz-adv-x="1118" arabic-form="final" 
d="M980 -25q-41 0 -63.5 22.5t-27.5 61.5l51 -32h-109l115 253q-5 -25 -8.5 -49.5t-3.5 -42.5q0 -42 22 -68t65 -26h67l-20 -119h-88zM239 -25q-83 0 -121.5 40t-38.5 132q0 45 7 80.5t13.5 69t6.5 72.5q0 29 -4 50t-11 35q26 14 52 24t52 10q30 0 43.5 -17t13.5 -52
q0 -36 -9 -77.5t-19 -85.5t-10 -87q0 -44 16 -59.5t54 -15.5h532l-40 -21q2 41 9 88t16.5 94t19 87.5t17 68.5t9.5 37l4 -48l-63 78q31 23 68.5 37.5t71.5 14.5q31 0 45.5 -13.5t14.5 -43.5q0 -11 -7 -42t-17.5 -75.5t-21.5 -95.5t-19 -101.5t-10 -93.5l-59 -90h-615z
M1068 -25l20 119q13 0 15.5 -16t-2.5 -44q-4 -26 -12 -42.5t-21 -16.5zM431 -256q-32 0 -51.5 17.5t-19.5 43.5q0 41 27.5 65.5t68.5 24.5q33 0 52 -16.5t19 -45.5q0 -39 -27 -64t-69 -25z" />
    <glyph glyph-name="uniFE91" unicode="&#x628;" horiz-adv-x="348" arabic-form="initial" 
d="M-49 -25l19 119h164l-39 -21q2 41 9 88t16 94t19 87.5t17 68.5t9 37l4 -48l-63 78q31 23 69 37.5t72 14.5q31 0 45 -13.5t14 -43.5q0 -11 -7 -42t-17 -75.5t-21 -95.5t-19 -101.5t-11 -93.5l-58 -90h-222zM-49 -25q-13 0 -16 15.5t2 43.5t12.5 44t20.5 16zM95 -256
q-32 0 -51.5 17.5t-19.5 43.5q0 41 27.5 65.5t68.5 24.5q33 0 52 -16.5t19 -45.5q0 -39 -27 -64t-69 -25z" />
    <glyph glyph-name="uniFE92" unicode="&#x628;" horiz-adv-x="417" arabic-form="medial" 
d="M-49 -25l19 119h160l-45 -45v46q0 25 5.5 56.5t13.5 66t16 69.5t13 68t5 61q0 23 -3.5 44t-10.5 36q27 16 55 25t52 9q31 0 44.5 -17t13.5 -50q0 -27 -7 -61.5t-16.5 -72t-17 -73t-7.5 -64.5q0 -46 22.5 -72t64.5 -26h58l-19 -119h-81q-41 0 -63.5 22.5t-27.5 61.5
l36 -32h-37l-34 -52h-209zM367 -25l20 119q13 0 15.5 -16t-2.5 -44q-4 -26 -12 -42.5t-21 -16.5zM-49 -25q-13 0 -16 15.5t2 43.5t12.5 44t20.5 16zM94 -256q-32 0 -51.5 17.5t-19.5 43.5q0 41 27.5 65.5t68.5 24.5q33 0 52 -16.5t19 -45.5q0 -39 -27 -64t-69 -25z" />
    <glyph glyph-name="uniFE94" unicode="&#x629;" horiz-adv-x="770" arabic-form="final" 
d="M501 695q-32 0 -51.5 17t-19.5 43q0 41 27 65.5t69 24.5q33 0 52 -16.5t19 -44.5q0 -39 -27 -64t-69 -25zM319 695q-32 0 -51.5 17t-19.5 43q0 41 27.5 65.5t68.5 24.5q33 0 52 -16.5t19 -44.5q0 -39 -27 -64t-69 -25zM422 -25l58 119h260l-20 -119h-298zM326 -25
q-80 0 -139 30.5t-91.5 90t-32.5 145.5q0 83 30 150t81.5 114.5t117.5 73t139 25.5q59 0 101.5 -15t70.5 -37t40 -45l-78 -441l-60 -91h-179zM430 85l75 426l6 -55q-6 14 -28.5 21.5t-53.5 7.5q-66 0 -118 -31t-81.5 -87t-29.5 -133q0 -72 30.5 -106t95.5 -34h120zM720 -25
l20 119q13 0 15.5 -16t-1.5 -44q-5 -26 -12.5 -42.5t-21.5 -16.5z" />
    <glyph glyph-name="uniFE96" unicode="&#x62a;" horiz-adv-x="1118" arabic-form="final" 
d="M980 -25q-41 0 -63.5 22.5t-27.5 61.5l51 -32h-109l115 253q-5 -25 -8.5 -49.5t-3.5 -42.5q0 -42 22 -68t65 -26h67l-20 -119h-88zM239 -25q-83 0 -121.5 40t-38.5 132q0 45 7 80.5t13.5 69t6.5 72.5q0 29 -4 50t-11 35q26 14 52 24t52 10q30 0 43.5 -17t13.5 -52
q0 -36 -9 -77.5t-19 -85.5t-10 -87q0 -44 16 -59.5t54 -15.5h532l-40 -21q2 41 9 88t16.5 94t19 87.5t17 68.5t9.5 37l4 -48l-63 78q31 23 68.5 37.5t71.5 14.5q31 0 45.5 -13.5t14.5 -43.5q0 -11 -7 -42t-17.5 -75.5t-21.5 -95.5t-19 -101.5t-10 -93.5l-59 -90h-615z
M1068 -25l20 119q13 0 15.5 -16t-2.5 -44q-4 -26 -12 -42.5t-21 -16.5zM658 595q-32 0 -51.5 17t-19.5 43q0 41 27 65.5t69 24.5q33 0 52 -16.5t19 -44.5q0 -39 -27 -64t-69 -25zM476 595q-32 0 -51.5 17t-19.5 43q0 41 27.5 65.5t68.5 24.5q33 0 52 -16.5t19 -44.5
q0 -39 -27 -64t-69 -25z" />
    <glyph glyph-name="uniFE97" unicode="&#x62a;" horiz-adv-x="348" arabic-form="initial" 
d="M-49 -25l19 119h164l-39 -21q2 41 9 88t16 94t19 87.5t17 68.5t9 37l4 -48l-63 78q31 23 69 37.5t72 14.5q31 0 45 -13.5t14 -43.5q0 -11 -7 -42t-17 -75.5t-21 -95.5t-19 -101.5t-11 -93.5l-58 -90h-222zM-49 -25q-13 0 -16 15.5t2 43.5t12.5 44t20.5 16zM327 620
q-32 0 -51.5 17t-19.5 43q0 41 27 65.5t69 24.5q33 0 52 -16.5t19 -44.5q0 -39 -27 -64t-69 -25zM145 620q-32 0 -51.5 17t-19.5 43q0 41 27.5 65.5t68.5 24.5q33 0 52 -16.5t19 -44.5q0 -39 -27 -64t-69 -25z" />
    <glyph glyph-name="uniFE98" unicode="&#x62a;" horiz-adv-x="417" arabic-form="medial" 
d="M-49 -25l19 119h160l-45 -45v46q0 25 5.5 56.5t13.5 66t16 69.5t13 68t5 61q0 23 -3.5 44t-10.5 36q27 16 55 25t52 9q31 0 44.5 -17t13.5 -50q0 -27 -7 -61.5t-16.5 -72t-17 -73t-7.5 -64.5q0 -46 22.5 -72t64.5 -26h58l-19 -119h-81q-41 0 -63.5 22.5t-27.5 61.5
l36 -32h-37l-34 -52h-209zM367 -25l20 119q13 0 15.5 -16t-2.5 -44q-4 -26 -12 -42.5t-21 -16.5zM-49 -25q-13 0 -16 15.5t2 43.5t12.5 44t20.5 16zM326 620q-32 0 -51.5 17t-19.5 43q0 41 27 65.5t69 24.5q33 0 52 -16.5t19 -44.5q0 -39 -27 -64t-69 -25zM144 620
q-32 0 -51.5 17t-19.5 43q0 41 27.5 65.5t68.5 24.5q33 0 52 -16.5t19 -44.5q0 -39 -27 -64t-69 -25z" />
    <glyph glyph-name="uniFE9A" unicode="&#x62b;" horiz-adv-x="1118" arabic-form="final" 
d="M980 -25q-41 0 -63.5 22.5t-27.5 61.5l51 -32h-109l115 253q-5 -25 -8.5 -49.5t-3.5 -42.5q0 -42 22 -68t65 -26h67l-20 -119h-88zM239 -25q-83 0 -121.5 40t-38.5 132q0 45 7 80.5t13.5 69t6.5 72.5q0 29 -4 50t-11 35q26 14 52 24t52 10q30 0 43.5 -17t13.5 -52
q0 -36 -9 -77.5t-19 -85.5t-10 -87q0 -44 16 -59.5t54 -15.5h532l-40 -21q2 41 9 88t16.5 94t19 87.5t17 68.5t9.5 37l4 -48l-63 78q31 23 68.5 37.5t71.5 14.5q31 0 45.5 -13.5t14.5 -43.5q0 -11 -7 -42t-17.5 -75.5t-21.5 -95.5t-19 -101.5t-10 -93.5l-59 -90h-615z
M1068 -25l20 119q13 0 15.5 -16t-2.5 -44q-4 -26 -12 -42.5t-21 -16.5zM650 595q-32 0 -51 16.5t-19 43.5q0 40 27 65t69 25q32 0 51 -16.5t19 -44.5q0 -40 -26.5 -64.5t-69.5 -24.5zM468 595q-32 0 -51.5 16.5t-19.5 43.5q0 40 27.5 65t68.5 25q33 0 52.5 -16.5t19.5 -44.5
q0 -40 -27.5 -64.5t-69.5 -24.5zM583 758q-29 0 -47 15t-18 40q0 36 25 58.5t63 22.5q30 0 47.5 -15t17.5 -40q0 -37 -24.5 -59t-63.5 -22z" />
    <glyph glyph-name="uniFE9B" unicode="&#x62b;" horiz-adv-x="348" arabic-form="initial" 
d="M-49 -25l19 119h164l-39 -21q2 41 9 88t16 94t19 87.5t17 68.5t9 37l4 -48l-63 78q31 23 69 37.5t72 14.5q31 0 45 -13.5t14 -43.5q0 -11 -7 -42t-17 -75.5t-21 -95.5t-19 -101.5t-11 -93.5l-58 -90h-222zM-49 -25q-13 0 -16 15.5t2 43.5t12.5 44t20.5 16zM319 620
q-32 0 -51 16.5t-19 43.5q0 40 27 65t69 25q32 0 51 -16.5t19 -44.5q0 -40 -26.5 -64.5t-69.5 -24.5zM137 620q-32 0 -51.5 16.5t-19.5 43.5q0 40 27.5 65t68.5 25q33 0 52.5 -16.5t19.5 -44.5q0 -40 -27.5 -64.5t-69.5 -24.5zM252 783q-29 0 -47 15t-18 40q0 36 25 58.5
t63 22.5q30 0 47.5 -15t17.5 -40q0 -37 -24.5 -59t-63.5 -22z" />
    <glyph glyph-name="uniFE9C" unicode="&#x62b;" horiz-adv-x="417" arabic-form="medial" 
d="M-49 -25l19 119h160l-45 -45v46q0 25 5.5 56.5t13.5 66t16 69.5t13 68t5 61q0 23 -3.5 44t-10.5 36q27 16 55 25t52 9q31 0 44.5 -17t13.5 -50q0 -27 -7 -61.5t-16.5 -72t-17 -73t-7.5 -64.5q0 -46 22.5 -72t64.5 -26h58l-19 -119h-81q-41 0 -63.5 22.5t-27.5 61.5
l36 -32h-37l-34 -52h-209zM367 -25l20 119q13 0 15.5 -16t-2.5 -44q-4 -26 -12 -42.5t-21 -16.5zM-49 -25q-13 0 -16 15.5t2 43.5t12.5 44t20.5 16zM319 620q-32 0 -51 16.5t-19 43.5q0 40 27 65t69 25q32 0 51 -16.5t19 -44.5q0 -40 -26.5 -64.5t-69.5 -24.5zM137 620
q-32 0 -51.5 16.5t-19.5 43.5q0 40 27.5 65t68.5 25q33 0 52.5 -16.5t19.5 -44.5q0 -40 -27.5 -64.5t-69.5 -24.5zM252 783q-29 0 -47 15t-18 40q0 36 25 58.5t63 22.5q30 0 47.5 -15t17.5 -40q0 -37 -24.5 -59t-63.5 -22z" />
    <glyph glyph-name="uniFE9E" unicode="&#x62c;" horiz-adv-x="983" arabic-form="final" 
d="M841 -25q-75 0 -131 23t-92 63.5t-54.5 94.5t-19.5 116.5t15 129.5l126 22q-15 -67 -12 -126.5t24.5 -105.5t63 -72t102.5 -26h89l-19 -119h-92zM515 -473q-111 0 -193.5 47t-128 133.5t-45.5 202.5q0 91 28 174.5t79 155t119.5 125t151.5 85.5l-83 -68l-78 -1
q-37 0 -76 5t-74.5 16.5t-63.5 29.5t-44.5 44t-16.5 60q0 18 5 32.5t15 31.5q50 -15 122 -31t152.5 -30.5t157.5 -23.5t137 -9q33 0 57.5 4.5t42.5 16.5q17 -21 24.5 -37.5t7.5 -37.5q0 -42 -29.5 -61.5t-77.5 -19.5q-21 0 -49.5 3t-55.5 9t-45 13l30 20l-18 -47
q-59 -21 -109.5 -67t-89 -108.5t-60 -135.5t-21.5 -150q0 -72 19 -122.5t51.5 -81.5t73.5 -44.5t86 -13.5q65 0 107.5 24t63.5 63.5t21 83.5q47 0 72.5 -21t29.5 -54t-12 -70t-53.5 -70t-94.5 -54t-135 -21zM932 -25l20 119q13 0 15.5 -16t-2.5 -44q-5 -26 -12.5 -42.5
t-20.5 -16.5zM517 -157q-33 0 -52 17t-19 44q0 40 27 65t69 25q33 0 52 -17t19 -45q0 -39 -26.5 -64t-69.5 -25z" />
    <glyph glyph-name="uniFE9F" unicode="&#x62c;" horiz-adv-x="865" arabic-form="initial" 
d="M-49 -25l19 119h681l-43 -43q4 68 -12.5 123t-45 97t-63 71.5t-67.5 46.5q-17 -3 -44 -5.5t-48 -2.5q-35 0 -73 5t-73.5 16.5t-63.5 29.5t-44.5 43.5t-16.5 60.5q0 19 4.5 33.5t14.5 30.5q50 -14 122 -30.5t152.5 -31t157.5 -23t137 -8.5q32 0 57 4.5t44 16.5
q16 -21 23.5 -37.5t7.5 -39.5q0 -45 -31.5 -62t-89.5 -17q-13 0 -25 1t-26 2t-34.5 1.5t-53.5 1.5l65 16q55 -30 91.5 -72t57.5 -89t28.5 -92.5t4.5 -81.5l-55 -84h-758zM-49 -25q-13 0 -16 15.5t2 43.5t12.5 44t20.5 16zM291 -256q-32 0 -51.5 17.5t-19.5 43.5
q0 41 27.5 65.5t68.5 24.5q33 0 52 -16.5t19 -45.5q0 -39 -27 -64t-69 -25z" />
    <glyph glyph-name="uniFEA0" unicode="&#x62c;" horiz-adv-x="940" arabic-form="medial" 
d="M831 -25q-39 0 -61.5 23.5t-30.5 57.5l54 -29h-76l33 151q5 -15 13 -35t27 -34.5t58 -14.5h61l-19 -119h-59zM-49 -25l19 119h681l-43 -43q4 68 -12.5 123t-45 97t-63 71.5t-67.5 46.5q-17 -3 -44 -5.5t-48 -2.5q-35 0 -73 5t-73.5 16.5t-63.5 29.5t-44.5 43.5
t-16.5 60.5q0 19 4.5 33.5t14.5 30.5q50 -14 122 -30.5t152.5 -31t157.5 -23t137 -8.5q32 0 57 4.5t44 16.5q16 -21 23.5 -37.5t7.5 -39.5q0 -45 -31.5 -62t-89.5 -17q-13 0 -25 1t-26 2t-34.5 1.5t-53.5 1.5l65 16q55 -30 91.5 -72t57.5 -89t28.5 -92.5t4.5 -81.5l-55 -84
h-758zM-49 -25q-13 0 -16 15.5t2 43.5t12.5 44t20.5 16zM890 -25l19 119q14 0 16.5 -16t-2.5 -44q-5 -26 -12.5 -42.5t-20.5 -16.5zM291 -256q-32 0 -51.5 17.5t-19.5 43.5q0 41 27.5 65.5t68.5 24.5q33 0 52 -16.5t19 -45.5q0 -39 -27 -64t-69 -25z" />
    <glyph glyph-name="uniFEA2" unicode="&#x62d;" horiz-adv-x="983" arabic-form="final" 
d="M841 -25q-75 0 -131 23t-92 63.5t-54.5 94.5t-19.5 116.5t15 129.5l126 22q-15 -67 -12 -126.5t24.5 -105.5t63 -72t102.5 -26h89l-19 -119h-92zM515 -473q-111 0 -193.5 47t-128 133.5t-45.5 202.5q0 91 28 174.5t79 155t119.5 125t151.5 85.5l-83 -68l-78 -1
q-37 0 -76 5t-74.5 16.5t-63.5 29.5t-44.5 44t-16.5 60q0 18 5 32.5t15 31.5q50 -15 122 -31t152.5 -30.5t157.5 -23.5t137 -9q33 0 57.5 4.5t42.5 16.5q17 -21 24.5 -37.5t7.5 -37.5q0 -42 -29.5 -61.5t-77.5 -19.5q-21 0 -49.5 3t-55.5 9t-45 13l30 20l-18 -47
q-59 -21 -109.5 -67t-89 -108.5t-60 -135.5t-21.5 -150q0 -72 19 -122.5t51.5 -81.5t73.5 -44.5t86 -13.5q65 0 107.5 24t63.5 63.5t21 83.5q47 0 72.5 -21t29.5 -54t-12 -70t-53.5 -70t-94.5 -54t-135 -21zM932 -25l20 119q13 0 15.5 -16t-2.5 -44q-5 -26 -12.5 -42.5
t-20.5 -16.5z" />
    <glyph glyph-name="uniFEA3" unicode="&#x62d;" horiz-adv-x="865" arabic-form="initial" 
d="M-49 -25l19 119h681l-43 -43q4 68 -12.5 123t-45 97t-63 71.5t-67.5 46.5q-17 -3 -44 -5.5t-48 -2.5q-35 0 -73 5t-73.5 16.5t-63.5 29.5t-44.5 43.5t-16.5 60.5q0 19 4.5 33.5t14.5 30.5q50 -14 122 -30.5t152.5 -31t157.5 -23t137 -8.5q32 0 57 4.5t44 16.5
q16 -21 23.5 -37.5t7.5 -39.5q0 -45 -31.5 -62t-89.5 -17q-13 0 -25 1t-26 2t-34.5 1.5t-53.5 1.5l65 16q55 -30 91.5 -72t57.5 -89t28.5 -92.5t4.5 -81.5l-55 -84h-758zM-49 -25q-13 0 -16 15.5t2 43.5t12.5 44t20.5 16z" />
    <glyph glyph-name="uniFEA4" unicode="&#x62d;" horiz-adv-x="940" arabic-form="medial" 
d="M831 -25q-39 0 -61.5 23.5t-30.5 57.5l54 -29h-76l33 151q5 -15 13 -35t27 -34.5t58 -14.5h61l-19 -119h-59zM-49 -25l19 119h681l-43 -43q4 68 -12.5 123t-45 97t-63 71.5t-67.5 46.5q-17 -3 -44 -5.5t-48 -2.5q-35 0 -73 5t-73.5 16.5t-63.5 29.5t-44.5 43.5
t-16.5 60.5q0 19 4.5 33.5t14.5 30.5q50 -14 122 -30.5t152.5 -31t157.5 -23t137 -8.5q32 0 57 4.5t44 16.5q16 -21 23.5 -37.5t7.5 -39.5q0 -45 -31.5 -62t-89.5 -17q-13 0 -25 1t-26 2t-34.5 1.5t-53.5 1.5l65 16q55 -30 91.5 -72t57.5 -89t28.5 -92.5t4.5 -81.5l-55 -84
h-758zM-49 -25q-13 0 -16 15.5t2 43.5t12.5 44t20.5 16zM890 -25l19 119q14 0 16.5 -16t-2.5 -44q-5 -26 -12.5 -42.5t-20.5 -16.5z" />
    <glyph glyph-name="uniFEA6" unicode="&#x62e;" horiz-adv-x="983" arabic-form="final" 
d="M841 -25q-75 0 -131 23t-92 63.5t-54.5 94.5t-19.5 116.5t15 129.5l126 22q-15 -67 -12 -126.5t24.5 -105.5t63 -72t102.5 -26h89l-19 -119h-92zM515 -473q-111 0 -193.5 47t-128 133.5t-45.5 202.5q0 91 28 174.5t79 155t119.5 125t151.5 85.5l-83 -68l-78 -1
q-37 0 -76 5t-74.5 16.5t-63.5 29.5t-44.5 44t-16.5 60q0 18 5 32.5t15 31.5q50 -15 122 -31t152.5 -30.5t157.5 -23.5t137 -9q33 0 57.5 4.5t42.5 16.5q17 -21 24.5 -37.5t7.5 -37.5q0 -42 -29.5 -61.5t-77.5 -19.5q-21 0 -49.5 3t-55.5 9t-45 13l30 20l-18 -47
q-59 -21 -109.5 -67t-89 -108.5t-60 -135.5t-21.5 -150q0 -72 19 -122.5t51.5 -81.5t73.5 -44.5t86 -13.5q65 0 107.5 24t63.5 63.5t21 83.5q47 0 72.5 -21t29.5 -54t-12 -70t-53.5 -70t-94.5 -54t-135 -21zM932 -25l20 119q13 0 15.5 -16t-2.5 -44q-5 -26 -12.5 -42.5
t-20.5 -16.5zM472 650q-33 0 -52 17t-19 44q0 40 27 65t69 25q33 0 52 -17t19 -45q0 -39 -26.5 -64t-69.5 -25z" />
    <glyph glyph-name="uniFEA7" unicode="&#x62e;" horiz-adv-x="865" arabic-form="initial" 
d="M-49 -25l19 119h681l-43 -43q4 68 -12.5 123t-45 97t-63 71.5t-67.5 46.5q-17 -3 -44 -5.5t-48 -2.5q-35 0 -73 5t-73.5 16.5t-63.5 29.5t-44.5 43.5t-16.5 60.5q0 19 4.5 33.5t14.5 30.5q50 -14 122 -30.5t152.5 -31t157.5 -23t137 -8.5q32 0 57 4.5t44 16.5
q16 -21 23.5 -37.5t7.5 -39.5q0 -45 -31.5 -62t-89.5 -17q-13 0 -25 1t-26 2t-34.5 1.5t-53.5 1.5l65 16q55 -30 91.5 -72t57.5 -89t28.5 -92.5t4.5 -81.5l-55 -84h-758zM-49 -25q-13 0 -16 15.5t2 43.5t12.5 44t20.5 16zM435 650q-33 0 -52 17t-19 44q0 40 27 65t69 25
q33 0 52 -17t19 -45q0 -39 -26.5 -64t-69.5 -25z" />
    <glyph glyph-name="uniFEA8" unicode="&#x62e;" horiz-adv-x="940" arabic-form="medial" 
d="M831 -25q-39 0 -61.5 23.5t-30.5 57.5l54 -29h-76l33 151q5 -15 13 -35t27 -34.5t58 -14.5h61l-19 -119h-59zM-49 -25l19 119h681l-43 -43q4 68 -12.5 123t-45 97t-63 71.5t-67.5 46.5q-17 -3 -44 -5.5t-48 -2.5q-35 0 -73 5t-73.5 16.5t-63.5 29.5t-44.5 43.5
t-16.5 60.5q0 19 4.5 33.5t14.5 30.5q50 -14 122 -30.5t152.5 -31t157.5 -23t137 -8.5q32 0 57 4.5t44 16.5q16 -21 23.5 -37.5t7.5 -39.5q0 -45 -31.5 -62t-89.5 -17q-13 0 -25 1t-26 2t-34.5 1.5t-53.5 1.5l65 16q55 -30 91.5 -72t57.5 -89t28.5 -92.5t4.5 -81.5l-55 -84
h-758zM-49 -25q-13 0 -16 15.5t2 43.5t12.5 44t20.5 16zM890 -25l19 119q14 0 16.5 -16t-2.5 -44q-5 -26 -12.5 -42.5t-20.5 -16.5zM435 650q-33 0 -52 17t-19 44q0 40 27 65t69 25q33 0 52 -17t19 -45q0 -39 -26.5 -64t-69.5 -25z" />
    <glyph glyph-name="uniFEAA" unicode="&#x62f;" horiz-adv-x="742" arabic-form="final" 
d="M605 -25q-41 0 -63.5 22.5t-28.5 61.5l52 -32h-108l98 159q0 -40 21.5 -66t64.5 -26h71l-20 -119h-87zM167 -24q-75 0 -112 24.5t-37 74.5q0 14 2.5 26.5t6.5 22.5q25 -10 57 -20t64 -10h297l-47 -30q-1 27 5.5 62.5t15.5 75t16 78t7 70.5q0 72 -37.5 106.5t-92.5 34.5
q-58 0 -92.5 -37t-38.5 -105q-31 0 -57 7.5t-41 25.5t-15 51q0 46 30.5 86t85.5 65.5t128 25.5q81 0 141.5 -33t93.5 -91.5t33 -135.5q0 -40 -7.5 -82t-16.5 -81t-15.5 -70t-5.5 -49l-55 -92h-313zM692 -25l20 119q13 0 15.5 -16t-2.5 -44q-4 -26 -12 -42.5t-21 -16.5z" />
    <glyph glyph-name="uniFEAC" unicode="&#x630;" horiz-adv-x="742" arabic-form="final" 
d="M605 -25q-41 0 -63.5 22.5t-28.5 61.5l52 -32h-108l98 159q0 -40 21.5 -66t64.5 -26h71l-20 -119h-87zM167 -24q-75 0 -112 24.5t-37 74.5q0 14 2.5 26.5t6.5 22.5q25 -10 57 -20t64 -10h297l-47 -30q-1 27 5.5 62.5t15.5 75t16 78t7 70.5q0 72 -37.5 106.5t-92.5 34.5
q-58 0 -92.5 -37t-38.5 -105q-31 0 -57 7.5t-41 25.5t-15 51q0 46 30.5 86t85.5 65.5t128 25.5q81 0 141.5 -33t93.5 -91.5t33 -135.5q0 -40 -7.5 -82t-16.5 -81t-15.5 -70t-5.5 -49l-55 -92h-313zM692 -25l20 119q13 0 15.5 -16t-2.5 -44q-4 -26 -12 -42.5t-21 -16.5z
M345 690q-33 0 -52 17t-19 44q0 40 27 65t69 25q33 0 52 -17t19 -45q0 -39 -26.5 -64t-69.5 -25z" />
    <glyph glyph-name="uniFEAE" unicode="&#x631;" horiz-adv-x="522" arabic-form="final" 
d="M412 -25q-41 0 -63 22.5t-28 61.5l51 -32h-98l75 165q1 -46 23.5 -71.5t64.5 -26.5h55l-20 -119h-60zM23 -365q-51 0 -85 12.5t-50.5 32.5t-16.5 44q79 0 132.5 17.5t88.5 55.5t57 98t37 146q8 45 15 87t13.5 81.5t12 76t10.5 69t9 60.5l6 -56l-57 120q39 25 72.5 38
t60.5 13q31 0 47.5 -15.5t16.5 -35.5q0 -8 -4 -37.5t-12 -79.5t-19 -120t-25 -158q-17 -106 -40.5 -189.5t-59.5 -141t-87 -88t-122 -30.5zM472 -25l20 119q13 0 15.5 -16t-1.5 -44q-5 -26 -12.5 -42.5t-21.5 -16.5z" />
    <glyph glyph-name="uniFEB0" unicode="&#x632;" horiz-adv-x="522" arabic-form="final" 
d="M412 -25q-41 0 -63 22.5t-28 61.5l51 -32h-98l75 165q1 -46 23.5 -71.5t64.5 -26.5h55l-20 -119h-60zM23 -365q-51 0 -85 12.5t-50.5 32.5t-16.5 44q79 0 132.5 17.5t88.5 55.5t57 98t37 146q8 45 15 87t13.5 81.5t12 76t10.5 69t9 60.5l6 -56l-57 120q39 25 72.5 38
t60.5 13q31 0 47.5 -15.5t16.5 -35.5q0 -8 -4 -37.5t-12 -79.5t-19 -120t-25 -158q-17 -106 -40.5 -189.5t-59.5 -141t-87 -88t-122 -30.5zM472 -25l20 119q13 0 15.5 -16t-1.5 -44q-5 -26 -12.5 -42.5t-21.5 -16.5zM326 620q-33 0 -52 17t-19 44q0 40 27 65t69 25
q33 0 52 -17t19 -45q0 -39 -26.5 -64t-69.5 -25z" />
    <glyph glyph-name="uniFEB2" unicode="&#x633;" horiz-adv-x="1582" arabic-form="final" 
d="M1451 -25q-42 0 -64.5 22.5t-27.5 61.5l36 -32h-109l140 294q-7 -34 -13.5 -68t-6.5 -61q0 -46 22 -72t65 -26h58l-19 -119h-81zM346 -278q-68 0 -124.5 21t-98.5 60t-64.5 93.5t-22.5 120.5q0 63 19 108.5t48 69.5t59 24q29 0 52 -14t29 -26q-15 -12 -31.5 -36
t-27.5 -56t-11 -73q0 -29 8 -59.5t28 -56.5t54 -41.5t86 -15.5q67 0 115.5 26.5t82.5 73t55 107t30 128.5t9 137q0 29 -1.5 55.5t-5 47.5t-8.5 32q28 16 51 25t47 9q33 0 45.5 -18.5t12.5 -52.5q0 -31 -7 -68t-14 -75t-7 -72q0 -49 21 -75.5t65 -26.5h126l-44 -45v46
q0 30 6.5 66.5t16 75t16.5 77t7 72.5q0 24 -4 45t-10 36q27 16 55 25t51 9q31 0 44.5 -17.5t13.5 -50.5q0 -35 -10 -76.5t-20 -84t-10 -79.5q0 -47 22.5 -73t64.5 -26h123l-40 -45v46q0 24 5 55.5t13 65.5t16 69.5t13 69t5 61.5q0 24 -4 45t-10 35q29 16 56 25t50 9
q32 0 45.5 -17.5t13.5 -46.5q0 -27 -9 -72.5t-22 -101.5t-23.5 -114.5t-12.5 -111.5l-59 -91h-202q-41 0 -63.5 22.5t-28.5 61.5l37 -32h-37l-34 -52h-205q-41 0 -63.5 22.5t-27.5 61.5l51 -53h-47q-19 -55 -50.5 -106t-75.5 -91t-102.5 -63.5t-130.5 -23.5zM1531 -25
l20 119q13 0 15.5 -16t-2.5 -44q-4 -26 -12 -42.5t-21 -16.5z" />
    <glyph glyph-name="uniFEB3" unicode="&#x633;" horiz-adv-x="984" arabic-form="initial" 
d="M-49 -25l19 119h164l-44 -45v46q0 30 7 63.5t15.5 68t15 70t6.5 70.5q0 24 -4 45t-10 36q27 16 55 25t51 9q31 0 45 -18t14 -51q0 -34 -10 -70.5t-19.5 -74.5t-9.5 -74q0 -48 22 -74t65 -26h126l-44 -45v46q0 30 7 66.5t16 75t15.5 77t6.5 72.5q0 24 -3.5 45t-10.5 36
q28 16 56 25t51 9q31 0 44.5 -17.5t13.5 -50.5q0 -35 -10 -76.5t-20 -84t-10 -79.5q0 -47 22.5 -73t64.5 -26h123l-40 -45v46q0 24 5.5 55.5t13.5 65.5t15.5 69.5t13 69t5.5 61.5q0 24 -4.5 45t-10.5 35q28 16 55.5 25t50.5 9q31 0 45 -17.5t14 -46.5q0 -27 -9 -72.5
t-22 -101.5t-23.5 -114.5t-12.5 -111.5l-59 -91h-202q-41 0 -63.5 22.5t-28.5 61.5l36 -32h-35l-34 -52h-200q-42 0 -64.5 22.5t-27.5 61.5l36 -32h-36l-34 -52h-214zM-49 -25q-13 0 -16 15.5t2 43.5t12.5 44t20.5 16z" />
    <glyph glyph-name="uniFEB4" unicode="&#x633;" horiz-adv-x="1074" arabic-form="medial" 
d="M943 -25q-41 0 -63.5 22.5t-27.5 61.5l36 -32h-109l140 294l-14 -68t-7 -61q0 -46 22.5 -72t64.5 -26h59l-20 -119h-81zM-49 -25l19 119h164l-44 -45v46q0 30 7 63.5t15.5 68t15 70t6.5 70.5q0 24 -4 45t-10 36q27 16 55 25t51 9q31 0 45 -18t14 -51q0 -34 -10 -70.5
t-19.5 -74.5t-9.5 -74q0 -48 22 -74t65 -26h126l-44 -45v46q0 30 7 66.5t16 75t15.5 77t6.5 72.5q0 24 -3.5 45t-10.5 36q28 16 56 25t51 9q31 0 44.5 -17.5t13.5 -50.5q0 -35 -10 -76.5t-20 -84t-10 -79.5q0 -47 22.5 -73t64.5 -26h123l-40 -45v46q0 24 5.5 55.5t13.5 65.5
t15.5 69.5t13 69t5.5 61.5q0 24 -4.5 45t-10.5 35q28 16 55.5 25t50.5 9q31 0 45 -17.5t14 -46.5q0 -27 -9 -72.5t-22 -101.5t-23.5 -114.5t-12.5 -111.5l-59 -91h-202q-41 0 -63.5 22.5t-28.5 61.5l36 -32h-35l-34 -52h-200q-42 0 -64.5 22.5t-27.5 61.5l36 -32h-36
l-34 -52h-214zM-49 -25q-13 0 -16 15.5t2 43.5t12.5 44t20.5 16zM1024 -25l20 119q13 0 15.5 -16t-2.5 -44q-4 -26 -12 -42.5t-21 -16.5z" />
    <glyph glyph-name="uniFEB6" unicode="&#x634;" horiz-adv-x="1582" arabic-form="final" 
d="M1451 -25q-42 0 -64.5 22.5t-27.5 61.5l36 -32h-109l140 294q-7 -34 -13.5 -68t-6.5 -61q0 -46 22 -72t65 -26h58l-19 -119h-81zM346 -278q-68 0 -124.5 21t-98.5 60t-64.5 93.5t-22.5 120.5q0 63 19 108.5t48 69.5t59 24q29 0 52 -14t29 -26q-15 -12 -31.5 -36
t-27.5 -56t-11 -73q0 -29 8 -59.5t28 -56.5t54 -41.5t86 -15.5q67 0 115.5 26.5t82.5 73t55 107t30 128.5t9 137q0 29 -1.5 55.5t-5 47.5t-8.5 32q28 16 51 25t47 9q33 0 45.5 -18.5t12.5 -52.5q0 -31 -7 -68t-14 -75t-7 -72q0 -49 21 -75.5t65 -26.5h126l-44 -45v46
q0 30 6.5 66.5t16 75t16.5 77t7 72.5q0 24 -4 45t-10 36q27 16 55 25t51 9q31 0 44.5 -17.5t13.5 -50.5q0 -35 -10 -76.5t-20 -84t-10 -79.5q0 -47 22.5 -73t64.5 -26h123l-40 -45v46q0 24 5 55.5t13 65.5t16 69.5t13 69t5 61.5q0 24 -4 45t-10 35q29 16 56 25t50 9
q32 0 45.5 -17.5t13.5 -46.5q0 -27 -9 -72.5t-22 -101.5t-23.5 -114.5t-12.5 -111.5l-59 -91h-202q-41 0 -63.5 22.5t-28.5 61.5l37 -32h-37l-34 -52h-205q-41 0 -63.5 22.5t-27.5 61.5l51 -53h-47q-19 -55 -50.5 -106t-75.5 -91t-102.5 -63.5t-130.5 -23.5zM1531 -25
l20 119q13 0 15.5 -16t-2.5 -44q-4 -26 -12 -42.5t-21 -16.5zM1142 620q-32 0 -51 16.5t-19 43.5q0 40 27 65t69 25q32 0 51 -16.5t19 -44.5q0 -40 -26.5 -64.5t-69.5 -24.5zM960 620q-32 0 -51.5 16.5t-19.5 43.5q0 40 27.5 65t68.5 25q33 0 52.5 -16.5t19.5 -44.5
q0 -40 -27.5 -64.5t-69.5 -24.5zM1075 783q-29 0 -47 15t-18 40q0 36 25 58.5t63 22.5q30 0 47.5 -15t17.5 -40q0 -37 -24.5 -59t-63.5 -22z" />
    <glyph glyph-name="uniFEB7" unicode="&#x634;" horiz-adv-x="984" arabic-form="initial" 
d="M-49 -25l19 119h164l-44 -45v46q0 30 7 63.5t15.5 68t15 70t6.5 70.5q0 24 -4 45t-10 36q27 16 55 25t51 9q31 0 45 -18t14 -51q0 -34 -10 -70.5t-19.5 -74.5t-9.5 -74q0 -48 22 -74t65 -26h126l-44 -45v46q0 30 7 66.5t16 75t15.5 77t6.5 72.5q0 24 -3.5 45t-10.5 36
q28 16 56 25t51 9q31 0 44.5 -17.5t13.5 -50.5q0 -35 -10 -76.5t-20 -84t-10 -79.5q0 -47 22.5 -73t64.5 -26h123l-40 -45v46q0 24 5.5 55.5t13.5 65.5t15.5 69.5t13 69t5.5 61.5q0 24 -4.5 45t-10.5 35q28 16 55.5 25t50.5 9q31 0 45 -17.5t14 -46.5q0 -27 -9 -72.5
t-22 -101.5t-23.5 -114.5t-12.5 -111.5l-59 -91h-202q-41 0 -63.5 22.5t-28.5 61.5l36 -32h-35l-34 -52h-200q-42 0 -64.5 22.5t-27.5 61.5l36 -32h-36l-34 -52h-214zM-49 -25q-13 0 -16 15.5t2 43.5t12.5 44t20.5 16zM640 620q-32 0 -51 16.5t-19 43.5q0 40 27 65t69 25
q32 0 51 -16.5t19 -44.5q0 -40 -26.5 -64.5t-69.5 -24.5zM458 620q-32 0 -51.5 16.5t-19.5 43.5q0 40 27.5 65t68.5 25q33 0 52.5 -16.5t19.5 -44.5q0 -40 -27.5 -64.5t-69.5 -24.5zM573 783q-29 0 -47 15t-18 40q0 36 25 58.5t63 22.5q30 0 47.5 -15t17.5 -40
q0 -37 -24.5 -59t-63.5 -22z" />
    <glyph glyph-name="uniFEB8" unicode="&#x634;" horiz-adv-x="1074" arabic-form="medial" 
d="M943 -25q-41 0 -63.5 22.5t-27.5 61.5l36 -32h-109l140 294l-14 -68t-7 -61q0 -46 22.5 -72t64.5 -26h59l-20 -119h-81zM-49 -25l19 119h164l-44 -45v46q0 30 7 63.5t15.5 68t15 70t6.5 70.5q0 24 -4 45t-10 36q27 16 55 25t51 9q31 0 45 -18t14 -51q0 -34 -10 -70.5
t-19.5 -74.5t-9.5 -74q0 -48 22 -74t65 -26h126l-44 -45v46q0 30 7 66.5t16 75t15.5 77t6.5 72.5q0 24 -3.5 45t-10.5 36q28 16 56 25t51 9q31 0 44.5 -17.5t13.5 -50.5q0 -35 -10 -76.5t-20 -84t-10 -79.5q0 -47 22.5 -73t64.5 -26h123l-40 -45v46q0 24 5.5 55.5t13.5 65.5
t15.5 69.5t13 69t5.5 61.5q0 24 -4.5 45t-10.5 35q28 16 55.5 25t50.5 9q31 0 45 -17.5t14 -46.5q0 -27 -9 -72.5t-22 -101.5t-23.5 -114.5t-12.5 -111.5l-59 -91h-202q-41 0 -63.5 22.5t-28.5 61.5l36 -32h-35l-34 -52h-200q-42 0 -64.5 22.5t-27.5 61.5l36 -32h-36
l-34 -52h-214zM-49 -25q-13 0 -16 15.5t2 43.5t12.5 44t20.5 16zM1024 -25l20 119q13 0 15.5 -16t-2.5 -44q-4 -26 -12 -42.5t-21 -16.5zM640 620q-32 0 -51 16.5t-19 43.5q0 40 27 65t69 25q32 0 51 -16.5t19 -44.5q0 -40 -26.5 -64.5t-69.5 -24.5zM458 620
q-32 0 -51.5 16.5t-19.5 43.5q0 40 27.5 65t68.5 25q33 0 52.5 -16.5t19.5 -44.5q0 -40 -27.5 -64.5t-69.5 -24.5zM573 783q-29 0 -47 15t-18 40q0 36 25 58.5t63 22.5q30 0 47.5 -15t17.5 -40q0 -37 -24.5 -59t-63.5 -22z" />
    <glyph glyph-name="uniFEBA" unicode="&#x635;" horiz-adv-x="1721" arabic-form="final" 
d="M1466 -25q-30 0 -53 11.5t-35.5 32t-12.5 45.5q0 22 6 49.5t12.5 57.5t6.5 58l101 10q-2 -30 -3.5 -56t3 -46t18 -31.5t40.5 -11.5h142l-20 -119h-205zM337 -277q-68 0 -125 20.5t-98.5 59.5t-64 93.5t-22.5 121.5q0 63 19 108.5t48 69.5t59 24q29 0 52 -14t29 -26
q-15 -12 -31.5 -36t-27.5 -56.5t-11 -72.5q0 -29 8 -59.5t28 -56.5t54.5 -41.5t86.5 -15.5q65 0 114.5 26.5t83 73t54 106.5t29.5 128t9 137q0 29 -1.5 55.5t-4 47.5t-8.5 33q28 15 51 24t47 9q33 0 45.5 -18.5t12.5 -52.5q0 -18 -2.5 -38.5t-6.5 -42.5l-38 5
q30 50 69.5 94.5t90 77.5t115 52t145.5 19q107 0 186 -34t122 -97.5t43 -151.5q0 -70 -27.5 -129t-77 -101.5t-117.5 -66t-148 -23.5h-474l44 31q-20 -55 -51 -106t-75.5 -91t-102.5 -63t-131 -23zM725 74l-46 20h448q68 0 120.5 24.5t82.5 69.5t30 107q0 43 -15 74t-44 51
t-68 30t-87 10q-91 0 -159.5 -25t-117.5 -66.5t-80.5 -92.5t-47 -103.5t-16.5 -98.5zM1671 -25l20 119q13 0 15.5 -16t-2.5 -44q-4 -26 -12 -42.5t-21 -16.5z" />
    <glyph glyph-name="uniFEBB" unicode="&#x635;" horiz-adv-x="1069" arabic-form="initial" 
d="M-49 -25l19 119h173l-43 -47q-3 59 2.5 102.5t14.5 78.5t16 69.5t7 78.5q0 32 -4.5 53t-9.5 29q15 10 40.5 22.5t52.5 12.5t40.5 -13.5t17.5 -34t1.5 -46.5t-9.5 -52l-41 -12q30 50 69.5 94t90 77.5t115 52.5t145.5 19q107 0 186 -34t122.5 -97.5t43.5 -151.5
q0 -70 -27.5 -129t-77.5 -101.5t-117.5 -66t-147.5 -23.5h-679zM224 74l-43 20h449q68 0 120 24.5t82.5 69.5t30.5 107q0 43 -15.5 74t-44 51t-68 30t-87.5 10q-91 0 -160 -25t-118.5 -66.5t-81.5 -92.5t-47 -103.5t-17 -98.5zM-49 -25q-13 0 -16 15.5t2 43.5t12.5 44
t20.5 16z" />
    <glyph glyph-name="uniFEBC" unicode="&#x635;" horiz-adv-x="1225" arabic-form="medial" 
d="M968 -25q-30 0 -53 11.5t-35.5 32t-12.5 45.5q0 22 6.5 49.5t13 57.5t6.5 58l101 10q-2 -30 -3.5 -56t2.5 -46t17.5 -31.5t41.5 -11.5h142l-19 -119h-207zM-49 -25l19 119h173l-43 -47q-3 59 2.5 102.5t14.5 78.5t16 69.5t7 78.5q0 32 -4.5 53t-9.5 29q15 10 40.5 22.5
t52.5 12.5t40.5 -13.5t17.5 -34t1.5 -46.5t-9.5 -52l-41 -12q30 50 69.5 94t90 77.5t115 52.5t145.5 19q107 0 186 -34t122.5 -97.5t43.5 -151.5q0 -70 -27.5 -129t-77.5 -101.5t-117.5 -66t-147.5 -23.5h-679zM224 74l-43 20h449q68 0 120 24.5t82.5 69.5t30.5 107
q0 43 -15.5 74t-44 51t-68 30t-87.5 10q-91 0 -160 -25t-118.5 -66.5t-81.5 -92.5t-47 -103.5t-17 -98.5zM-49 -25q-13 0 -16 15.5t2 43.5t12.5 44t20.5 16zM1175 -25l20 119q13 0 15.5 -16t-2.5 -44q-5 -26 -12.5 -42.5t-20.5 -16.5z" />
    <glyph glyph-name="uniFEBE" unicode="&#x636;" horiz-adv-x="1721" arabic-form="final" 
d="M1466 -25q-30 0 -53 11.5t-35.5 32t-12.5 45.5q0 22 6 49.5t12.5 57.5t6.5 58l101 10q-2 -30 -3.5 -56t3 -46t18 -31.5t40.5 -11.5h142l-20 -119h-205zM337 -277q-68 0 -125 20.5t-98.5 59.5t-64 93.5t-22.5 121.5q0 63 19 108.5t48 69.5t59 24q29 0 52 -14t29 -26
q-15 -12 -31.5 -36t-27.5 -56.5t-11 -72.5q0 -29 8 -59.5t28 -56.5t54.5 -41.5t86.5 -15.5q65 0 114.5 26.5t83 73t54 106.5t29.5 128t9 137q0 29 -1.5 55.5t-4 47.5t-8.5 33q28 15 51 24t47 9q33 0 45.5 -18.5t12.5 -52.5q0 -18 -2.5 -38.5t-6.5 -42.5l-38 5
q30 50 69.5 94.5t90 77.5t115 52t145.5 19q107 0 186 -34t122 -97.5t43 -151.5q0 -70 -27.5 -129t-77 -101.5t-117.5 -66t-148 -23.5h-474l44 31q-20 -55 -51 -106t-75.5 -91t-102.5 -63t-131 -23zM725 74l-46 20h448q68 0 120.5 24.5t82.5 69.5t30 107q0 43 -15 74t-44 51
t-68 30t-87 10q-91 0 -159.5 -25t-117.5 -66.5t-80.5 -92.5t-47 -103.5t-16.5 -98.5zM1671 -25l20 119q13 0 15.5 -16t-2.5 -44q-4 -26 -12 -42.5t-21 -16.5zM1113 698q-33 0 -52 17t-19 44q0 40 27 65t69 25q33 0 52 -17t19 -45q0 -39 -26.5 -64t-69.5 -25z" />
    <glyph glyph-name="uniFEBF" unicode="&#x636;" horiz-adv-x="1069" arabic-form="initial" 
d="M-49 -25l19 119h173l-43 -47q-3 59 2.5 102.5t14.5 78.5t16 69.5t7 78.5q0 32 -4.5 53t-9.5 29q15 10 40.5 22.5t52.5 12.5t40.5 -13.5t17.5 -34t1.5 -46.5t-9.5 -52l-41 -12q30 50 69.5 94t90 77.5t115 52.5t145.5 19q107 0 186 -34t122.5 -97.5t43.5 -151.5
q0 -70 -27.5 -129t-77.5 -101.5t-117.5 -66t-147.5 -23.5h-679zM224 74l-43 20h449q68 0 120 24.5t82.5 69.5t30.5 107q0 43 -15.5 74t-44 51t-68 30t-87.5 10q-91 0 -160 -25t-118.5 -66.5t-81.5 -92.5t-47 -103.5t-17 -98.5zM-49 -25q-13 0 -16 15.5t2 43.5t12.5 44
t20.5 16zM598 698q-33 0 -52 17t-19 44q0 40 27 65t69 25q33 0 52 -17t19 -45q0 -39 -26.5 -64t-69.5 -25z" />
    <glyph glyph-name="uniFEC0" unicode="&#x636;" horiz-adv-x="1225" arabic-form="medial" 
d="M968 -25q-30 0 -53 11.5t-35.5 32t-12.5 45.5q0 22 6.5 49.5t13 57.5t6.5 58l101 10q-2 -30 -3.5 -56t2.5 -46t17.5 -31.5t41.5 -11.5h142l-19 -119h-207zM-49 -25l19 119h173l-43 -47q-3 59 2.5 102.5t14.5 78.5t16 69.5t7 78.5q0 32 -4.5 53t-9.5 29q15 10 40.5 22.5
t52.5 12.5t40.5 -13.5t17.5 -34t1.5 -46.5t-9.5 -52l-41 -12q30 50 69.5 94t90 77.5t115 52.5t145.5 19q107 0 186 -34t122.5 -97.5t43.5 -151.5q0 -70 -27.5 -129t-77.5 -101.5t-117.5 -66t-147.5 -23.5h-679zM224 74l-43 20h449q68 0 120 24.5t82.5 69.5t30.5 107
q0 43 -15.5 74t-44 51t-68 30t-87.5 10q-91 0 -160 -25t-118.5 -66.5t-81.5 -92.5t-47 -103.5t-17 -98.5zM-49 -25q-13 0 -16 15.5t2 43.5t12.5 44t20.5 16zM1175 -25l20 119q13 0 15.5 -16t-2.5 -44q-5 -26 -12.5 -42.5t-20.5 -16.5zM598 698q-33 0 -52 17t-19 44
q0 40 27 65t69 25q33 0 52 -17t19 -45q0 -39 -26.5 -64t-69.5 -25z" />
    <glyph glyph-name="uniFEC2" unicode="&#x637;" horiz-adv-x="1308" arabic-form="final" 
d="M1058 -25q-30 0 -52.5 11.5t-35.5 32t-13 45.5q0 22 6.5 49.5t12.5 57.5t6 58l102 10q-2 -29 -3.5 -55.5t2.5 -46.5t17.5 -31.5t41.5 -11.5h135l-19 -119h-200zM123 -25q-54 0 -85 5.5t-43.5 19.5t-12.5 39q0 21 7 39t16 30q26 -6 65.5 -10t91.5 -4h73l-40 -14
q-1 23 3.5 65t12.5 97t18.5 115.5t22 121.5t21 114.5t16.5 93.5l22 -58l-75 94q31 23 68 37.5t71 14.5q31 0 46 -13.5t15 -42.5q0 -28 -11 -81t-27.5 -128t-32.5 -167l-14 31q54 94 152 149t235 55q108 0 186.5 -34t122 -97.5t43.5 -151.5q0 -70 -27.5 -129t-77.5 -101.5
t-117.5 -66t-147.5 -23.5h-597zM320 74l-34 20h434q67 0 119.5 24.5t83 69.5t30.5 107q0 43 -15.5 74t-44 51t-68 30t-87.5 10q-91 0 -159.5 -25t-117 -66.5t-79.5 -92.5t-45.5 -103t-16.5 -99zM1257 -25l20 119q13 0 15.5 -16t-1.5 -44q-5 -26 -13 -42.5t-21 -16.5z" />
    <glyph glyph-name="uniFEC3" unicode="&#x637;" horiz-adv-x="1075" arabic-form="initial" 
d="M-49 -25l19 119h182l-41 -14q0 23 4 65t12.5 97t19 115.5t21.5 121.5t21 114.5t16 93.5l23 -58l-75 94q31 23 67.5 37.5t70.5 14.5q32 0 46.5 -13.5t14.5 -42.5q0 -28 -11 -81t-27 -128t-33 -167l-14 31q55 94 153 149t235 55q108 0 186.5 -34t122 -97.5t43.5 -151.5
q0 -70 -28 -129t-77.5 -101.5t-117 -66t-147.5 -23.5h-686zM237 74l-33 20h433q68 0 120 24.5t82.5 69.5t30.5 107q0 43 -15.5 74t-44.5 51t-68 30t-87 10q-91 0 -159.5 -25t-117 -66.5t-79.5 -92.5t-46 -103t-16 -99zM-49 -25q-13 0 -16 15.5t2 43.5t12.5 44t20.5 16z" />
    <glyph glyph-name="uniFEC4" unicode="&#x637;" horiz-adv-x="1226" arabic-form="medial" 
d="M976 -25q-31 0 -54 11.5t-35.5 32t-12.5 45.5q0 22 6.5 49.5t12.5 57.5t6 58l101 10q-2 -29 -3 -55.5t3.5 -46.5t18 -31.5t40.5 -11.5h136l-19 -119h-200zM-49 -25l19 119h182l-41 -14q0 23 4 65t12.5 97t19 115.5t21.5 121.5t21 114.5t16 93.5l23 -58l-75 94
q31 23 67.5 37.5t70.5 14.5q32 0 46.5 -13.5t14.5 -42.5q0 -28 -11 -81t-27 -128t-33 -167l-14 31q55 94 153 149t235 55q108 0 186.5 -34t122 -97.5t43.5 -151.5q0 -70 -28 -129t-77.5 -101.5t-117 -66t-147.5 -23.5h-686zM237 74l-33 20h433q68 0 120 24.5t82.5 69.5
t30.5 107q0 43 -15.5 74t-44.5 51t-68 30t-87 10q-91 0 -159.5 -25t-117 -66.5t-79.5 -92.5t-46 -103t-16 -99zM-49 -25q-13 0 -16 15.5t2 43.5t12.5 44t20.5 16zM1176 -25l19 119q14 0 16 -16t-2 -44q-5 -26 -12.5 -42.5t-20.5 -16.5z" />
    <glyph glyph-name="uniFEC6" unicode="&#x638;" horiz-adv-x="1308" arabic-form="final" 
d="M1058 -25q-30 0 -52.5 11.5t-35.5 32t-13 45.5q0 22 6.5 49.5t12.5 57.5t6 58l102 10q-2 -29 -3.5 -55.5t2.5 -46.5t17.5 -31.5t41.5 -11.5h135l-19 -119h-200zM123 -25q-54 0 -85 5.5t-43.5 19.5t-12.5 39q0 21 7 39t16 30q26 -6 65.5 -10t91.5 -4h73l-40 -14
q-1 23 3.5 65t12.5 97t18.5 115.5t22 121.5t21 114.5t16.5 93.5l22 -58l-75 94q31 23 68 37.5t71 14.5q31 0 46 -13.5t15 -42.5q0 -28 -11 -81t-27.5 -128t-32.5 -167l-14 31q54 94 152 149t235 55q108 0 186.5 -34t122 -97.5t43.5 -151.5q0 -70 -27.5 -129t-77.5 -101.5
t-117.5 -66t-147.5 -23.5h-597zM320 74l-34 20h434q67 0 119.5 24.5t83 69.5t30.5 107q0 43 -15.5 74t-44 51t-68 30t-87.5 10q-91 0 -159.5 -25t-117 -66.5t-79.5 -92.5t-45.5 -103t-16.5 -99zM1257 -25l20 119q13 0 15.5 -16t-1.5 -44q-5 -26 -13 -42.5t-21 -16.5z
M667 698q-33 0 -52 17t-19 44q0 40 27 65t69 25q33 0 52 -17t19 -45q0 -39 -26.5 -64t-69.5 -25z" />
    <glyph glyph-name="uniFEC7" unicode="&#x638;" horiz-adv-x="1075" arabic-form="initial" 
d="M-49 -25l19 119h182l-41 -14q0 23 4 65t12.5 97t19 115.5t21.5 121.5t21 114.5t16 93.5l23 -58l-75 94q31 23 67.5 37.5t70.5 14.5q32 0 46.5 -13.5t14.5 -42.5q0 -28 -11 -81t-27 -128t-33 -167l-14 31q55 94 153 149t235 55q108 0 186.5 -34t122 -97.5t43.5 -151.5
q0 -70 -28 -129t-77.5 -101.5t-117 -66t-147.5 -23.5h-686zM237 74l-33 20h433q68 0 120 24.5t82.5 69.5t30.5 107q0 43 -15.5 74t-44.5 51t-68 30t-87 10q-91 0 -159.5 -25t-117 -66.5t-79.5 -92.5t-46 -103t-16 -99zM-49 -25q-13 0 -16 15.5t2 43.5t12.5 44t20.5 16z
M587 698q-33 0 -52 17t-19 44q0 40 27 65t69 25q33 0 52 -17t19 -45q0 -39 -26.5 -64t-69.5 -25z" />
    <glyph glyph-name="uniFEC8" unicode="&#x638;" horiz-adv-x="1226" arabic-form="medial" 
d="M976 -25q-31 0 -54 11.5t-35.5 32t-12.5 45.5q0 22 6.5 49.5t12.5 57.5t6 58l101 10q-2 -29 -3 -55.5t3.5 -46.5t18 -31.5t40.5 -11.5h136l-19 -119h-200zM-49 -25l19 119h182l-41 -14q0 23 4 65t12.5 97t19 115.5t21.5 121.5t21 114.5t16 93.5l23 -58l-75 94
q31 23 67.5 37.5t70.5 14.5q32 0 46.5 -13.5t14.5 -42.5q0 -28 -11 -81t-27 -128t-33 -167l-14 31q55 94 153 149t235 55q108 0 186.5 -34t122 -97.5t43.5 -151.5q0 -70 -28 -129t-77.5 -101.5t-117 -66t-147.5 -23.5h-686zM237 74l-33 20h433q68 0 120 24.5t82.5 69.5
t30.5 107q0 43 -15.5 74t-44.5 51t-68 30t-87 10q-91 0 -159.5 -25t-117 -66.5t-79.5 -92.5t-46 -103t-16 -99zM-49 -25q-13 0 -16 15.5t2 43.5t12.5 44t20.5 16zM1176 -25l19 119q14 0 16 -16t-2 -44q-5 -26 -12.5 -42.5t-20.5 -16.5zM658 698q-33 0 -52 17t-19 44
q0 40 27 65t69 25q33 0 52 -17t19 -45q0 -39 -26.5 -64t-69.5 -25z" />
    <glyph glyph-name="uniFECA" unicode="&#x639;" horiz-adv-x="901" arabic-form="final" 
d="M376 -475q-102 0 -180 32t-122.5 90.5t-44.5 136.5q0 68 33 124.5t91.5 98t134.5 62.5l-18 -23l-175 328q0 53 23 100t64 82.5t96.5 55.5t122.5 20q70 0 129 -22.5t103.5 -65t68.5 -100.5t24 -128q0 -56 -15 -101t-40 -79.5t-55 -59.5l-18 18h273l-20 -119h-406
q-87 0 -149.5 -26.5t-96 -70t-33.5 -94.5q0 -42 24 -73.5t70.5 -49.5t115.5 -18q74 0 118 18.5t66.5 46t30 56t7.5 48.5q18 0 37.5 -3t35.5 -12.5t26.5 -27.5t10.5 -48q0 -52 -29.5 -89t-78.5 -60.5t-107.5 -35t-116.5 -11.5zM391 102q10 0 33 5t51 19t54 38t43 61.5
t17 90.5q0 55 -21 99.5t-64 71.5t-108 27q-49 0 -81 -14t-50.5 -33.5t-26.5 -36.5t-8 -24zM851 -25l20 119q13 0 15.5 -16t-2.5 -44q-4 -26 -12 -42.5t-21 -16.5z" />
    <glyph glyph-name="uniFECB" unicode="&#x639;" horiz-adv-x="797" arabic-form="initial" 
d="M-49 -25l19 119h137q56 0 106.5 -8t81.5 -16l12 -18q-77 42 -119 110t-42 157q0 71 26 129t72.5 100t109 64.5t135.5 22.5q56 0 105 -12.5t87 -34t59.5 -49t21.5 -58.5q0 -25 -15.5 -48t-42.5 -37.5t-62 -14.5q-34 0 -54 14.5t-29 36t-9 44.5q0 15 3 29.5t8 26.5l19 -28
q-19 5 -41.5 8t-45.5 3q-39 0 -76.5 -10t-67.5 -33t-48 -60t-18 -90q0 -57 21 -96.5t55.5 -64.5t75.5 -39t81.5 -19.5t74 -7t50.5 -1.5h45l-18 -119h-717zM-49 -25q-13 0 -16 15.5t2 43.5t12.5 44t20.5 16z" />
    <glyph glyph-name="uniFECC" unicode="&#x639;" horiz-adv-x="886" arabic-form="medial" 
d="M-49 -25l19 119h319l-20 -48l-175 328q0 53 23 100t64 82.5t96.5 55.5t121.5 20q71 0 130 -22.5t103.5 -65t68.5 -100.5t24 -128q0 -56 -15 -101t-40 -79.5t-56 -59.5l-17 18h258l-19 -119h-885zM390 102q10 0 33 5t51 19t54 38t43 61.5t17 90.5q0 55 -21 99.5
t-64.5 71.5t-108.5 27q-48 0 -80.5 -14t-51 -33.5t-26.5 -36.5t-8 -24zM835 -25l20 119q13 0 15.5 -16t-1.5 -44q-5 -26 -13 -42.5t-21 -16.5zM-49 -25q-13 0 -16 15.5t2 43.5t12.5 44t20.5 16z" />
    <glyph glyph-name="uniFECE" unicode="&#x63a;" horiz-adv-x="901" arabic-form="final" 
d="M376 -475q-102 0 -180 32t-122.5 90.5t-44.5 136.5q0 68 33 124.5t91.5 98t134.5 62.5l-18 -23l-175 328q0 53 23 100t64 82.5t96.5 55.5t122.5 20q70 0 129 -22.5t103.5 -65t68.5 -100.5t24 -128q0 -56 -15 -101t-40 -79.5t-55 -59.5l-18 18h273l-20 -119h-406
q-87 0 -149.5 -26.5t-96 -70t-33.5 -94.5q0 -42 24 -73.5t70.5 -49.5t115.5 -18q74 0 118 18.5t66.5 46t30 56t7.5 48.5q18 0 37.5 -3t35.5 -12.5t26.5 -27.5t10.5 -48q0 -52 -29.5 -89t-78.5 -60.5t-107.5 -35t-116.5 -11.5zM391 102q10 0 33 5t51 19t54 38t43 61.5
t17 90.5q0 55 -21 99.5t-64 71.5t-108 27q-49 0 -81 -14t-50.5 -33.5t-26.5 -36.5t-8 -24zM851 -25l20 119q13 0 15.5 -16t-2.5 -44q-4 -26 -12 -42.5t-21 -16.5zM408 730q-33 0 -52 17t-19 44q0 40 27 65t69 25q33 0 52 -17t19 -45q0 -39 -26.5 -64t-69.5 -25z" />
    <glyph glyph-name="uniFECF" unicode="&#x63a;" horiz-adv-x="797" arabic-form="initial" 
d="M-49 -25l19 119h137q56 0 106.5 -8t81.5 -16l12 -18q-77 42 -119 110t-42 157q0 71 26 129t72.5 100t109 64.5t135.5 22.5q56 0 105 -12.5t87 -34t59.5 -49t21.5 -58.5q0 -25 -15.5 -48t-42.5 -37.5t-62 -14.5q-34 0 -54 14.5t-29 36t-9 44.5q0 15 3 29.5t8 26.5l19 -28
q-19 5 -41.5 8t-45.5 3q-39 0 -76.5 -10t-67.5 -33t-48 -60t-18 -90q0 -57 21 -96.5t55.5 -64.5t75.5 -39t81.5 -19.5t74 -7t50.5 -1.5h45l-18 -119h-717zM-49 -25q-13 0 -16 15.5t2 43.5t12.5 44t20.5 16zM475 730q-33 0 -52 17t-19 44q0 40 27 65t69 25q33 0 52 -17
t19 -45q0 -39 -26.5 -64t-69.5 -25z" />
    <glyph glyph-name="uniFED0" unicode="&#x63a;" horiz-adv-x="886" arabic-form="medial" 
d="M-49 -25l19 119h319l-20 -48l-175 328q0 53 23 100t64 82.5t96.5 55.5t121.5 20q71 0 130 -22.5t103.5 -65t68.5 -100.5t24 -128q0 -56 -15 -101t-40 -79.5t-56 -59.5l-17 18h258l-19 -119h-885zM390 102q10 0 33 5t51 19t54 38t43 61.5t17 90.5q0 55 -21 99.5
t-64.5 71.5t-108.5 27q-48 0 -80.5 -14t-51 -33.5t-26.5 -36.5t-8 -24zM835 -25l20 119q13 0 15.5 -16t-1.5 -44q-5 -26 -13 -42.5t-21 -16.5zM-49 -25q-13 0 -16 15.5t2 43.5t12.5 44t20.5 16zM399 730q-33 0 -52 17t-19 44q0 40 27 65t69 25q33 0 52 -17t19 -45
q0 -39 -26.5 -64t-69.5 -25z" />
    <glyph glyph-name="uniFED2" unicode="&#x641;" horiz-adv-x="1290" arabic-form="final" 
d="M1154 -25q-41 0 -63.5 22.5t-28.5 61.5l52 -32h-109l115 255q-6 -26 -9.5 -51t-3.5 -43q0 -42 22.5 -68t64.5 -26h65l-19 -119h-86zM239 -25q-83 0 -121.5 40t-38.5 132q0 45 7 80.5t13.5 69t6.5 72.5q0 29 -4 50t-11 35q26 14 52 24t52 10q30 0 43.5 -17t13.5 -52
q0 -36 -9 -77.5t-19 -85.5t-10 -87q0 -44 16 -59.5t54 -15.5h370l-31 -29q-17 31 -26 70t-9 84q0 85 25 156t70.5 122.5t109 80t139.5 28.5q52 0 93.5 -11.5t70.5 -29t47 -34.5t25 -28q0 -8 -5.5 -34t-14 -63t-19 -81.5t-19.5 -90.5t-15.5 -89.5t-8.5 -79.5l-58 -90h-789z
M950 73q1 38 8 84.5t16.5 94.5t19.5 93t19 80.5t14 55.5l3 -21q-11 11 -38.5 19t-59.5 8q-57 0 -104 -31t-75 -90t-28 -143q0 -43 8 -71.5t18.5 -44t17.5 -24.5l-30 11h256zM1240 -25l20 119q13 0 15.5 -16t-2.5 -44q-4 -26 -12 -42.5t-21 -16.5zM941 695q-33 0 -52 17
t-19 44q0 40 27 65t69 25q33 0 52 -17t19 -45q0 -39 -26.5 -64t-69.5 -25z" />
    <glyph glyph-name="uniFED3" unicode="&#x641;" horiz-adv-x="713" arabic-form="initial" 
d="M-49 -25l19 119h197l-31 -29q-17 31 -26 70t-9 84q0 85 25 156t70.5 122.5t109 80t139.5 28.5q52 0 93.5 -11.5t70.5 -29t47 -34.5t25 -28q0 -8 -5.5 -34t-14 -63t-19 -81.5t-19.5 -90.5t-15.5 -89.5t-8.5 -79.5l-58 -90h-590zM463 73q1 38 8 84.5t16.5 94.5t19.5 93
t19 80.5t14 55.5l3 -21q-11 11 -38.5 19t-59.5 8q-57 0 -103.5 -31t-75 -90t-28.5 -143q0 -43 8 -71.5t18.5 -44t17.5 -24.5l-30 11h256zM-49 -25q-13 0 -16 15.5t2 43.5t12.5 44t20.5 16zM451 695q-33 0 -52 17t-19 44q0 40 27 65t69 25q33 0 52 -17t19 -45
q0 -39 -26.5 -64t-69.5 -25z" />
    <glyph glyph-name="uniFED4" unicode="&#x641;" horiz-adv-x="804" arabic-form="medial" 
d="M667 -25q-41 0 -63.5 22.5t-27.5 61.5l51 -32h-108l114 255q-5 -26 -9 -51t-4 -43q0 -42 22.5 -68t65.5 -26h65l-19 -119h-87zM-49 -25l19 119h197l-31 -29q-17 31 -26 70t-9 84q0 85 25 156t70.5 122.5t109 80t139.5 28.5q52 0 93.5 -11.5t70.5 -29t47 -34.5t25 -28
q0 -8 -5.5 -34t-14 -63t-19 -81.5t-19.5 -90.5t-15.5 -89.5t-8.5 -79.5l-58 -90h-590zM463 73q1 38 8 84.5t16.5 94.5t19.5 93t19 80.5t14 55.5l3 -21q-11 11 -38.5 19t-59.5 8q-57 0 -103.5 -31t-75 -90t-28.5 -143q0 -43 8 -71.5t18.5 -44t17.5 -24.5l-30 11h256zM-49 -25
q-13 0 -16 15.5t2 43.5t12.5 44t20.5 16zM754 -25l19 119q14 0 16 -16t-2 -44q-5 -26 -12.5 -42.5t-20.5 -16.5zM451 695q-33 0 -52 17t-19 44q0 40 27 65t69 25q33 0 52 -17t19 -45q0 -39 -26.5 -64t-69.5 -25z" />
    <glyph glyph-name="uniFED6" unicode="&#x642;" horiz-adv-x="1231" arabic-form="final" 
d="M922 -25l54 119h224l-19 -119h-259zM471 -352q-97 0 -170 25.5t-124.5 68.5t-83.5 97t-46.5 111.5t-14.5 110.5q0 58 15 98t42.5 61t62.5 21q21 0 37 -6.5t25.5 -14.5t11.5 -12q-6 -4 -19.5 -22t-25.5 -51t-12 -85q0 -83 37.5 -147t105.5 -100.5t159 -36.5
q105 0 190.5 49.5t147.5 143.5t97.5 227.5t41.5 301.5l13 -32q-14 8 -43 19.5t-68 11.5q-43 0 -80.5 -19t-65 -54t-43.5 -82.5t-16 -104.5q0 -50 13 -79.5t38 -41.5t63 -12h151v-119h-157q-122 0 -183 64t-61 187q0 80 24.5 149t70 121t108.5 81t140 29q51 0 91.5 -11.5
t70.5 -29t48 -34.5t24 -28q-3 -92 -17.5 -190.5t-44 -194.5t-76 -181t-114 -150t-157 -102t-206.5 -37zM1181 -25l19 119q13 0 15.5 -16t-1.5 -44q-5 -26 -12.5 -42.5t-20.5 -16.5zM952 695q-32 0 -51.5 17t-19.5 43q0 41 27 65.5t69 24.5q33 0 52 -16.5t19 -44.5
q0 -39 -27 -64t-69 -25zM770 695q-32 0 -51.5 17t-19.5 43q0 41 27.5 65.5t68.5 24.5q33 0 52 -16.5t19 -44.5q0 -39 -27 -64t-69 -25z" />
    <glyph glyph-name="uniFED7" unicode="&#x642;" horiz-adv-x="713" arabic-form="initial" 
d="M-49 -25l19 119h197l-31 -29q-17 31 -26 70t-9 84q0 85 25 156t70.5 122.5t109 80t139.5 28.5q52 0 93.5 -11.5t70.5 -29t47 -34.5t25 -28q0 -8 -5.5 -34t-14 -63t-19 -81.5t-19.5 -90.5t-15.5 -89.5t-8.5 -79.5l-58 -90h-590zM463 73q1 38 8 84.5t16.5 94.5t19.5 93
t19 80.5t14 55.5l3 -21q-11 11 -38.5 19t-59.5 8q-57 0 -103.5 -31t-75 -90t-28.5 -143q0 -43 8 -71.5t18.5 -44t17.5 -24.5l-30 11h256zM-49 -25q-13 0 -16 15.5t2 43.5t12.5 44t20.5 16zM542 695q-32 0 -51.5 17t-19.5 43q0 41 27 65.5t69 24.5q33 0 52 -16.5t19 -44.5
q0 -39 -27 -64t-69 -25zM360 695q-32 0 -51.5 17t-19.5 43q0 41 27.5 65.5t68.5 24.5q33 0 52 -16.5t19 -44.5q0 -39 -27 -64t-69 -25z" />
    <glyph glyph-name="uniFED8" unicode="&#x642;" horiz-adv-x="804" arabic-form="medial" 
d="M667 -25q-41 0 -63.5 22.5t-27.5 61.5l51 -32h-108l114 255q-5 -26 -9 -51t-4 -43q0 -42 22.5 -68t65.5 -26h65l-19 -119h-87zM-49 -25l19 119h197l-31 -29q-17 31 -26 70t-9 84q0 85 25 156t70.5 122.5t109 80t139.5 28.5q52 0 93.5 -11.5t70.5 -29t47 -34.5t25 -28
q0 -8 -5.5 -34t-14 -63t-19 -81.5t-19.5 -90.5t-15.5 -89.5t-8.5 -79.5l-58 -90h-590zM463 73q1 38 8 84.5t16.5 94.5t19.5 93t19 80.5t14 55.5l3 -21q-11 11 -38.5 19t-59.5 8q-57 0 -103.5 -31t-75 -90t-28.5 -143q0 -43 8 -71.5t18.5 -44t17.5 -24.5l-30 11h256zM-49 -25
q-13 0 -16 15.5t2 43.5t12.5 44t20.5 16zM754 -25l19 119q14 0 16 -16t-2 -44q-5 -26 -12.5 -42.5t-20.5 -16.5zM542 695q-32 0 -51.5 17t-19.5 43q0 41 27 65.5t69 24.5q33 0 52 -16.5t19 -44.5q0 -39 -27 -64t-69 -25zM360 695q-32 0 -51.5 17t-19.5 43q0 41 27.5 65.5
t68.5 24.5q33 0 52 -16.5t19 -44.5q0 -39 -27 -64t-69 -25z" />
    <glyph glyph-name="uniFEDA" unicode="&#x643;" horiz-adv-x="1111" arabic-form="final" 
d="M973 -25q-41 0 -63.5 22.5t-27.5 61.5l51 -32h-109l113 255l-6 -50t-3 -41q0 -45 21.5 -71t64.5 -26h67l-20 -119h-88zM241 -25q-84 0 -122 40t-38 132q0 41 5 65.5t10 47.5t5 59q0 27 -3.5 48t-10.5 36q26 14 51.5 24t52.5 10q31 0 44 -17.5t13 -52.5q0 -33 -7.5 -63
t-16 -62t-8.5 -73q0 -29 6.5 -45.5t22 -23t41.5 -6.5h535l-47 -14q1 26 8.5 80.5t18.5 124.5t23.5 145t24 142.5t20.5 115.5l22 -59l-74 94q29 23 66 37.5t72 14.5q32 0 46.5 -13.5t14.5 -40.5q0 -21 -7 -59.5t-18 -91t-23.5 -114t-23.5 -128t-17.5 -133.5t-6.5 -129
l-60 -91h-619zM1061 -25l20 119q13 0 15.5 -16t-2.5 -44q-4 -26 -12 -42.5t-21 -16.5zM419 404q-24 0 -34 9.5t-10 29.5q0 15 4.5 32t12.5 33q13 -5 27 -8.5t29 -3.5q17 0 35 4t32 9l14 -25q-42 17 -67.5 38t-36 45.5t-10.5 49.5q0 27 11 44t27.5 27t35.5 14t37 4
q17 0 39 -3t42.5 -10t33.5 -19t13 -29q0 -16 -13 -29.5t-40 -11.5q-19 1 -32 12.5t-19 24.5q-20 -1 -35 -13.5t-15 -37.5q0 -19 9 -36t23 -30.5t27 -24.5l-56 6q39 10 64 19.5t52 9.5q23 0 33 -8.5t10 -29.5q0 -32 -16 -66q-13 5 -27 8t-30 3q-32 0 -61.5 -9.5t-56 -18.5
t-52.5 -9z" />
    <glyph glyph-name="uniFEDB" unicode="&#x643;" horiz-adv-x="941" arabic-form="initial" 
d="M-49 -25l19 119h752l-15 -18q2 34 5.5 66.5t3.5 63.5q0 45 -12 58.5t-40 13.5h-414q-53 0 -95 20.5t-65.5 69t-23.5 130.5q0 38 4.5 79.5t10 77.5t9.5 55q18 -5 62.5 -9.5t112.5 -4.5q40 0 94.5 1.5t113 4t115.5 4.5t103 2q54 0 84.5 -5t42.5 -18t12 -40q0 -17 -5 -36.5
t-15 -35.5q-32 6 -73.5 10t-96.5 4q-31 0 -75.5 -1.5t-95.5 -3t-101 -3t-94 -3t-74 -1.5l12 12q-4 -16 -8 -46.5t-4 -54.5q0 -48 20.5 -68.5t54.5 -20.5h434q71 0 108 -39.5t37 -131.5q0 -26 -2.5 -53t-5.5 -53.5t-5 -53.5l-59 -91h-831zM-49 -25q-13 0 -16 15.5t2 43.5
t12.5 44t20.5 16z" />
    <glyph glyph-name="uniFEDC" unicode="&#x643;" horiz-adv-x="1045" arabic-form="medial" 
d="M907 -25q-42 0 -64.5 22.5t-27.5 61.5l51 -32h-108l94 162q0 -42 22.5 -68.5t64.5 -26.5h75l-19 -119h-88zM-49 -25l19 119h752l-15 -18q2 34 5.5 66.5t3.5 63.5q0 45 -12 58.5t-40 13.5h-414q-53 0 -95 20.5t-65.5 69t-23.5 130.5q0 38 4.5 79.5t10 77.5t9.5 55
q18 -5 62.5 -9.5t112.5 -4.5q40 0 94.5 1.5t113 4t115.5 4.5t103 2q54 0 84.5 -5t42.5 -18t12 -40q0 -17 -5 -36.5t-15 -35.5q-32 6 -73.5 10t-96.5 4q-31 0 -75.5 -1.5t-95.5 -3t-101 -3t-94 -3t-74 -1.5l12 12q-4 -16 -8 -46.5t-4 -54.5q0 -48 20.5 -68.5t54.5 -20.5h434
q71 0 108 -39.5t37 -131.5q0 -26 -2.5 -53t-5.5 -53.5t-5 -53.5l-59 -91h-831zM-49 -25q-13 0 -16 15.5t2 43.5t12.5 44t20.5 16zM995 -25l19 119q13 0 15.5 -16t-1.5 -44q-5 -26 -12.5 -42.5t-20.5 -16.5z" />
    <glyph glyph-name="uniFEDE" unicode="&#x644;" horiz-adv-x="950" arabic-form="final" 
d="M816 -25q-41 0 -63.5 22.5t-28.5 61.5l52 -32h-109l109 257q-4 -26 -8 -51t-4 -43q0 -42 22 -69t64 -27h69l-19 -119h-84zM354 -278q-89 0 -147.5 23.5t-93.5 61.5t-52.5 81t-23 81.5t-5.5 63.5q0 51 13.5 90.5t39 62t63.5 22.5q30 0 50 -11t28 -22q-25 -24 -40.5 -56
t-15.5 -91q0 -97 45 -142t141 -45q73 0 121 26t79.5 90t51.5 176l102 553l3 -42l-64 79q30 23 67 37t69 14q33 0 48 -13.5t15 -26.5q0 -17 -5.5 -59.5t-14.5 -100.5t-20.5 -123.5t-23.5 -130t-22.5 -119.5t-17.5 -90q-10 -52 -26 -106t-42.5 -104t-68 -91t-104 -64.5
t-149.5 -23.5zM900 -25l19 119q13 0 15.5 -16t-1.5 -44q-5 -26 -12.5 -42.5t-20.5 -16.5z" />
    <glyph glyph-name="uniFEDF" unicode="&#x644;" horiz-adv-x="340" arabic-form="initial" 
d="M-49 -25l19 119h170l-46 -14q1 26 8.5 80.5t18.5 124.5t23 144.5t24 142t21 115.5l23 -58l-75 94q29 23 66 37.5t72 14.5q32 0 46.5 -13.5t14.5 -40.5q0 -21 -7 -59.5t-18 -90.5t-23 -114t-23 -128t-18.5 -133t-7.5 -130l-58 -91h-230zM-49 -25q-13 0 -16 15.5t2 43.5
t12.5 44t20.5 16z" />
    <glyph glyph-name="uniFEE0" unicode="&#x644;" horiz-adv-x="444" arabic-form="medial" 
d="M307 -25q-42 0 -64.5 22.5t-27.5 61.5l51 -32h-108l100 255q-4 -27 -7 -50.5t-3 -41.5q0 -42 21.5 -69t63.5 -27h81l-20 -119h-87zM-49 -25l19 119h170l-46 -14q1 26 8.5 80.5t18.5 124.5t23 144.5t24 142t21 115.5l23 -58l-75 94q29 23 66 37.5t72 14.5q32 0 46.5 -13.5
t14.5 -40.5q0 -21 -7 -59.5t-18 -90.5t-23 -114t-23 -128t-18.5 -133t-7.5 -130l-58 -91h-230zM-49 -25q-13 0 -16 15.5t2 43.5t12.5 44t20.5 16zM394 -25l20 119q13 0 15.5 -16t-1.5 -44q-5 -26 -12.5 -42.5t-21.5 -16.5z" />
    <glyph glyph-name="uniFEE2" unicode="&#x645;" horiz-adv-x="792" arabic-form="final" 
d="M413 -25l30 119h319l-20 -119h-329zM-10 -366q-28 0 -46 10.5t-32 24.5q4 5 13.5 13.5t22 26t22.5 50.5q10 26 17.5 59t13.5 63.5t9 48.5q11 54 28 87.5t46 51t71 24.5l-41 -55l72 450q30 38 68.5 64.5t85.5 39.5t99 13q81 0 138.5 -30.5t88.5 -87.5t31 -138
q0 -74 -25 -145t-70.5 -130.5t-109.5 -98.5h-272q-32 0 -50 -17t-24 -49l-30 -139q-10 -42 -25 -72.5t-39.5 -47t-61.5 -16.5zM253 50l-37 44h272l-58 -9q25 13 55.5 50t52.5 92.5t22 123.5q0 63 -26 99t-94 36q-45 0 -84.5 -16t-56.5 -40l24 59zM742 -25l20 119
q13 0 15.5 -16t-2.5 -44q-4 -26 -12 -42.5t-21 -16.5z" />
    <glyph glyph-name="uniFEE3" unicode="&#x645;" horiz-adv-x="771" arabic-form="initial" 
d="M-49 -25l19 119h59q35 0 62.5 14.5t44.5 36t20 41.5l48 302q29 38 68.5 64.5t86 39.5t98.5 13q81 0 138.5 -30.5t88.5 -87.5t31 -138q0 -74 -25 -145t-70.5 -130.5t-109.5 -98.5h-331l-14 52h-8q-11 -16 -38 -34t-61 -18h-107zM271 50l-38 44h274l-59 -9q25 13 55 50
t52.5 92.5t22.5 123.5q0 63 -26 99t-93 36q-47 0 -86 -16t-55 -40l23 59zM-49 -25q-13 0 -16 15.5t2 43.5t12.5 44t20.5 16z" />
    <glyph glyph-name="uniFEE4" unicode="&#x645;" horiz-adv-x="796" arabic-form="medial" 
d="M339 -25l18 119h408l-19 -119h-407zM-49 -25l19 119h59q35 0 62.5 14.5t44.5 36t20 41.5l48 302q29 38 68.5 64.5t86 39.5t98.5 13q81 0 138.5 -30.5t88.5 -87.5t31 -138q0 -74 -25 -145t-70.5 -130.5t-109.5 -98.5h-331l-14 52h-8q-11 -16 -38 -34t-61 -18h-107zM271 50
l-38 44h274l-59 -9q25 13 55 50t52.5 92.5t22.5 123.5q0 63 -26 99t-93 36q-47 0 -86 -16t-55 -40l23 59zM-49 -25q-13 0 -16 15.5t2 43.5t12.5 44t20.5 16zM746 -25l19 119q14 0 16 -16t-2 -44q-5 -26 -12.5 -42.5t-20.5 -16.5z" />
    <glyph glyph-name="uniFEE6" unicode="&#x646;" horiz-adv-x="954" arabic-form="final" 
d="M813 -25q-42 0 -64 22.5t-28 61.5l51 -32h-108l108 255q-4 -25 -9 -50t-5 -41q0 -45 21.5 -71t64.5 -26h79l-19 -119h-91zM352 -278q-89 0 -148 23.5t-94 61.5t-52 80.5t-22.5 81.5t-5.5 64q0 50 13 90t38.5 62.5t63.5 22.5q31 0 50.5 -11t27.5 -22q-25 -24 -40.5 -56
t-15.5 -91q0 -97 45.5 -142t141.5 -45q73 0 121 26t79 90t52 176l55 302l26 -51l-74 95q30 23 66.5 37t74.5 14q30 0 42.5 -10.5t12.5 -37.5q-16 -92 -29.5 -165t-23 -125t-15.5 -81q-10 -52 -26 -106.5t-42 -104.5t-67.5 -90.5t-104 -64t-149.5 -23.5zM904 -25l20 119
q13 0 15.5 -16t-2.5 -44q-4 -26 -12 -42.5t-21 -16.5zM449 529q-33 0 -52 17t-19 44q0 40 27 65t69 25q33 0 52 -17t19 -45q0 -39 -26.5 -64t-69.5 -25z" />
    <glyph glyph-name="uniFEE7" unicode="&#x646;" horiz-adv-x="348" arabic-form="initial" 
d="M-49 -25l19 119h164l-39 -21q2 41 9 88t16 94t19 87.5t17 68.5t9 37l4 -48l-63 78q31 23 69 37.5t72 14.5q31 0 45 -13.5t14 -43.5q0 -11 -7 -42t-17 -75.5t-21 -95.5t-19 -101.5t-11 -93.5l-58 -90h-222zM-49 -25q-13 0 -16 15.5t2 43.5t12.5 44t20.5 16zM236 620
q-33 0 -52 17t-19 44q0 40 27 65t69 25q33 0 52 -17t19 -45q0 -39 -26.5 -64t-69.5 -25z" />
    <glyph glyph-name="uniFEE8" unicode="&#x646;" horiz-adv-x="417" arabic-form="medial" 
d="M-49 -25l19 119h160l-45 -45v46q0 25 5.5 56.5t13.5 66t16 69.5t13 68t5 61q0 23 -3.5 44t-10.5 36q27 16 55 25t52 9q31 0 44.5 -17t13.5 -50q0 -27 -7 -61.5t-16.5 -72t-17 -73t-7.5 -64.5q0 -46 22.5 -72t64.5 -26h58l-19 -119h-81q-41 0 -63.5 22.5t-27.5 61.5
l36 -32h-37l-34 -52h-209zM367 -25l20 119q13 0 15.5 -16t-2.5 -44q-4 -26 -12 -42.5t-21 -16.5zM-49 -25q-13 0 -16 15.5t2 43.5t12.5 44t20.5 16zM235 620q-33 0 -52 17t-19 44q0 40 27 65t69 25q33 0 52 -17t19 -45q0 -39 -26.5 -64t-69.5 -25z" />
    <glyph glyph-name="uniFEEA" unicode="&#x647;" horiz-adv-x="770" arabic-form="final" 
d="M422 -25l58 119h260l-20 -119h-298zM326 -25q-80 0 -139 30.5t-91.5 90t-32.5 145.5q0 83 30 150t81.5 114.5t117.5 73t139 25.5q59 0 101.5 -15t70.5 -37t40 -45l-78 -441l-60 -91h-179zM430 85l75 426l6 -55q-6 14 -28.5 21.5t-53.5 7.5q-66 0 -118 -31t-81.5 -87
t-29.5 -133q0 -72 30.5 -106t95.5 -34h120zM720 -25l20 119q13 0 15.5 -16t-1.5 -44q-5 -26 -12.5 -42.5t-21.5 -16.5z" />
    <glyph glyph-name="uniFEEB" unicode="&#x647;" horiz-adv-x="1033" arabic-form="initial" 
d="M346 -132q-33 0 -49 17t-19 41.5t-1 48.5h-326l19 119h108q3 92 38.5 166t98.5 124.5t145 70.5q8 38 23 74.5t39 67.5t59 54.5t83 37t110 13.5q61 0 115.5 -15.5t96 -50t65 -91t23.5 -139.5q0 -59 -10 -112.5t-20.5 -108t-10.5 -119.5l-59 -91h-460q-1 -22 4.5 -42
t19.5 -30q-17 -16 -42 -25.5t-50 -9.5zM215 94h81l40 224q-56 -30 -87.5 -90t-33.5 -134zM434 94h90l37 233q-13 9 -34.5 14.5t-46.5 6.5zM668 94h130q3 64 12.5 117t17.5 101t8 99q0 62 -16.5 100t-52 55.5t-93.5 17.5q-49 0 -83 -12.5t-55 -38.5t-34 -67q85 -7 136.5 -36
t70.5 -60zM-49 -25q-13 0 -16 15.5t2 43.5t12.5 44t20.5 16z" />
    <glyph glyph-name="uniFEEC" unicode="&#x647;" horiz-adv-x="1100" arabic-form="medial" 
d="M863 -25l19 119h187l-19 -119h-187zM346 -132q-33 0 -49 17t-19 41.5t-1 48.5h-326l19 119h108q3 92 38.5 166t98.5 124.5t145 70.5q8 38 23 74.5t39 67.5t59 54.5t83 37t110 13.5q61 0 115.5 -15.5t96 -50t65 -91t23.5 -139.5q0 -59 -10 -112.5t-20.5 -108t-10.5 -119.5
l-59 -91h-460q-1 -22 4.5 -42t19.5 -30q-17 -16 -42 -25.5t-50 -9.5zM215 94h81l40 224q-56 -30 -87.5 -90t-33.5 -134zM434 94h90l37 233q-13 9 -34.5 14.5t-46.5 6.5zM668 94h130q3 64 12.5 117t17.5 101t8 99q0 62 -16.5 100t-52 55.5t-93.5 17.5q-49 0 -83 -12.5
t-55 -38.5t-34 -67q85 -7 136.5 -36t70.5 -60zM-49 -25q-13 0 -16 15.5t2 43.5t12.5 44t20.5 16zM1050 -25l19 119q14 0 16.5 -16t-2.5 -44q-5 -26 -12.5 -42.5t-20.5 -16.5z" />
    <glyph glyph-name="uniFEEE" unicode="&#x648;" horiz-adv-x="755" arabic-form="final" 
d="M541 -25l28 119h155l-19 -119h-164zM270 -365q-54 0 -88.5 12.5t-50.5 32.5t-16 44q64 0 110 9.5t78 31t54.5 58t38.5 90.5t31 128q9 42 18 92t17.5 102.5t16 102.5t13.5 92.5t10 70.5l8 -45q-14 8 -43 19.5t-68 11.5q-43 0 -80.5 -19t-65 -54t-43.5 -82.5t-16 -104.5
q0 -50 13 -79.5t38 -41.5t64 -12h150v-119h-156q-123 0 -184 64t-61 187q0 80 24.5 149t70 121t108.5 81t140 29q51 0 91.5 -11.5t70.5 -29t48 -34.5t24 -28q0 -6 -4.5 -46t-13.5 -100.5t-20 -132t-23 -140.5q-14 -85 -31.5 -155.5t-41 -125t-55 -92t-75 -57t-101.5 -19.5z
M705 -25l19 119q13 0 15.5 -16t-1.5 -44q-5 -26 -12.5 -42.5t-20.5 -16.5z" />
    <glyph glyph-name="uniFEF0" unicode="&#x649;" horiz-adv-x="1122" arabic-form="final" 
d="M477 -314q-90 0 -168 26.5t-137 75t-92 112.5t-33 140q0 77 33.5 120.5t85.5 43.5q21 0 36.5 -6.5t25.5 -14.5t12 -12q-5 -4 -18.5 -21t-25.5 -45t-12 -65q0 -44 19.5 -85.5t56.5 -75.5t91.5 -54t125.5 -20q72 0 136.5 20.5t114 54.5t77.5 72.5t28 74.5l137 10
q0 -57 -27 -109t-75 -96t-110.5 -77t-134.5 -51t-146 -18zM799 -25q-56 0 -87.5 5t-44.5 19t-13 39q0 18 6 36.5t17 33.5q22 -5 44 -8t50 -4.5t64 -1.5h256l-19 -119h-273zM1071 -25l20 119q13 0 15.5 -16t-2.5 -44q-4 -26 -12 -42.5t-21 -16.5z" />
    <glyph glyph-name="uniFEF2" unicode="&#x64a;" horiz-adv-x="1122" arabic-form="final" 
d="M477 -314q-90 0 -168 26.5t-137 75t-92 112.5t-33 140q0 77 33.5 120.5t85.5 43.5q21 0 36.5 -6.5t25.5 -14.5t12 -12q-5 -4 -18.5 -21t-25.5 -45t-12 -65q0 -44 19.5 -85.5t56.5 -75.5t91.5 -54t125.5 -20q72 0 136.5 20.5t114 54.5t77.5 72.5t28 74.5l137 10
q0 -57 -27 -109t-75 -96t-110.5 -77t-134.5 -51t-146 -18zM799 -25q-56 0 -87.5 5t-44.5 19t-13 39q0 18 6 36.5t17 33.5q22 -5 44 -8t50 -4.5t64 -1.5h256l-19 -119h-273zM1071 -25l20 119q13 0 15.5 -16t-2.5 -44q-4 -26 -12 -42.5t-21 -16.5zM491 -541q-31 0 -50.5 17
t-19.5 44q0 40 27.5 65t68.5 25q33 0 52 -17t19 -45q0 -39 -27 -64t-70 -25zM310 -541q-33 0 -52 17t-19 44q0 40 27 65t69 25q33 0 52 -17t19 -45q0 -39 -26.5 -64t-69.5 -25z" />
    <glyph glyph-name="uniFEF3" unicode="&#x64a;" horiz-adv-x="348" arabic-form="initial" 
d="M-49 -25l19 119h164l-39 -21q2 41 9 88t16 94t19 87.5t17 68.5t9 37l4 -48l-63 78q31 23 69 37.5t72 14.5q31 0 45 -13.5t14 -43.5q0 -11 -7 -42t-17 -75.5t-21 -95.5t-19 -101.5t-11 -93.5l-58 -90h-222zM-49 -25q-13 0 -16 15.5t2 43.5t12.5 44t20.5 16zM186 -256
q-31 0 -50.5 17t-19.5 44q0 40 27.5 65t68.5 25q33 0 52 -17t19 -45q0 -39 -27 -64t-70 -25zM5 -256q-33 0 -52 17t-19 44q0 40 27 65t69 25q33 0 52 -17t19 -45q0 -39 -26.5 -64t-69.5 -25z" />
    <glyph glyph-name="uniFEF4" unicode="&#x64a;" horiz-adv-x="417" arabic-form="medial" 
d="M-49 -25l19 119h160l-45 -45v46q0 25 5.5 56.5t13.5 66t16 69.5t13 68t5 61q0 23 -3.5 44t-10.5 36q27 16 55 25t52 9q31 0 44.5 -17t13.5 -50q0 -27 -7 -61.5t-16.5 -72t-17 -73t-7.5 -64.5q0 -46 22.5 -72t64.5 -26h58l-19 -119h-81q-41 0 -63.5 22.5t-27.5 61.5
l36 -32h-37l-34 -52h-209zM367 -25l20 119q13 0 15.5 -16t-2.5 -44q-4 -26 -12 -42.5t-21 -16.5zM-49 -25q-13 0 -16 15.5t2 43.5t12.5 44t20.5 16zM185 -256q-31 0 -50.5 17t-19.5 44q0 40 27.5 65t68.5 25q33 0 52 -17t19 -45q0 -39 -27 -64t-70 -25zM4 -256q-33 0 -52 17
t-19 44q0 40 27 65t69 25q33 0 52 -17t19 -45q0 -39 -26.5 -64t-69.5 -25z" />
    <glyph glyph-name=".notdef" horiz-adv-x="633" 
d="M-49 -25l116 735h633l-116 -735h-633zM116 69h332l88 546h-331z" />
    <glyph glyph-name=".null" 
 />
    <glyph glyph-name="nonmarkingreturn" horiz-adv-x="333" 
 />
    <glyph glyph-name="NULL" 
 />
    <glyph glyph-name="NULL" 
 />
    <glyph glyph-name="CR" unicode="&#xd;" horiz-adv-x="317" 
 />
    <glyph glyph-name="space" unicode=" " horiz-adv-x="317" 
 />
    <glyph glyph-name="exclam" unicode="!" horiz-adv-x="381" 
d="M190 258q-29 0 -39 16.5t-10 42.5q0 17 5 48.5t11.5 69.5t13.5 78.5t12 76t5 60.5q0 20 -4 43t-17 37q23 22 54.5 33.5t67.5 11.5q47 0 66.5 -26t19.5 -65q0 -24 -8 -63.5t-21.5 -86.5t-29.5 -94.5t-31 -88t-26 -66.5q-15 -13 -35 -20t-34 -7zM147 -25q-35 0 -58.5 23.5
t-23.5 56.5q0 26 12.5 48t34.5 35.5t49 13.5q36 0 59 -23t23 -57q0 -25 -13 -47t-34.5 -36t-48.5 -14z" />
    <glyph glyph-name="quotedbl" unicode="&#x22;" horiz-adv-x="452" 
d="M347 446q-27 0 -36.5 14t-9.5 36q0 32 13 68t26 74.5t13 77.5q0 23 -7 43q19 11 40.5 16t38.5 5q27 0 37 -14t10 -36q0 -32 -13 -68t-26 -74t-13 -78q0 -23 7 -43q-19 -10 -40.5 -15.5t-39.5 -5.5zM130 446q-27 0 -37 14t-10 36q0 32 13 68t26 74.5t13 77.5q0 23 -7 43
q20 11 41.5 16t38.5 5q27 0 36.5 -14t9.5 -36q0 -32 -13 -68t-26 -74t-13 -78q0 -23 7 -43q-19 -10 -40 -15.5t-39 -5.5z" />
    <glyph glyph-name="numbersign" unicode="#" horiz-adv-x="851" 
d="M169 -98q-18 0 -36.5 5.5t-30.5 13.5q48 144 102.5 348.5t115.5 479.5q15 69 71 69q18 0 36.5 -5t30.5 -14q-48 -143 -102 -348t-116 -480q-15 -69 -71 -69zM466 -98q-18 0 -36.5 5.5t-30.5 13.5q48 144 102.5 348.5t115.5 479.5q15 69 71 69q18 0 36.5 -5t30.5 -14
q-48 -143 -102 -348t-116 -480q-15 -69 -71 -69zM160 162q-73 0 -98.5 12t-25.5 44q0 31 21 60q20 -4 45.5 -6.5t54.5 -4.5t60 -2q70 0 144.5 7t152 13.5t156.5 6.5q73 0 98 -11.5t25 -43.5q0 -34 -19 -61q-31 7 -72.5 10t-86.5 3q-70 0 -145 -6.5t-152.5 -13.5t-157.5 -7z
M208 462q-73 0 -98.5 12t-25.5 44q0 31 21 60q20 -4 45.5 -6.5t54.5 -4.5t60 -2q70 0 144.5 7t152 13.5t156.5 6.5q73 0 98 -11.5t25 -43.5q0 -34 -19 -61q-31 7 -72.5 10t-86.5 3q-70 0 -145 -6.5t-152.5 -13.5t-157.5 -7z" />
    <glyph glyph-name="dollar" unicode="$" horiz-adv-x="684" 
d="M307 -24q-78 0 -133 15.5t-83.5 43t-28.5 66.5q0 24 11.5 46t31.5 37q31 -57 81.5 -89.5t113.5 -32.5q66 0 111 24.5t45 74.5q0 30 -25.5 50t-65.5 36t-85 33t-85 41.5t-65.5 62t-25.5 93.5q0 52 25.5 93.5t71.5 71t108 45t134 15.5q64 0 112 -13.5t75 -37.5t27 -55
q0 -45 -30 -68.5t-73 -23.5t-75 27t-50 78q-78 -10 -124 -40.5t-46 -74.5q0 -29 25 -48.5t65 -34.5t85 -32t85 -40.5t65 -60t25 -91.5q0 -47 -23 -85.5t-63.5 -66.5t-96 -43.5t-119.5 -15.5zM267 -194q-17 0 -36 4t-31 12q11 41 23 87t23 98l109 5q-6 -33 -11.5 -66.5
t-11.5 -67.5q-13 -72 -65 -72zM360 619q11 47 22.5 96.5t23.5 101.5q15 69 69 69q18 0 36 -5t30 -14q-18 -53 -36.5 -115.5t-38.5 -132.5h-106z" />
    <glyph glyph-name="percent" unicode="%" horiz-adv-x="1108" 
d="M262 272q-85 0 -135.5 52t-50.5 140q0 73 32.5 127.5t90.5 85t133 30.5q13 0 28 -2.5t25 -6.5q3 -3 4.5 -10.5t2.5 -18.5q49 -11 74 -50.5t25 -103.5q0 -68 -30.5 -123.5t-82 -87.5t-116.5 -32zM267 356q29 0 52 20t36.5 54.5t13.5 78.5q0 95 -82 95q-10 0 -19.5 -1.5
t-19.5 -5.5q-23 -25 -36 -65.5t-13 -76.5q0 -45 18.5 -72t49.5 -27zM393 -40q-17 0 -34.5 5.5t-28.5 13.5q48 90 103 200.5t117 246t130 301.5q28 69 84 69q17 0 34.5 -5t28.5 -14q-71 -129 -157 -314t-193 -434q-29 -69 -84 -69zM815 -24q-85 0 -135 52t-50 141
q0 72 32 126.5t90 85t134 30.5q12 0 27.5 -2.5t25.5 -6.5q3 -3 4 -10.5t2 -18.5q50 -11 75 -50t25 -103q0 -69 -30.5 -124t-82 -87.5t-117.5 -32.5zM820 60q30 0 52.5 20t36 54.5t13.5 78.5q0 95 -82 95q-9 0 -19 -1.5t-20 -5.5q-23 -25 -36 -65t-13 -76q0 -46 18.5 -73
t49.5 -27z" />
    <glyph glyph-name="ampersand" unicode="&#x26;" horiz-adv-x="760" 
d="M363 318q-75 0 -133 25.5t-90.5 71.5t-32.5 105q0 56 24 102.5t69 81t106.5 53t134.5 18.5q82 0 132.5 -30.5t50.5 -78.5q0 -38 -26 -61.5t-72 -23.5q-40 0 -70.5 27.5t-45.5 73.5q-74 -15 -115.5 -56.5t-41.5 -99.5q0 -35 17 -61.5t48 -42.5t70 -16q73 0 128 13t99 26
t82 13q64 0 64 -45q0 -17 -5.5 -36t-15.5 -37q-24 3 -41 4.5t-32 1.5q-35 0 -86 -7t-108 -14t-110 -7zM246 -92q-61 0 -107 22.5t-71.5 63t-25.5 95.5q0 56 23.5 108t67.5 96.5t103 75.5l84 -5q-65 -50 -97.5 -104t-32.5 -112q0 -61 29.5 -93t86.5 -32q48 0 91.5 24
t77.5 67.5t55 103t24 132.5l69 6q3 -99 -23 -180.5t-76 -141.5t-121 -93t-157 -33z" />
    <glyph glyph-name="quotesingle" unicode="'" horiz-adv-x="235" 
d="M130 446q-27 0 -37 14t-10 36q0 32 13 68t26 74.5t13 77.5q0 23 -7 43q20 11 41.5 16t38.5 5q27 0 36.5 -14t9.5 -36q0 -32 -13 -68t-26 -74t-13 -78q0 -23 7 -43q-19 -10 -40 -15.5t-39 -5.5z" />
    <glyph glyph-name="parenleft" unicode="(" horiz-adv-x="415" 
d="M233 -156q-65 0 -101.5 90.5t-36.5 256.5q0 85 14.5 171.5t39.5 165t56.5 140t67 97.5t68.5 36q20 0 36 -6.5t31 -23.5q-39 -37 -73 -96t-59.5 -132.5t-39.5 -153.5t-14 -158q0 -118 26.5 -201.5t83.5 -145.5q-22 -19 -47.5 -29.5t-51.5 -10.5z" />
    <glyph glyph-name="parenright" unicode=")" horiz-adv-x="415" 
d="M182 801q65 0 101.5 -90.5t36.5 -256.5q0 -85 -14.5 -171.5t-39.5 -165t-56.5 -140t-67 -97.5t-68.5 -36q-20 0 -36 6.5t-31 23.5q39 37 73 96t59.5 132.5t39.5 153.5t14 158q0 118 -26.5 201.5t-83.5 145.5q22 19 47.5 29.5t51.5 10.5z" />
    <glyph glyph-name="asterisk" unicode="*" horiz-adv-x="592" 
d="M397 300q-20 0 -38 24t-31 70.5t-19 112.5l-80 -154q-29 5 -56 15.5t-44 24.5t-17 28q0 21 19.5 44t58 47.5t95.5 47.5l-172 29q-3 10 -4 22.5t-1 23.5q0 40 11 64t31 24q31 0 62.5 -19t61 -48t53.5 -57l-28 173q24 12 49.5 20t44.5 8q29 0 39.5 -10.5t10.5 -38.5
q0 -20 -5.5 -45t-19 -58t-40.5 -77l155 81q17 -15 30.5 -35t22 -39t8.5 -34q0 -20 -24 -31t-63 -11h-36t-44 3t-60 11l123 -124q-11 -24 -27.5 -45t-34 -34t-31.5 -13z" />
    <glyph glyph-name="plus" unicode="+" horiz-adv-x="713" 
d="M311 131q-24 0 -31.5 15.5t-0.5 55.5l62 391q56 21 89 21q25 0 31.5 -15.5t0.5 -55.5l-62 -391q-27 -10 -49.5 -15.5t-39.5 -5.5zM200 308q-41 0 -56 10t-15 34q0 16 5.5 38t15.5 47h390q41 0 56.5 -9t15.5 -35q0 -33 -21 -85h-391z" />
    <glyph glyph-name="comma" unicode="," horiz-adv-x="333" 
d="M50 -183l-13 36q27 14 46 36.5t30 47t11 45.5l-57 74q2 26 16 48t37.5 35t50.5 13q42 0 64.5 -28t22.5 -64q0 -58 -25.5 -106t-72 -83t-110.5 -54z" />
    <glyph glyph-name="hyphen" unicode="-" horiz-adv-x="512" 
d="M117 216q-24 0 -38.5 12t-14.5 46q0 37 21 79q13 -3 24 -4t24 -1q36 0 70 6.5t66 16t64.5 16.5t66.5 7q23 0 38 -12t15 -45q0 -17 -5 -37.5t-16 -41.5q-13 3 -24 4t-23 1q-37 0 -70.5 -7t-66 -16.5t-64.5 -16.5t-67 -7z" />
    <glyph glyph-name="period" unicode="." horiz-adv-x="288" 
d="M137 -25q-35 0 -58.5 23.5t-23.5 56.5q0 26 12.5 48t34 35.5t49.5 13.5q36 0 59 -23t23 -57q0 -25 -13 -47t-34.5 -36t-48.5 -14z" />
    <glyph glyph-name="slash" unicode="/" horiz-adv-x="398" 
d="M88 -80q-18 0 -36.5 5.5t-30.5 13.5q48 144 102.5 348.5t115.5 479.5q15 69 71 69q18 0 36.5 -5t30.5 -14q-48 -143 -102 -348t-116 -480q-15 -69 -71 -69z" />
    <glyph glyph-name="zero" unicode="0" horiz-adv-x="729" 
d="M341 -25q-83 0 -143.5 38.5t-93 109t-32.5 165.5q0 123 48.5 216t136 144.5t201.5 51.5q19 0 42.5 -4.5t38.5 -10.5q5 -5 7.5 -17t3.5 -31q67 -18 102.5 -82.5t35.5 -166.5q0 -88 -26.5 -163t-74 -131t-110.5 -87.5t-136 -31.5zM350 71q54 0 96.5 39.5t66.5 108.5t24 158
q0 102 -37.5 152t-115.5 50q-17 0 -35 -4t-38 -11q-29 -40 -48.5 -89t-30 -100.5t-10.5 -100.5q0 -93 35 -148t93 -55z" />
    <glyph glyph-name="one" unicode="1" horiz-adv-x="492" 
d="M267 -25q-44 0 -66 29t-22 86q0 36 3.5 75t10.5 86.5t18.5 107t27.5 136.5q-55 0 -90 25.5t-42 71.5q57 15 97.5 33.5t70.5 35.5t53.5 28t47.5 11q50 0 50 -56q0 -22 -9.5 -65.5t-22.5 -101t-26.5 -122t-22.5 -129.5t-9 -123q0 -29 5.5 -55t14.5 -47q-47 -26 -89 -26z
" />
    <glyph glyph-name="two" unicode="2" horiz-adv-x="673" 
d="M225 66l-122 43q116 71 190.5 134.5t110.5 120t36 105.5q0 57 -27 86.5t-81 29.5q-35 0 -65 -19t-49 -53.5t-25 -80.5q-40 5 -62 28t-22 61q0 54 32 94t90 62.5t134 22.5q68 0 118 -24.5t78 -68t28 -99.5q0 -65 -36 -131t-115.5 -141t-212.5 -170zM480 -30q-39 0 -77 6.5
t-82.5 20t-104.5 34.5q-31 -29 -56 -41t-54 -12q-31 0 -52.5 21t-21.5 53q0 47 38 77.5t95 30.5q29 0 69.5 -10.5t86 -24t87 -24t72.5 -10.5l121 61q14 -25 19.5 -43t5.5 -35q0 -29 -19.5 -53t-52.5 -37.5t-74 -13.5z" />
    <glyph glyph-name="three" unicode="3" horiz-adv-x="663" 
d="M203 -156q-90 0 -135 25t-45 74q0 33 26.5 54.5t64.5 21.5q33 0 64 -22.5t51 -60.5q55 0 99 21.5t70 57.5t26 79q0 28 -10 52.5t-26.5 43.5t-36.5 26q-30 -19 -58.5 -29.5t-52.5 -10.5q-33 0 -53.5 18t-20.5 46q0 37 33.5 58.5t89.5 21.5q84 0 148.5 -27.5t100.5 -76
t36 -113.5q0 -56 -27.5 -103.5t-78 -82.5t-118 -54t-147.5 -19zM400 245l-136 35q54 18 93 46t59.5 64.5t20.5 78.5q0 58 -27.5 87t-81.5 29q-38 0 -70 -19.5t-52.5 -54t-26.5 -79.5q-39 5 -61.5 28t-22.5 61q0 54 33.5 94t93.5 62.5t140 22.5q67 0 117.5 -24t79 -67
t28.5 -100q0 -71 -47.5 -138.5t-139.5 -125.5z" />
    <glyph glyph-name="four" unicode="4" horiz-adv-x="688" 
d="M199 0q-82 0 -121.5 24.5t-39.5 73.5q0 28 15.5 66t40.5 83l52.5 94.5t52 100t40.5 98.5t16 90q0 13 -1.5 25t-6.5 26q21 10 42.5 14.5t39.5 4.5q97 0 97 -109q0 -90 -69 -210t-210 -276h299l-29 -86q-28 -5 -66 -9.5t-77.5 -7t-74.5 -2.5zM492 -170q-48 0 -74.5 29.5
t-26.5 83.5q0 26 8 68t22.5 95.5t33.5 113t42 121.5q13 10 30.5 18.5t36.5 13t35 4.5q22 0 30.5 -6t8.5 -22q0 -19 -10.5 -59.5t-24 -94t-24 -114.5t-10.5 -122q0 -60 24 -101q-30 -15 -52.5 -21.5t-48.5 -6.5z" />
    <glyph glyph-name="five" unicode="5" horiz-adv-x="621" 
d="M202 -155q-88 0 -131.5 24.5t-43.5 73.5q0 34 27 55.5t66 21.5q33 0 63 -22.5t50 -59.5q52 0 95 21t68.5 56.5t25.5 79.5q0 32 -17 66t-56.5 57t-106.5 23q-28 0 -51.5 -5t-33.5 -5q-11 0 -17 7t-6 16l58 337l124 -45l-37 -220q88 0 154 -27.5t103 -77.5t37 -115
q0 -56 -27.5 -104t-78 -83.5t-118 -54.5t-147.5 -19zM380 522q-118 0 -176.5 27.5t-58.5 78.5q0 35 20 54t58 19q30 0 56 -19.5t41 -53.5q36 2 81 13t93.5 28t90.5 38q7 -14 10.5 -32.5t3.5 -36.5q0 -42 -26 -67.5t-75.5 -37t-117.5 -11.5z" />
    <glyph glyph-name="six" unicode="6" horiz-adv-x="712" 
d="M329 -25q-70 0 -125 30.5t-86.5 91.5t-31.5 153t28 177.5t75 158t104.5 127t118 84.5t114.5 30q43 0 66 -16t39 -55q-48 -16 -99.5 -41.5t-101 -65t-93.5 -97.5t-80 -140h8q44 56 91.5 75t92.5 19q67 0 113 -29t69.5 -80.5t23.5 -115.5q0 -65 -26.5 -121t-72 -97.5
t-104.5 -64.5t-123 -23zM351 70q24 0 50.5 12.5t49.5 37.5t38 64t15 91q0 34 -11 66t-38.5 53t-76.5 21q-29 0 -62 -21.5t-56 -64.5t-23 -107q0 -38 10.5 -73t35.5 -57t68 -22z" />
    <glyph glyph-name="seven" unicode="7" horiz-adv-x="577" 
d="M249 -121q-45 0 -72 24t-27 80q0 71 30 165.5t84 201t124 214.5l151 37q-38 -58 -76 -133.5t-70 -160.5t-51.5 -170t-19.5 -163q0 -22 2 -38.5t10 -33.5q-22 -13 -43.5 -18t-41.5 -5zM346 526q-100 0 -161.5 11t-89.5 35.5t-28 64.5q0 19 4.5 38t12.5 35q37 -16 80 -29.5
t87.5 -24t85.5 -17t75 -8.5q18 34 46 53.5t59 19.5q37 0 57 -17.5t20 -50.5q0 -55 -62 -82.5t-186 -27.5z" />
    <glyph glyph-name="eight" unicode="8" horiz-adv-x="665" 
d="M318 -26q-115 0 -183 49.5t-68 136.5q0 28 9 57.5t33.5 60t70.5 62t120 63.5t113.5 65t53.5 66t14 64q0 43 -26.5 67.5t-72.5 24.5q-48 0 -81.5 -23.5t-33.5 -70.5q0 -37 25.5 -67.5t65.5 -58t85 -56.5t85 -61.5t65.5 -72t25.5 -89.5q0 -64 -38 -113t-106 -76.5
t-157 -27.5zM330 65q38 0 68.5 12.5t49.5 38t19 61.5q0 32 -25 60.5t-65 57t-85 59t-85 64.5t-65.5 74.5t-25.5 89.5q0 59 33 104t93.5 69.5t140.5 24.5q106 0 167 -49t61 -132q0 -68 -58 -130.5t-169 -110.5q-54 -23 -96.5 -54t-66.5 -67t-24 -77q0 -44 38 -69.5t95 -25.5z
" />
    <glyph glyph-name="nine" unicode="9" horiz-adv-x="692" 
d="M196 -152q-43 0 -66 16t-39 55q49 16 100.5 41.5t101 65.5t93.5 98t78 139h-7q-44 -56 -91.5 -75t-92.5 -19q-67 0 -113 29.5t-69.5 81t-23.5 114.5q0 66 26 121.5t72 97t104.5 64.5t123.5 23q71 0 125.5 -30.5t86 -91.5t31.5 -153t-28 -177.5t-75 -158t-105 -127
t-118 -84.5t-114 -30zM344 260q29 0 61.5 21.5t56 64.5t23.5 107q0 38 -10.5 73t-35.5 57t-68 22q-24 0 -51 -12.5t-50 -37.5t-38 -63.5t-15 -91.5q0 -34 11.5 -66t39 -53t76.5 -21z" />
    <glyph glyph-name="colon" unicode=":" horiz-adv-x="333" 
d="M137 -25q-35 0 -58.5 23.5t-23.5 56.5q0 26 12.5 48t34 35.5t49.5 13.5q36 0 59 -23t23 -57q0 -25 -13 -47t-34.5 -36t-48.5 -14zM188 382q-35 0 -58.5 23.5t-23.5 56.5q0 26 12.5 48t34 35.5t49.5 13.5q36 0 59 -23t23 -57q0 -25 -13 -47t-34.5 -36t-48.5 -14z" />
    <glyph glyph-name="semicolon" unicode=";" horiz-adv-x="333" 
d="M50 -183l-13 36q27 14 46 36.5t30 47t11 45.5l-57 74q2 26 16 48t37.5 35t50.5 13q42 0 64.5 -28t22.5 -64q0 -58 -25.5 -106t-72 -83t-110.5 -54zM188 382q-35 0 -58.5 23.5t-23.5 56.5q0 26 12.5 48t34 35.5t49.5 13.5q36 0 59 -23t23 -57q0 -25 -13 -47t-34.5 -36
t-48.5 -14z" />
    <glyph glyph-name="less" unicode="&#x3c;" horiz-adv-x="756" 
d="M189 439l382 -191q26 -14 39 -25.5t13 -24.5t-9.5 -28.5t-24 -32t-27.5 -29.5l-383 192q-26 13 -38.5 24.5t-12.5 25.5q0 12 9.5 27.5t23.5 32t28 29.5zM624 629q19 0 29.5 -17t15 -42.5t6.5 -52.5l-386 -175q-16 -7 -27.5 -11t-20.5 -4q-22 0 -35 26q-8 15 -12 36.5
t-5 49.5l386 175q15 7 27.5 11t21.5 4z" />
    <glyph glyph-name="equal" unicode="=" horiz-adv-x="714" 
d="M179 176q-41 0 -56 10t-15 34q0 16 5.5 38t15.5 47h390q41 0 56.5 -9t15.5 -35q0 -33 -21 -85h-391zM222 440q-41 0 -56 10t-15 34q0 16 5.5 38t15.5 47h390q41 0 56.5 -9t15.5 -35q0 -33 -21 -85h-391z" />
    <glyph glyph-name="greater" unicode="&#x3e;" horiz-adv-x="756" 
d="M593 298l-382 191q-26 14 -39 25.5t-13 24.5t9.5 28.5t24 32t27.5 29.5l383 -192q26 -13 38.5 -24.5t12.5 -25.5q0 -12 -9.5 -27.5t-23.5 -32t-28 -29.5zM158 108q-19 0 -29.5 17t-15 42.5t-6.5 52.5l386 175q16 7 27.5 11t20.5 4q22 0 35 -26q8 -15 12 -36.5t5 -49.5
l-386 -175q-15 -7 -27.5 -11t-21.5 -4z" />
    <glyph glyph-name="question" unicode="?" horiz-adv-x="596" 
d="M273 248q-40 0 -62.5 22.5t-22.5 56.5q42 4 78.5 20t64.5 43t43.5 62.5t15.5 77.5q0 50 -27.5 83.5t-80.5 33.5q-32 0 -64 -15.5t-57.5 -49t-36.5 -87.5q-27 0 -44.5 11t-25 29t-7.5 40q0 27 13.5 61.5t43.5 66t80 52t121 20.5q90 0 143 -34t77 -87t24 -112
q0 -64 -23.5 -118.5t-63 -93.5t-89 -60.5t-100.5 -21.5zM195 -25q-35 0 -58.5 23.5t-23.5 56.5q0 26 12.5 48t34.5 35.5t49 13.5q36 0 59 -23t23 -57q0 -25 -12.5 -47t-34.5 -36t-49 -14z" />
    <glyph glyph-name="at" unicode="@" horiz-adv-x="1080" 
d="M508 -235q-137 0 -237.5 53t-154.5 150.5t-54 228.5q0 127 44.5 236.5t124.5 192t187 128.5t232 46q106 0 181.5 -26t123.5 -71t70.5 -102t22.5 -119q0 -70 -25 -139.5t-72 -126.5t-112.5 -91.5t-146.5 -34.5l60 81q46 13 85 44t67.5 73t44 90t15.5 96q0 49 -16.5 94.5
t-54 81t-99 57t-149.5 21.5q-101 0 -189 -38t-153.5 -104t-102.5 -154t-37 -189q0 -173 97.5 -265.5t282.5 -92.5q112 0 208.5 40.5t172.5 118.5q8 -15 11.5 -31t3.5 -31q0 -48 -36.5 -88t-98.5 -68.5t-138.5 -44.5t-157.5 -16zM467 90q-60 0 -95.5 44t-35.5 117
q0 82 38.5 144t103 97t142.5 35q31 0 61 -6q4 -9 6 -22.5t2 -29.5q-75 0 -125 -25.5t-75 -68.5t-25 -96q0 -39 17 -60t46 -21q57 0 91 66.5t49 204.5q33 41 83 41q22 0 35.5 -13.5t13.5 -37.5q0 -19 -7 -50.5t-16.5 -70.5t-16.5 -80t-7 -78q0 -19 5 -35t15 -24
q-18 -15 -38.5 -23t-41.5 -8q-34 0 -52.5 19.5t-18.5 55.5q0 6 1 13t2 15l-8 3q-23 -50 -62.5 -78t-86.5 -28z" />
    <glyph glyph-name="A" unicode="A" horiz-adv-x="716" 
d="M105 -26q-68 0 -68 88q0 37 15.5 89t47 122t81 159.5t116.5 199.5l-32 55q38 23 69.5 33t68.5 10q46 0 60 -22q31 22 62 22q38 0 56 -24.5t18 -78.5q0 -51 -1 -109.5t-0.5 -120t3.5 -120.5t10 -111.5t21 -94t35 -65.5q-40 -32 -91 -32q-37 0 -61.5 18.5t-39.5 60.5
t-21.5 112.5t-6.5 174.5q0 95 0.5 165t2.5 116h-12q-84 -127 -139.5 -228.5t-83 -176.5t-27.5 -121q0 -55 16 -89q-20 -15 -45.5 -23.5t-53.5 -8.5zM154 179l18 86h346l-16 -86h-348z" />
    <glyph glyph-name="B" unicode="B" horiz-adv-x="756" 
d="M381 -25q-143 0 -215.5 34t-72.5 100q0 27 3.5 65t11.5 95t21.5 137.5t32.5 192.5l-37 76q40 24 77.5 37.5t67.5 13.5q49 0 54 -54q104 54 199 54q80 0 126 -40.5t46 -111.5q0 -66 -43 -119t-124 -87q80 -15 125 -62t45 -117q0 -63 -40 -111.5t-111.5 -75.5t-165.5 -27z
M379 61q75 0 119 35.5t44 94.5q0 58 -39 90t-111 32q-32 0 -68 -5.5t-73 -15.5l10 77q85 4 147.5 26.5t96.5 60.5t34 87q0 83 -97 83q-32 0 -63 -6t-63 -20q-14 -66 -25.5 -132t-21 -131.5t-16.5 -128.5t-12 -122q29 -11 66 -18t72 -7z" />
    <glyph glyph-name="C" unicode="C" horiz-adv-x="678" 
d="M336 -25q-135 0 -212 76.5t-77 213.5q0 100 33.5 184t93 146t139.5 96.5t172 34.5q79 0 124.5 -26.5t45.5 -72.5q0 -38 -29 -63.5t-72 -25.5q-42 0 -80 20t-62 69q-60 -25 -108 -79t-75 -128.5t-27 -160.5q0 -95 36 -149t100 -54q50 0 88.5 25.5t61.5 69t26 97.5
q46 0 72 -18t26 -59q0 -54 -37.5 -98.5t-100 -71t-138.5 -26.5z" />
    <glyph glyph-name="D" unicode="D" horiz-adv-x="837" 
d="M328 -25q-115 0 -175 34.5t-60 101.5q0 24 4 61.5t12.5 94.5t22 139t33.5 193l-38 76q41 24 78.5 37.5t65.5 13.5q55 0 55 -66q0 -10 -4.5 -42.5t-11.5 -79t-15.5 -101t-17.5 -110.5t-16.5 -105.5t-11.5 -88t-4 -56.5q24 -9 48 -12.5t51 -3.5q81 0 142 41.5t96 115
t35 167.5q0 119 -49.5 182.5t-142.5 63.5q-38 0 -65.5 -7.5t-52.5 -21.5t-57 -34l-13 60q39 30 73.5 51.5t75.5 34t97 12.5q88 0 153 -39t101 -109.5t36 -166.5q0 -97 -32.5 -176.5t-91.5 -137.5t-141 -90t-180 -32z" />
    <glyph glyph-name="E" unicode="E" horiz-adv-x="595" 
d="M180 -26q-45 0 -66 23t-21 74q0 27 3.5 65.5t12 97.5t22.5 148t35 217l-38 76q40 24 77.5 37.5t68.5 13.5q54 0 54 -66q0 -10 -4.5 -40.5t-11.5 -74t-16 -95.5t-18 -105t-16.5 -100.5t-12 -84t-4.5 -55.5q0 -31 10.5 -52.5t32.5 -38.5q-52 -40 -108 -40zM414 -25
q-60 0 -117.5 14.5t-104.5 42.5l23 62h220q33 4 62.5 11t57.5 19q6 -15 8 -26t2 -25q0 -49 -37 -73.5t-114 -24.5zM357 271q-25 0 -51 4t-62 13l16 83q27 -4 54.5 -6t57.5 -2l79 19q1 -7 1.5 -15.5t0.5 -15.5q0 -38 -25 -59t-71 -21zM468 555q-35 0 -71.5 4t-72 13t-68.5 21
l20 83q67 0 119 6t102 15.5t110 22.5q4 -14 5 -26t1 -23q0 -39 -19.5 -65t-52 -38.5t-73.5 -12.5z" />
    <glyph glyph-name="F" unicode="F" horiz-adv-x="548" 
d="M180 -26q-45 0 -66 23t-21 74q0 27 3.5 65.5t12 97.5t22.5 148t35 217l-38 76q40 24 77.5 37.5t68.5 13.5q54 0 54 -66q0 -10 -4.5 -40.5t-11.5 -74t-16 -95.5t-18 -105t-16.5 -100.5t-12 -84t-4.5 -55.5q0 -34 6.5 -58t19.5 -41q-43 -32 -91 -32zM357 271q-25 0 -51 4
t-62 13l16 83q27 -4 54.5 -6t57.5 -2l79 19q1 -7 1.5 -15.5t0.5 -15.5q0 -38 -25 -59t-71 -21zM458 555q-35 0 -71.5 4t-72 13t-68.5 21l20 83q67 0 119 6t102 15.5t110 22.5q4 -14 5 -26t1 -23q0 -39 -19.5 -65t-52 -38.5t-73.5 -12.5z" />
    <glyph glyph-name="G" unicode="G" horiz-adv-x="734" 
d="M345 -30q-140 0 -219 78t-79 217q0 100 34.5 184t97 146t144.5 96.5t177 34.5q82 0 128 -26.5t46 -72.5q0 -38 -29.5 -63.5t-74.5 -25.5q-42 0 -81 20t-64 69q-64 -25 -114.5 -79t-79.5 -128.5t-29 -160.5q0 -95 38 -149t105 -54q55 0 97 28t66.5 76t27.5 107
q14 0 22.5 -18.5t8.5 -60.5q0 -60 -30 -109t-80.5 -79t-111.5 -30zM524 -185q-43 0 -63 19t-20 59q0 18 5 52t17 86l94 176l-21 60l-69 55q33 24 73.5 39.5t74.5 15.5t48 -12t14 -42q0 -9 -9 -42.5t-22 -81t-27 -101t-23 -105t-9 -91.5q0 -20 5.5 -34.5t16.5 -23.5
q-20 -14 -41 -21.5t-44 -7.5z" />
    <glyph glyph-name="H" unicode="H" horiz-adv-x="818" 
d="M623 -26q-45 0 -66 23t-21 74q0 27 3.5 65t12 97.5t22.5 148.5t36 217l-39 76q40 24 77.5 37.5t68.5 13.5q54 0 54 -66q0 -10 -4.5 -40.5t-11.5 -74t-16 -95.5t-18 -105t-16.5 -100.5t-11.5 -84t-4 -55.5q0 -34 6 -58t19 -41q-44 -32 -91 -32zM180 -26q-45 0 -66 23
t-21 74q0 27 3.5 65t12 97.5t22.5 148.5t35 217l-38 76q40 24 77.5 37.5t68.5 13.5q54 0 54 -66q0 -10 -4.5 -40.5t-11.5 -74t-16 -95.5t-18 -105t-16.5 -100.5t-12 -84t-4.5 -55.5q0 -34 6.5 -58t19.5 -41q-44 -32 -91 -32zM209 284l18 85h396l-16 -85h-398z" />
    <glyph glyph-name="I" unicode="I" horiz-adv-x="375" 
d="M180 -25q-45 0 -66 23t-21 74q0 27 3.5 65t12 97.5t22.5 148.5t35 216l-38 76q40 24 77.5 37.5t68.5 13.5q54 0 54 -66q0 -10 -4.5 -40t-11.5 -74t-16 -95.5t-18 -104.5t-16.5 -100.5t-12 -84t-4.5 -55.5q0 -34 6.5 -58t19.5 -41q-44 -32 -91 -32z" />
    <glyph glyph-name="J" unicode="J" horiz-adv-x="561" 
d="M168 -25q-43 0 -79 13t-58.5 37t-22.5 58q0 33 23.5 56t62.5 23q33 0 58 -18t42 -49t25 -70l-29 29q29 5 50 15.5t36 33.5t26 64.5t20 105.5l45 326l160 61l-54 -387q-13 -83 -38.5 -140.5t-63.5 -92t-89 -50t-114 -15.5zM350 538q-142 0 -202.5 27.5t-60.5 90.5
q0 19 4 39.5t11 36.5q41 -21 90.5 -39t97.5 -30t84 -14q15 38 40.5 57.5t59.5 19.5q38 0 59 -19.5t21 -56.5q0 -55 -50.5 -83.5t-153.5 -28.5z" />
    <glyph glyph-name="K" unicode="K" horiz-adv-x="703" 
d="M199 230l-2 70l121 90q60 44 101 80.5t66.5 68.5t37 61t11.5 58q0 10 -2 19t-6 19q44 29 91 29q35 0 56 -20t21 -55q0 -41 -28.5 -83.5t-88.5 -91t-156 -107.5zM180 -26q-45 0 -66 23t-21 74q0 28 4 67t12 98.5t22 148t35 214.5l-38 76q41 24 78 37.5t68 13.5
q54 0 54 -66q0 -10 -4.5 -40.5t-11.5 -74t-16 -95.5t-18 -105t-16.5 -100.5t-12 -84t-4.5 -55.5q0 -34 6.5 -58t19.5 -41q-44 -32 -91 -32zM585 -25q-35 0 -60 14t-47.5 50.5t-50.5 104.5l-84 198l126 87q25 -72 53 -138t57 -121.5t56.5 -95.5t51.5 -59q-9 -11 -27 -20
t-38 -14.5t-37 -5.5z" />
    <glyph glyph-name="L" unicode="L" horiz-adv-x="546" 
d="M180 -26q-45 0 -66 23t-21 74q0 28 3.5 66t11.5 97.5t22.5 148t35.5 216.5l-38 76q40 24 77.5 37.5t68.5 13.5q54 0 54 -66q0 -10 -4.5 -40.5t-11.5 -74t-16 -95.5t-18 -105t-16.5 -100.5t-12 -84t-4.5 -55.5q0 -31 10.5 -52.5t32.5 -38.5q-53 -40 -108 -40zM376 -25
q-51 0 -101.5 11.5t-93.5 34.5l39 73h169q33 4 62.5 11t58.5 19q5 -15 7 -26t2 -25q0 -49 -35.5 -73.5t-107.5 -24.5z" />
    <glyph glyph-name="M" unicode="M" horiz-adv-x="1028" 
d="M180 -26q-46 0 -66.5 24.5t-20.5 76.5q0 27 4 66t12 99t22 148t34 211l-38 76q37 23 74.5 37t69.5 14q37 0 63.5 -11.5t47.5 -43t38.5 -90t36.5 -151t42 -227.5h11q19 72 49.5 146t70.5 141t87 120t98.5 83.5t104.5 30.5q22 0 35 -8t19.5 -23t6.5 -37q0 -9 -4.5 -39
t-12 -74t-15.5 -95t-17 -103t-16.5 -99.5t-11.5 -83.5t-4 -55q0 -34 6.5 -59t18.5 -44q-46 -31 -91 -31t-65 24.5t-20 76.5q0 27 3.5 65t11 93.5t19.5 135t31 189.5h-7q-39 -37 -71 -86t-58 -103t-45.5 -107.5t-31.5 -100.5t-17 -81q-21 -18 -45 -28t-47 -10q-24 0 -42 10
t-33 39.5t-29 86.5t-31 149.5t-40 230.5h-7q-8 -49 -17.5 -102.5t-18 -106.5t-15 -100.5t-10.5 -83.5t-4 -56q0 -35 6 -59.5t20 -42.5q-23 -16 -45.5 -24t-45.5 -8z" />
    <glyph glyph-name="N" unicode="N" horiz-adv-x="850" 
d="M655 -26q-37 0 -66 8.5t-53.5 31t-47 66t-46.5 111t-52 166t-63 232.5h-53l-1 137q37 0 65.5 -12t53 -45.5t49.5 -97t55.5 -165t69.5 -251.5l87 -1zM180 -26q-45 0 -66 23t-21 74q0 27 3.5 65t12 97.5t22.5 148.5t35 217l-38 76q40 24 77.5 37.5t68.5 13.5q54 0 54 -66
q0 -10 -4.5 -40.5t-11.5 -74t-16 -95.5t-18 -105t-16.5 -100.5t-12 -84t-4.5 -55.5q0 -34 6.5 -58t19.5 -41q-44 -32 -91 -32zM655 -26q-46 0 -66.5 23t-20.5 75q0 27 3 65t11.5 97t23 148t36.5 218l-37 75q39 25 76 38t68 13q54 0 54 -65q0 -10 -4.5 -40.5t-12 -74.5
t-16 -96t-17.5 -104.5t-16.5 -100.5t-12 -84.5t-4.5 -55.5q0 -34 6.5 -57.5t19.5 -42.5q-23 -16 -45 -23.5t-46 -7.5z" />
    <glyph glyph-name="O" unicode="O" horiz-adv-x="753" 
d="M339 -25q-88 0 -154 38.5t-102 107t-36 161.5q0 102 30.5 183.5t84 139.5t122.5 89t145 31q56 0 81 -17t25 -54q0 -12 -1.5 -22t-7.5 -23q-11 3 -28.5 5.5t-30.5 2.5q-75 0 -135 -42.5t-94.5 -117.5t-34.5 -173q0 -114 46.5 -171t122.5 -57q40 0 80 19t75 54t60 84.5
t33 110.5q-67 30 -92 75.5t-25 95.5q0 34 14 61t38.5 43t54.5 16q57 0 88 -48t31 -131q0 -98 -29 -182t-81.5 -146.5t-124 -97.5t-155.5 -35z" />
    <glyph glyph-name="P" unicode="P" horiz-adv-x="700" 
d="M384 205q-55 0 -97.5 14t-81.5 41l25 69q23 -17 51.5 -24.5t56.5 -7.5q61 0 105 24.5t68.5 67.5t24.5 97q0 38 -13 70.5t-42.5 52.5t-79.5 20q-37 0 -74 -17.5t-79 -48.5v60q31 29 62 51.5t71 36t96 13.5q70 0 118 -31.5t72.5 -82.5t24.5 -110q0 -55 -18.5 -108t-56 -95
t-96 -67t-137.5 -25zM180 -26q-45 0 -66 23t-21 74q0 27 3.5 65t12 97.5t22.5 148.5t35 217l-38 76q40 24 77.5 37.5t68.5 13.5q54 0 54 -66q0 -10 -4.5 -40.5t-11.5 -74t-16 -95.5t-18 -105t-16.5 -100.5t-12 -84t-4.5 -55.5q0 -34 6.5 -58t19.5 -41q-44 -32 -91 -32z" />
    <glyph glyph-name="Q" unicode="Q" horiz-adv-x="753" 
d="M545 -195q-55 0 -108.5 20t-99.5 47.5t-78 47.5q-20 -29 -47.5 -43.5t-55.5 -14.5t-45.5 18.5t-17.5 44.5q0 32 25 53.5t68 21.5q46 0 95.5 -11t104.5 -22.5t114 -11.5q46 0 87 6t81 20q3 -12 4.5 -24t1.5 -26q0 -37 -15.5 -65.5t-44 -44.5t-69.5 -16zM339 -25
q-88 0 -154 38.5t-102 107t-36 161.5q0 102 30.5 183.5t84 139.5t122.5 89t145 31q56 0 81 -17t25 -54q0 -12 -1.5 -22t-7.5 -23q-11 3 -28.5 5.5t-30.5 2.5q-75 0 -135 -42.5t-94.5 -117.5t-34.5 -173q0 -114 46.5 -171t122.5 -57q40 0 80 19t75 54t60 84.5t33 110.5
q-67 30 -92 75.5t-25 95.5q0 34 14 61t38.5 43t54.5 16q57 0 88 -48t31 -131q0 -98 -29 -182t-81.5 -146.5t-124 -97.5t-155.5 -35z" />
    <glyph glyph-name="R" unicode="R" horiz-adv-x="732" 
d="M384 243q-52 0 -90.5 12t-79.5 43l16 69q23 -17 51.5 -24.5t56.5 -7.5q61 0 105 21.5t68.5 59t24.5 85.5q0 33 -13 62.5t-42.5 47.5t-79.5 18q-37 0 -74 -17.5t-79 -48.5v60q31 29 62 51.5t71 36t96 13.5q70 0 118 -30t72.5 -77.5t24.5 -101.5q0 -49 -18.5 -97t-56 -87.5
t-96 -63.5t-137.5 -24zM180 -26q-45 0 -66 23t-21 74q0 27 3.5 65t12 97.5t22.5 148.5t35 217l-38 76q40 24 77.5 37.5t68.5 13.5q54 0 54 -66q0 -11 -6 -48t-15.5 -90t-19.5 -113t-20 -118.5t-16 -107.5t-6 -78q0 -34 6.5 -58t19.5 -41q-44 -32 -91 -32zM605 -25
q-35 0 -60 14t-48 50.5t-51 104.5l-57 135l134 55q31 -75 63 -139.5t63 -111t58 -68.5q-10 -11 -28 -20t-38 -14.5t-36 -5.5z" />
    <glyph glyph-name="S" unicode="S" horiz-adv-x="720" 
d="M321 -25q-82 0 -141 15.5t-89.5 44.5t-30.5 70q0 24 12.5 46t32.5 37q34 -59 87.5 -92.5t120.5 -33.5q75 0 124.5 25.5t49.5 78.5q0 27 -20.5 46t-55 34t-75 29t-81.5 32t-75.5 42.5t-55.5 60t-21 85.5q0 53 27 95.5t75.5 73t114.5 46.5t145 16q68 0 118.5 -13.5
t79.5 -38t29 -56.5q0 -46 -31 -70t-76 -24q-48 0 -81.5 27.5t-51.5 80.5q-89 -10 -140.5 -42.5t-51.5 -77.5q0 -27 20.5 -45t55 -32.5t75 -28.5t81.5 -31t75.5 -41t55 -58.5t20.5 -82.5t-23 -88t-66 -69t-102 -45t-131 -16z" />
    <glyph glyph-name="T" unicode="T" horiz-adv-x="581" 
d="M273 -26q-45 0 -65 24.5t-20 76.5q0 38 8.5 109.5t26.5 184.5t46 275l148 -29q-7 -47 -17.5 -106t-21 -121t-19 -118.5t-14 -99t-5.5 -62.5q0 -35 6 -59.5t19 -42.5q-45 -32 -92 -32zM507 555q-46 0 -91 7.5t-90.5 15t-93.5 8.5l-159 -29q-6 13 -9 28.5t-3 34.5
q0 52 31 73.5t84 21.5q45 0 90.5 -7.5l91 -15t93.5 -8.5l158 29q6 -12 9 -28.5t3 -34.5q0 -44 -30.5 -69.5t-83.5 -25.5z" />
    <glyph glyph-name="U" unicode="U" horiz-adv-x="815" 
d="M617 -26q-30 0 -48 14.5t-27 39.5t-9 57q0 25 4.5 51.5t10.5 51.5h-7q-30 -58 -74.5 -106t-100 -77t-119.5 -29q-42 0 -71.5 14t-47.5 38t-26.5 55.5t-8.5 65.5q0 23 3 55t11 82t21.5 126t34.5 187l-37 76q41 26 77 38.5t67 12.5q55 0 55 -66q0 -9 -6 -42.5t-15.5 -81
t-20 -100.5t-20 -103.5t-15 -89.5t-5.5 -58q0 -47 16 -73.5t63 -26.5q38 0 81.5 29.5t84 82.5t66.5 124q-4 21 -7.5 51.5t-3.5 65.5q0 39 5 80t17 78t31 66.5t46 46.5t64 17q18 0 36.5 -5t35.5 -16q-15 -53 -31.5 -127.5t-31 -158t-23.5 -164.5t-9 -147q0 -68 22 -102
q-22 -16 -43.5 -24t-44.5 -8z" />
    <glyph glyph-name="V" unicode="V" horiz-adv-x="651" 
d="M242 -30q-57 0 -90.5 23t-48 77.5t-14.5 148.5q0 73 1 143t-3 132.5t-19 113t-48 86.5q43 32 92 32q48 0 76 -34t40 -113.5t12 -217.5v-123t-0.5 -79t-1 -48t-1.5 -32h12q90 135 145 235t80.5 169.5t25.5 110.5q0 29 -5 53.5t-19 46.5q31 18 55.5 25t48.5 7q33 0 52 -24
t19 -67q0 -35 -15.5 -86t-47 -120.5t-80.5 -159t-117 -200.5l18 -41q-18 -17 -46 -30t-60 -20.5t-61 -7.5z" />
    <glyph glyph-name="W" unicode="W" horiz-adv-x="1005" 
d="M196 -30q-56 0 -77 42.5t-21 122.5q0 86 1 168t-3.5 155.5t-22 133.5t-53.5 102q44 32 95 32t79.5 -34t41 -113.5t12.5 -217.5q0 -74 -0.5 -123t-0.5 -79t-0.5 -48t-0.5 -32h13q79 95 129 180t77.5 151.5t37.5 107.5t10 47q0 14 -7 31.5t-15 33.5t-12 26q21 19 37 26.5
t33 7.5q36 0 58 -23.5t22 -67.5q0 -32 -9.5 -69t-28 -79.5t-45.5 -92.5t-62 -110q-47 -82 -85 -136t-70.5 -85t-64.5 -44t-68 -13zM626 -30q-49 0 -75.5 22t-36.5 62.5t-15 95.5l-38 506q16 17 39 25.5t49 8.5l33 -72l22 -539h12q84 135 136 235t76 169.5t24 110.5
q0 29 -6 53.5t-19 46.5q30 18 54.5 25t50.5 7q34 0 53 -24t19 -67q0 -35 -15 -86t-45.5 -120.5t-77.5 -159t-111 -200.5l20 -41q-15 -17 -40 -30t-53.5 -20.5t-55.5 -7.5z" />
    <glyph glyph-name="X" unicode="X" horiz-adv-x="778" 
d="M604 -30q-31 0 -56.5 13t-49 43t-51.5 82l-208 388q-23 44 -47 74t-51 49t-62 31q23 37 56 56.5t71 19.5q32 0 57 -13t49 -43.5t52 -82.5l208 -387q24 -44 47 -74t50 -48.5t61 -32.5q-22 -36 -55 -55.5t-71 -19.5zM108 -30q-35 0 -55 23.5t-20 61.5q0 28 16 57.5
t55.5 67.5t110.5 91l147 111l44 -82q-113 -76 -162.5 -139.5t-49.5 -110.5q0 -14 3 -25.5t7 -22.5q-18 -13 -44 -22.5t-52 -9.5zM436 314l-45 82q114 78 163.5 140.5t49.5 109.5q0 28 -9 48q17 13 43 22.5t52 9.5q34 0 54.5 -23.5t20.5 -62.5q0 -25 -15.5 -55t-54.5 -68.5
t-110 -90.5z" />
    <glyph glyph-name="Y" unicode="Y" horiz-adv-x="808" 
d="M99 -242q-80 0 -118 29t-38 76q0 20 9.5 40.5t20.5 33.5q12 -16 30 -31t47 -25t72 -10q39 0 90 17.5t106.5 54.5t107.5 95t94.5 138t67.5 184t25 234q0 29 -5 53.5t-18 46.5q30 18 55 25t48 7q34 0 52.5 -24t18.5 -67q0 -76 -15.5 -160t-44.5 -169t-72 -165t-99 -149.5
t-123 -122t-145 -82t-166 -29.5zM385 -30q-66 0 -107.5 24.5t-64 66.5t-32.5 96.5t-12 115.5t-3 122.5t-6 118.5t-20 103.5t-46 76.5q43 32 90 32q52 0 80 -29.5t40 -79.5t14.5 -111.5t1.5 -128t2.5 -128t17 -111.5t43.5 -79.5t85 -29.5z" />
    <glyph glyph-name="Z" unicode="Z" horiz-adv-x="673" 
d="M245 92l-137 26l314 451l176 30zM476 -30q-40 0 -78 6t-83.5 19.5t-107.5 35.5q-30 -28 -55 -40.5t-54 -12.5q-33 0 -54 21t-21 53q0 47 38 78t96 31q29 0 70 -10.5t87 -24.5t88.5 -24t73.5 -10l122 61q14 -24 19.5 -42.5t5.5 -35.5q0 -30 -19.5 -53.5t-52.5 -37.5
t-75 -14zM385 538q-102 0 -164.5 12t-91 38t-28.5 68q0 19 5.5 39.5t12.5 36.5q40 -16 84.5 -30.5t91.5 -25.5t90 -18t77 -9q21 36 51.5 56.5t61.5 20.5q40 0 61.5 -19t21.5 -53q0 -57 -68 -86.5t-205 -29.5z" />
    <glyph glyph-name="bracketleft" unicode="[" horiz-adv-x="415" 
d="M202 -156q-40 0 -68 14.5t-42.5 52t-14.5 104.5q0 86 8.5 173t26 184t43.5 212q20 87 45.5 134t62 64.5t90.5 17.5q36 0 60 -9t35.5 -26t11.5 -42q0 -7 -0.5 -17.5t-2.5 -21.5q-8 3 -31 6.5t-48 5.5t-42 2q-26 -68 -48 -158t-37.5 -192t-24.5 -206t-9 -198q17 0 40.5 2
t44 5.5t28.5 6.5q3 -10 4.5 -22t1.5 -18q0 -35 -32 -54.5t-102 -19.5z" />
    <glyph glyph-name="backslash" unicode="\" horiz-adv-x="676" 
d="M448 -80q18 0 36.5 5.5t30.5 13.5q-48 144 -102.5 348.5t-115.5 479.5q-15 69 -71 69q-18 0 -36.5 -5t-30.5 -14q48 -143 102 -348t116 -480q15 -69 71 -69z" />
    <glyph glyph-name="bracketright" unicode="]" horiz-adv-x="415" 
d="M224 800q40 0 68 -14.5t42.5 -52t14.5 -104.5q0 -86 -8.5 -173t-26 -184t-43.5 -212q-20 -87 -45.5 -134t-62 -64.5t-90.5 -17.5q-36 0 -60 9t-35.5 26t-11.5 42q0 7 0.5 17.5t2.5 21.5q8 -3 31 -6.5t48 -5.5t42 -2q26 68 48 158t37.5 192t24.5 206t9 198q-17 0 -40.5 -2
t-44 -5.5t-28.5 -6.5q-3 10 -4.5 22t-1.5 18q0 35 32 54.5t102 19.5z" />
    <glyph glyph-name="asciicircum" unicode="^" horiz-adv-x="685" 
d="M191 451q-10 0 -23 8t-27.5 22.5t-28.5 30.5l252 374q19 28 33 40t26 12h45q13 0 22.5 -11.5t19.5 -40.5l134 -374q-18 -16 -37.5 -30t-35.5 -22.5t-26 -8.5q-13 0 -22.5 12t-19.5 40l-103 287l39 -5l-190 -282q-19 -28 -32.5 -40t-25.5 -12z" />
    <glyph glyph-name="underscore" unicode="_" horiz-adv-x="665" 
d="M56 -188q-48 0 -65.5 12t-17.5 44q0 20 6 44t15 50q22 -8 54 -13.5t70 -5.5t82 5t92.5 11.5t96.5 12t94 5.5q48 0 65.5 -12t17.5 -44q0 -20 -5.5 -43.5t-15.5 -51.5q-22 9 -53.5 14t-69.5 5t-82.5 -5t-92.5 -11.5t-96.5 -11.5t-94.5 -5z" />
    <glyph glyph-name="grave" unicode="`" horiz-adv-x="600" 
d="M300 666q-19 0 -44.5 10t-58 22.5t-71.5 22.5t-84 10q-4 13 -6.5 28.5t-2.5 31.5q0 68 57 68q28 0 53.5 -14.5t54 -36.5t63.5 -44.5t82 -39.5q-4 -28 -15 -43t-28 -15z" />
    <glyph glyph-name="a" unicode="a" horiz-adv-x="747" 
d="M249 -25q-55 0 -96.5 29t-64.5 82t-23 124q0 84 29.5 155t81.5 124t123 82t155 29q44 0 89 -8q6 -11 9 -26t3 -32q-79 0 -142.5 -23.5t-108.5 -66t-69 -99t-24 -121.5q0 -62 25.5 -96.5t72.5 -34.5q87 0 142 109.5t82 331.5q16 20 38 30.5t47 10.5q28 0 43.5 -14
t15.5 -41q0 -31 -11 -80t-25.5 -109t-25.5 -126t-11 -132q0 -44 22 -64q-20 -17 -42 -25.5t-44 -8.5q-39 0 -60 23.5t-21 67.5q0 12 1.5 25.5t4.5 27.5l-10 5q-34 -71 -88 -110t-118 -39z" />
    <glyph glyph-name="b" unicode="b" horiz-adv-x="745" 
d="M235 -25q-45 0 -77.5 13t-49.5 45t-17 88q0 31 6 81t18 118.5t28.5 154.5t37.5 188l-48 59q30 23 68 37.5t69 14.5q34 0 48.5 -13.5t14.5 -46.5q0 -34 -18.5 -104.5t-39.5 -161.5l10 -5q35 75 90.5 116t121.5 41q56 0 96.5 -28t63.5 -79t23 -120q0 -85 -33 -157.5
t-93.5 -127t-141.5 -84t-177 -29.5zM212 52q69 3 128 27.5t102.5 65t68 93.5t24.5 113q0 62 -26 96.5t-73 34.5q-43 0 -83 -30.5t-72 -87.5t-50.5 -136t-18.5 -176z" />
    <glyph glyph-name="c" unicode="c" horiz-adv-x="625" 
d="M316 -25q-115 0 -181.5 65.5t-66.5 181.5q0 82 28 151t78 119.5t117 79t145 28.5q70 0 111 -24t41 -65q0 -34 -25.5 -56.5t-63.5 -22.5q-37 0 -69 18.5t-52 59.5q-47 -20 -84 -63t-58.5 -102t-21.5 -127q0 -77 28 -121t78 -44q40 0 71.5 21t51 56.5t20.5 79.5
q45 0 69.5 -17t24.5 -52q0 -45 -32.5 -83t-87 -60.5t-121.5 -22.5z" />
    <glyph glyph-name="d" unicode="d" horiz-adv-x="748" 
d="M248 -25q-55 0 -96.5 29t-64.5 82t-23 124q0 78 29.5 145t81.5 116t123 76.5t155 27.5q50 0 89 -8q6 -12 9 -26.5t3 -31.5q-77 0 -140.5 -21t-109 -59.5t-70 -90.5t-24.5 -114t25.5 -96.5t72.5 -34.5q33 0 66 19t61 55.5t47 86.5l-8 -138l-21 8q-33 -71 -87 -110
t-118 -39zM539 -25q-40 0 -59 24.5t-19 74.5q0 18 4.5 56t12 90t17 111t19.5 119t20 115t17 99l-48 59q31 23 68 37.5t69 14.5q34 0 48.5 -13.5t14.5 -46.5q0 -26 -10 -73t-24.5 -110t-29 -136.5t-24.5 -152t-10 -158.5q0 -28 6.5 -46t17.5 -30q-19 -16 -42 -25t-48 -9z" />
    <glyph glyph-name="e" unicode="e" horiz-adv-x="653" 
d="M305 -25q-111 0 -174.5 65.5t-63.5 180.5q0 82 28 151.5t78 120t118 79t148 28.5q83 0 129.5 -37.5t46.5 -106.5q0 -71 -50.5 -121.5t-146 -76.5t-230.5 -26l12 61q136 2 211 43.5t75 115.5q0 31 -18.5 50t-50.5 19q-41 0 -77.5 -24t-65 -66t-44.5 -97.5t-16 -117.5
q0 -76 28 -119.5t77 -43.5q61 0 99.5 40t41.5 106q45 0 69.5 -16.5t24.5 -51.5q0 -41 -33 -76.5t-89 -57.5t-127 -22z" />
    <glyph glyph-name="f" unicode="f" horiz-adv-x="435" 
d="M174 -200q-38 0 -59 23.5t-21 66.5q0 54 25 189.5t73 365.5q-4 40 -6.5 74t-2.5 65q0 70 20.5 115t56.5 66.5t83 21.5q45 0 74 -24t29 -61q0 -36 -24.5 -59t-64.5 -23q-22 0 -42 6.5t-37 20.5l-11 -8l60 -235q-19 -74 -34.5 -149t-27.5 -144t-18 -124.5t-6 -88.5
q0 -46 24 -64q-52 -34 -91 -34zM92 346q-7 18 -7 37q0 27 14.5 43.5t40 25t57.5 8.5q29 0 66.5 4t75 11.5t68.5 18.5q7 -18 7 -37q0 -26 -15 -43t-40.5 -25.5t-56.5 -8.5q-29 0 -66.5 -4t-75 -11.5t-68.5 -18.5z" />
    <glyph glyph-name="g" unicode="g" horiz-adv-x="681" 
d="M161 -236q-79 0 -125.5 26t-46.5 69q0 24 14.5 48.5t37.5 39.5q23 -40 58 -59t82 -19q40 0 85 18.5t89 63t78 120.5t52.5 190t13.5 273q25 25 44.5 34t40.5 9q51 0 51 -48q0 -116 -16 -227.5t-50 -208.5t-89.5 -171t-134.5 -116t-184 -42zM222 6q-56 0 -98.5 28.5t-66 80
t-23.5 120.5q0 78 26.5 145t77 116t121.5 76.5t160 27.5q49 0 89 -8q6 -12 9 -26.5t3 -31.5q-76 0 -138.5 -21.5t-108 -60.5t-69.5 -91.5t-24 -114.5q0 -67 27 -104.5t76 -37.5q23 0 51.5 12t57 40.5t52.5 77.5t39 123t15 177l4 -385h-64q-34 -68 -92.5 -105.5t-123.5 -37.5
z" />
    <glyph glyph-name="h" unicode="h" horiz-adv-x="745" 
d="M159 -25q-44 0 -64 22.5t-20 64.5q0 22 7 68.5t18 109t25 135t28.5 146.5t27.5 143l-48 59q30 23 67.5 37.5t69.5 14.5q34 0 48 -13.5t14 -46.5q0 -25 -9 -67t-23.5 -100.5t-31.5 -136.5l10 -5q40 70 86.5 113t95 62t94.5 19q63 0 94.5 -31t31.5 -98q0 -45 -10 -93
t-23.5 -99t-23.5 -103t-10 -103q0 -20 4 -37t12 -27q-38 -34 -78 -34q-45 0 -64 22.5t-19 64.5q0 41 9.5 90.5t22 99.5t21.5 94.5t9 77.5q0 32 -12 50.5t-40 18.5q-39 0 -84 -30.5t-84 -86t-64 -133t-25 -170.5q0 -20 3.5 -37t11.5 -27q-37 -34 -77 -34z" />
    <glyph glyph-name="i" unicode="i" horiz-adv-x="388" 
d="M175 -25q-43 0 -63.5 21.5t-20.5 65.5q0 21 5 57.5t15 88.5t25 122t35 158l-48 60q31 24 69 38t70 14q33 0 47 -14t14 -47q0 -8 -6.5 -35.5t-16 -67.5t-20.5 -87.5t-21 -97.5t-16 -95.5t-6 -82.5q0 -22 5.5 -38t16.5 -26q-40 -34 -84 -34zM255 676q-36 0 -58.5 18
t-22.5 47q0 25 14.5 44t38 30t50.5 11q37 0 59 -17.5t22 -46.5q0 -24 -14 -44t-37 -31t-52 -11z" />
    <glyph glyph-name="j" unicode="j" horiz-adv-x="397" 
d="M47 -210q-44 0 -65.5 22.5t-21.5 54.5q0 36 24.5 56.5t64.5 20.5q26 0 44 -10.5t31 -19.5l9 14q-16 17 -25 32.5t-13 33.5t-4 41q0 20 7 66t19 109.5t25 135.5t23 142l-47 60q30 24 68 38t70 14q33 0 47 -14t14 -47q0 -9 -5 -40.5t-13 -77.5t-18.5 -101.5t-22 -114.5
t-23 -115.5t-20.5 -105.5q-12 -56 -34 -100t-55 -69t-79 -25zM249 686q-36 0 -58.5 15.5t-22.5 40.5q0 22 14.5 38.5t38 26t50.5 9.5q36 0 58.5 -15.5t22.5 -39.5q0 -21 -14 -38.5t-37 -27t-52 -9.5z" />
    <glyph glyph-name="k" unicode="k" horiz-adv-x="672" 
d="M197 152l9 72l122 96q44 36 80.5 71.5t58 72t21.5 73.5q0 9 -2 18.5t-5 19.5q21 12 43 18.5t41 6.5q35 0 55 -20.5t20 -55.5q0 -54 -49.5 -110.5t-159.5 -121.5zM168 -25q-39 0 -58 24.5t-19 74.5q0 18 4.5 56t12 90t17 111t19.5 119t20 115t17 99l-48 59
q30 23 67.5 37.5t69.5 14.5q34 0 48 -13.5t14 -46.5q0 -26 -9.5 -73t-24 -110t-29.5 -136.5t-24.5 -152t-9.5 -158.5q0 -28 6 -46t17 -30q-18 -16 -41.5 -25t-48.5 -9zM552 -25q-43 0 -73.5 27t-66.5 92l-96 175l118 79l95 -173q23 -42 52 -76t82 -55q-20 -35 -49 -52
t-62 -17z" />
    <glyph glyph-name="l" unicode="l" horiz-adv-x="378" 
d="M168 -25q-39 0 -58 24.5t-19 74.5q0 18 4.5 56t12 90t17 111t19.5 119t20 115t17 99l-48 59q30 23 67.5 37.5t69.5 14.5q34 0 48 -13.5t14 -46.5q0 -17 -7 -55t-18 -90t-23.5 -112.5t-23.5 -125.5t-18 -128t-7 -119q0 -28 6 -46t17 -30q-18 -16 -41.5 -25t-48.5 -9z" />
    <glyph glyph-name="m" unicode="m" horiz-adv-x="1121" 
d="M172 -25q-44 0 -63.5 22.5t-19.5 64.5q0 21 5 57.5t13.5 83.5t19 98.5t21.5 99.5t21 88l-47 59q29 22 66.5 36t69.5 14q34 0 48 -14.5t14 -46.5q0 -26 -8 -57.5t-20 -57.5l10 -5q55 101 117.5 142t133.5 41q61 0 90.5 -32.5t29.5 -89.5q0 -12 -1.5 -26t-6.5 -30l10 -5
q56 101 119.5 142t135.5 41q64 0 95.5 -31t31.5 -98q0 -45 -10 -93t-23.5 -99t-23.5 -103t-10 -103q0 -20 4 -37t11 -27q-36 -34 -77 -34q-44 0 -63.5 22t-19.5 64t9 91t22 99.5t22 95t9 76.5q0 33 -12 51.5t-41 18.5q-37 0 -79 -30.5t-79 -86t-60.5 -133t-23.5 -170.5
q0 -20 4 -37t11 -27q-36 -34 -77 -34q-44 0 -63.5 22t-19.5 64t9.5 91t22 99.5t22 95t9.5 76.5q0 33 -12.5 51.5t-40.5 18.5q-38 0 -80 -30.5t-79 -86t-60 -133t-23 -170.5q0 -20 3.5 -37t10.5 -27q-36 -34 -77 -34z" />
    <glyph glyph-name="n" unicode="n" horiz-adv-x="758" 
d="M172 -25q-43 0 -63 21.5t-20 65.5q0 22 6.5 68.5t18.5 107.5t26 126.5t29 124.5l-47 59q29 22 66.5 36t69.5 14q34 0 48 -14.5t14 -46.5q0 -26 -8 -57.5t-20 -57.5l10 -5q53 93 119.5 138t145.5 45q64 0 95 -31.5t31 -97.5q0 -45 -10 -93t-23.5 -99t-23.5 -103t-10 -103
q0 -44 16 -64q-37 -34 -78 -34q-43 0 -63 21.5t-20 65.5q0 41 9.5 90.5t22 99.5t21.5 94.5t9 77.5q0 35 -13 52t-39 17q-38 0 -74.5 -23t-69 -62.5t-58 -93t-40 -115t-14.5 -126.5q0 -44 14 -64q-37 -34 -77 -34z" />
    <glyph glyph-name="o" unicode="o" horiz-adv-x="723" 
d="M320 -25q-76 0 -132.5 32.5t-87 91.5t-30.5 139t26.5 146.5t74.5 114.5t113.5 74.5t144.5 26.5q20 0 38 -1.5t37 -6.5q7 -12 9.5 -26.5t2.5 -31.5q-95 0 -162 -40t-102 -107.5t-35 -153.5q0 -88 31.5 -134t89.5 -46q53 0 95 29.5t69.5 83.5t34.5 127q-40 24 -58.5 55.5
t-18.5 73.5q0 31 12.5 55t34 37.5t47.5 13.5q50 0 79 -42.5t29 -115.5q0 -83 -26 -154.5t-73 -125.5t-109 -84.5t-134 -30.5z" />
    <glyph glyph-name="p" unicode="p" horiz-adv-x="767" 
d="M315 0q-47 0 -90 8q-6 12 -9 26.5t-3 31.5q103 0 181 36t121 100.5t43 148.5q0 62 -26 96.5t-73 34.5t-88.5 -45.5t-75 -131t-58.5 -205.5l16 376l61 -36q34 76 88 118t118 42q55 0 96.5 -29t64 -82t22.5 -124q0 -78 -29 -145t-81.5 -116t-123 -76.5t-154.5 -27.5z
M157 -200q-39 0 -58.5 23.5t-19.5 72.5q0 19 7 74t19.5 136.5t28.5 179.5t35 203l-48 59q31 24 68.5 38t68.5 14q35 0 48.5 -13.5t13.5 -46.5q0 -26 -9.5 -73t-24 -110t-29.5 -136.5t-24.5 -152.5t-9.5 -159q0 -25 6 -43.5t18 -31.5q-18 -15 -41.5 -24.5t-48.5 -9.5z" />
    <glyph glyph-name="q" unicode="q" horiz-adv-x="737" 
d="M475 -199q-33 0 -47.5 14t-14.5 46q0 33 16.5 101t35.5 157l-10 5q-34 -71 -88 -110t-118 -39q-55 0 -96.5 29t-64.5 82t-23 124q0 84 29.5 155t81.5 124t123 82t155 29q46 0 89 -8q6 -11 9 -26t3 -32q-79 0 -142.5 -23.5t-108.5 -66t-69 -99t-24 -121.5
q0 -62 25.5 -96.5t72.5 -34.5q44 0 84 31.5t71.5 89.5t50 139t18.5 181q18 22 40.5 31.5t44.5 9.5q28 0 43.5 -14t15.5 -41q0 -29 -10 -87.5t-27.5 -140t-37 -178.5t-37.5 -202l47 -59q-30 -23 -67 -37.5t-70 -14.5z" />
    <glyph glyph-name="r" unicode="r" horiz-adv-x="508" 
d="M172 -25q-43 0 -63 23.5t-20 72.5q0 20 6.5 65t18 105.5t26 125t28.5 122.5l-46 59q28 22 56.5 36t56.5 14q33 0 47.5 -18t14.5 -43q0 -34 -11 -70t-27 -77l10 -5q29 71 59 119t63.5 72t71.5 24q37 0 57 -18t20 -53q0 -39 -28 -63t-77 -24q-39 0 -75 -30.5t-64.5 -82.5
t-45 -118t-16.5 -138q0 -44 15 -64q-37 -34 -77 -34z" />
    <glyph glyph-name="s" unicode="s" horiz-adv-x="626" 
d="M271 -25q-73 0 -123 13.5t-75.5 38t-25.5 57.5q0 21 13 42t37 36q26 -49 68.5 -76t97.5 -27q38 0 70.5 9.5t52.5 30t20 51.5q0 24 -23.5 40t-60.5 28.5t-78 26t-78 33.5t-60.5 50.5t-23.5 77.5q0 46 23 82t64.5 61t97 38t120.5 13q89 0 143 -26.5t54 -68.5q0 -40 -27 -61
t-67 -21q-38 0 -68 25t-47 72q-69 -8 -110.5 -34t-41.5 -64q0 -24 23.5 -39.5t59.5 -28.5t78 -26.5t78 -33.5t60 -51t24 -79q0 -43 -21.5 -78t-59 -59.5t-87.5 -38t-107 -13.5z" />
    <glyph glyph-name="t" unicode="t" horiz-adv-x="451" 
d="M212 -25q-22 0 -40.5 7.5t-30 28.5t-11.5 62t9 92t22.5 105.5t27 107t22.5 97.5t9 76q0 22 -4 47t-12 51q23 22 56.5 35.5t68.5 13.5q32 0 46.5 -14.5t14.5 -47.5q0 -26 -11.5 -68.5t-28 -96.5t-33.5 -117t-28.5 -131t-12.5 -138l39 -66q-23 -22 -50.5 -33t-52.5 -11z
M153 434q-31 0 -42.5 10t-11.5 33q0 12 3.5 26t12.5 29q18 -6 44 -8t48 -2q54 0 108 10.5t108 10.5q31 0 42 -10.5t11 -33.5q0 -11 -4 -25t-12 -28q-17 5 -43 7.5t-47 2.5q-53 0 -108 -11t-109 -11z" />
    <glyph glyph-name="u" unicode="u" horiz-adv-x="749" 
d="M244 -25q-81 0 -120 40t-39 122q0 42 7 89t17 93.5t17 88.5t7 77q0 24 -3.5 45t-10.5 36q27 15 55.5 24.5t46.5 9.5q33 0 48 -15.5t15 -51.5q0 -22 -6.5 -59t-15.5 -81.5l-18 -89t-15.5 -81t-6.5 -56.5q0 -51 22 -76.5t65 -25.5q54 0 101.5 39.5t74.5 107.5l-1 -154
l-41 21q-22 -30 -54.5 -53.5t-69.5 -36.5t-75 -13zM536 -25q-43 0 -63 25t-20 79q0 25 8 75.5t25 131t44 195.5l-46 67q24 17 48 28.5t47 17.5t44 6q33 0 47 -14t14 -47q0 -8 -6.5 -35.5t-16 -67.5t-20 -87.5t-20.5 -97.5t-16 -95.5t-6 -82.5q0 -46 21 -64q-38 -34 -84 -34z
" />
    <glyph glyph-name="v" unicode="v" horiz-adv-x="671" 
d="M265 -25q-52 0 -83 19.5t-44.5 65.5t-13.5 123q0 61 1 118t-2.5 107.5t-16.5 91.5t-41 70q39 30 86 30q42 0 67 -26.5t36 -90t11 -173.5v-94t-0.5 -66t-0.5 -45.5t-1 -32.5h10q75 107 121.5 188.5t68.5 138.5t22 90q0 46 -21 81q26 15 49.5 22.5t47.5 7.5q31 0 48.5 -20
t17.5 -57q0 -28 -12.5 -67t-39 -93.5t-68 -126.5t-99.5 -165l18 -37q-18 -17 -45 -30.5t-57.5 -21t-58.5 -7.5z" />
    <glyph glyph-name="w" unicode="w" horiz-adv-x="927" 
d="M221 -25q-53 0 -74 33.5t-21 119.5q0 69 1 134t-2.5 123t-17 105t-42.5 80q39 30 86 30q42 0 67 -26.5t36 -90t11 -173.5v-94v-66t-0.5 -45.5t-0.5 -32.5h10q58 71 96.5 137t59 119t29 87.5t8.5 43.5q0 13 -6 27.5t-13.5 29t-11.5 24.5q18 15 33.5 22.5t30.5 7.5
q34 0 52 -20.5t18 -58.5t-14.5 -84t-40.5 -99t-61 -116q-35 -61 -64 -102.5t-55.5 -66.5t-54 -36.5t-59.5 -11.5zM569 -25q-42 0 -66 19t-34 55.5t-14 88.5l-31 403q17 16 37 22.5t39 6.5l30 -59l18 -439h10q65 107 105 188.5t59 138.5t19 90q0 46 -20 81q25 15 48.5 22.5
t47.5 7.5q32 0 48.5 -20t16.5 -57q0 -28 -10.5 -67t-33.5 -93.5t-58.5 -126.5t-87.5 -165l19 -37q-16 -17 -40 -30.5t-50.5 -21t-51.5 -7.5z" />
    <glyph glyph-name="x" unicode="x" horiz-adv-x="671" 
d="M507 -25q-26 0 -48 10.5t-41.5 35.5t-42.5 68l-170 311q-19 35 -38 59.5t-42 41.5t-54 29q21 35 51.5 52.5t65.5 17.5q28 0 49 -10.5t41 -35.5t42 -69l170 -310q19 -35 38 -60t42.5 -42t53.5 -29q-21 -34 -51 -51.5t-66 -17.5zM100 -25q-31 0 -49.5 21t-18.5 55
q0 25 14.5 52t49.5 59t95 74l116 85l43 -78q-88 -58 -127.5 -108t-39.5 -89q0 -12 2 -22t6 -19q-19 -13 -43 -21.5t-48 -8.5zM378 255l-43 77q88 60 128 109.5t40 87.5q0 13 -2 23t-6 18q18 14 42.5 22.5t47.5 8.5q31 0 50 -21t19 -56q0 -24 -14.5 -51t-49 -59.5
t-95.5 -73.5z" />
    <glyph glyph-name="y" unicode="y" horiz-adv-x="681" 
d="M80 -200q-71 0 -105.5 25t-34.5 68q0 19 9.5 38.5t19.5 30.5q11 -14 26.5 -27t40 -21.5t61.5 -8.5q34 0 77 14.5t89.5 45t90.5 79.5t79 116.5t56 155.5t21 198q0 12 -0.5 28.5t-2.5 27.5q22 15 42 22.5t40 7.5q29 0 47 -15.5t18 -53.5q0 -70 -17.5 -151t-52 -163
t-84 -157t-113.5 -133.5t-141 -92.5t-166 -34zM315 -25q-66 0 -103.5 25.5t-55 69.5t-22.5 98.5t-6 113t-4 114t-15.5 101t-42.5 73.5q38 30 84 30q45 0 70 -24t35.5 -65t13 -91.5t1.5 -104.5t1.5 -104.5t13.5 -91.5t36 -65t71 -24z" />
    <glyph glyph-name="z" unicode="z" horiz-adv-x="606" 
d="M231 80l-132 26l261 352l167 25zM414 -25q-61 0 -112.5 15t-107.5 35q-26 -23 -49 -33t-49 -10q-34 0 -51.5 22t-17.5 49q0 24 13.5 47t41 38t69.5 15q23 0 57 -9t72 -21t73 -21t61 -9l111 53q9 -17 15 -35.5t6 -38.5q0 -28 -18 -50t-48 -34.5t-66 -12.5zM322 425
q-85 1 -135.5 12.5t-72.5 37t-22 64.5q0 13 2.5 28t8.5 38q33 -14 73 -27t80.5 -23.5t76 -17t59.5 -7.5q14 31 42.5 50.5t59.5 19.5q38 0 59 -18.5t21 -50.5q0 -28 -16.5 -48.5t-48.5 -33t-79 -18.5t-108 -6z" />
    <glyph glyph-name="braceleft" unicode="{" horiz-adv-x="383" 
d="M170 -156q-62 0 -92.5 31.5t-30.5 96.5q0 40 10 94.5t29.5 116.5t50.5 123q-11 -4 -25 -4q-21 0 -37 13.5t-16 34.5q0 19 15.5 32.5t36.5 13.5q24 0 39 -14q-1 29 -2 67t-1.5 76.5t-0.5 65.5q0 70 15 112t40.5 63t57 27.5t63.5 6.5q54 0 81 -19.5t27 -57.5q0 -7 -1 -18
t-3 -21q-8 3 -31 6.5t-48.5 5.5t-41.5 2q-13 -90 -26.5 -149.5t-28.5 -97.5t-33.5 -62.5t-40.5 -44.5q24 -27 38 -65.5t14 -80.5q0 -6 -1.5 -17t-5 -37t-12 -74t-23.5 -126q17 0 40 2t44.5 5.5t28.5 6.5q3 -10 4.5 -22t1.5 -18q0 -35 -33.5 -54.5t-101.5 -19.5z" />
    <glyph glyph-name="bar" unicode="|" horiz-adv-x="459" 
d="M124 -180q-33 0 -47 14.5t-14 48.5l200 881l-16 84q24 15 53.5 23.5t54.5 8.5q33 0 47 -14.5t14 -48.5l-200 -881l16 -84q-25 -14 -54 -23t-54 -9z" />
    <glyph glyph-name="braceright" unicode="}" horiz-adv-x="383" 
d="M224 800q62 0 92.5 -31.5t30.5 -96.5q0 -40 -10 -94.5t-29.5 -116.5t-50.5 -123q11 4 25 4q21 0 37 -13.5t16 -34.5q0 -19 -15.5 -32.5t-36.5 -13.5q-24 0 -39 14q1 -29 2 -67t1.5 -76.5t0.5 -65.5q0 -70 -15 -112t-40.5 -63t-57 -27.5t-63.5 -6.5q-54 0 -81 19.5
t-27 57.5q0 7 1 18t3 21q8 -3 31 -6.5t48.5 -5.5t41.5 -2q13 90 26.5 149.5t28.5 97.5t33.5 62.5t40.5 44.5q-24 27 -38 65.5t-14 80.5q0 6 1.5 17t5 37t12 74t23.5 126q-17 0 -40 -2t-44.5 -5.5t-28.5 -6.5q-3 10 -4.5 22t-1.5 18q0 35 33.5 54.5t101.5 19.5z" />
    <glyph glyph-name="asciitilde" unicode="~" horiz-adv-x="716" 
d="M185 279q-34 0 -46.5 12.5t-12.5 42.5q0 14 5.5 33t15.5 42q59 0 119 8.5t115.5 20t100.5 20.5t76 9q34 0 46.5 -12.5t12.5 -42.5q0 -14 -5.5 -33t-15.5 -42q-59 0 -119 -8.5t-115.5 -20.5t-101 -20.5t-75.5 -8.5z" />
    <glyph glyph-name="uni00A0" unicode="&#xa0;" horiz-adv-x="317" 
 />
    <glyph glyph-name="exclamdown" unicode="&#xa1;" horiz-adv-x="381" 
d="M221 317q29 0 39 -16.5t10 -42.5q0 -17 -5 -48.5t-11.5 -69.5t-13.5 -78.5t-12 -76t-5 -60.5q0 -20 4 -43t17 -37q-23 -22 -54.5 -33.5t-67.5 -11.5q-47 0 -66.5 26t-19.5 65q0 24 8 63.5t21.5 86.5t29.5 94.5t31 88t26 66.5q15 13 35 20t34 7zM264 600q35 0 58.5 -23.5
t23.5 -56.5q0 -26 -12.5 -48t-34.5 -35.5t-49 -13.5q-36 0 -59 23t-23 57q0 25 13 47t34.5 36t48.5 14z" />
    <glyph glyph-name="cent" unicode="&#xa2;" horiz-adv-x="569" 
d="M291 74q-105 0 -164.5 56.5t-59.5 158.5q0 68 24.5 126t69 100.5t103.5 66t128 23.5q64 0 101.5 -22t37.5 -59q0 -31 -22 -51t-57 -20q-34 0 -63 17t-47 52q-40 -16 -71.5 -51t-49.5 -83t-18 -103q0 -66 25 -103t67 -37q35 0 62.5 17.5t44 47.5t17.5 67q42 0 64.5 -15.5
t22.5 -47.5q0 -38 -29 -70t-77.5 -51t-108.5 -19zM244 -71q-17 -1 -36 3.5t-32 12.5q11 38 21.5 79.5t22.5 87.5h111q-4 -26 -9 -54l-10 -56q-13 -70 -68 -73zM317 561q9 38 18 77t18 79q17 69 72 69q17 0 35.5 -5t30.5 -14q-15 -46 -31 -97t-32 -109h-111z" />
    <glyph glyph-name="sterling" unicode="&#xa3;" horiz-adv-x="622" 
d="M443 -30q-34 0 -67.5 6.5t-73.5 20t-94 34.5q-30 -29 -55 -41t-54 -12q-32 0 -52.5 21t-20.5 53q0 47 37 77.5t95 30.5q28 0 65 -10.5t77.5 -24t78 -24t64.5 -10.5l121 61q14 -25 19.5 -43t5.5 -35q0 -29 -19 -53t-52.5 -37.5t-74.5 -13.5zM137 75l37 396
q12 124 75.5 177t169.5 53q95 0 147.5 -27t52.5 -82q0 -17 -5.5 -36t-15.5 -38q-41 23 -108.5 35t-144.5 12l-87 -491zM126 293q-33 0 -45 9.5t-12 31.5q0 11 4 24.5t13 26.5q20 -6 47 -8t51 -2q56 0 113 10t115 10q32 0 43.5 -9.5t11.5 -30.5q0 -12 -3 -25t-13 -26
q-18 5 -45.5 7t-48.5 2q-39 0 -77 -5t-77 -10t-77 -5z" />
    <glyph glyph-name="currency" unicode="&#xa4;" horiz-adv-x="666" 
d="M316 132q-93 0 -145 50.5t-52 129.5q0 68 35 119t97 79.5t144 28.5q83 0 128 -50t45 -130q0 -45 -18.5 -85.5t-52 -72.5t-79.5 -50.5t-102 -18.5zM123 20q-14 0 -30 7t-29.5 17.5t-22.5 22.5q33 42 69 89.5t74 101.5l91 -57q-21 -32 -42.5 -65.5t-43.5 -69.5
q-16 -23 -31.5 -34.5t-34.5 -11.5zM464 20q-34 0 -58 46q-17 36 -33.5 69.5t-32.5 65.5l112 38q27 -49 52.5 -91.5t48.5 -80.5q-10 -12 -25.5 -22.5t-32.5 -17.5t-31 -7zM319 223q41 0 67.5 22t39.5 56.5t13 72.5q0 20 -7 37t-26.5 27t-57.5 10q-9 0 -19 -0.5t-21 -2.5
q-31 -31 -46 -67t-15 -68q0 -36 18.5 -61.5t53.5 -25.5zM236 430q-21 37 -37.5 65.5t-32.5 54.5t-34 55q10 11 25.5 21.5t33 17.5t30.5 7q36 0 58 -45q12 -23 20.5 -41.5t17 -36t18.5 -38.5zM510 432l-104 38q21 33 43 66.5t44 69.5q30 45 65 45q15 0 30.5 -7t29.5 -17.5
t22 -21.5q-29 -37 -62 -80.5t-68 -92.5z" />
    <glyph glyph-name="yen" unicode="&#xa5;" horiz-adv-x="642" 
d="M321 217q-62 0 -89 36t-33 122q-5 65 -12.5 121.5t-25.5 101t-54 72.5q42 30 93 30q44 0 71 -28.5t42 -79t22.5 -118t12.5 -145.5h6q29 30 54.5 67.5t45.5 75.5t31 72.5t11 59.5q0 36 -23 66q27 15 52 22.5t46 7.5q34 0 52.5 -18t18.5 -51q0 -47 -21.5 -103t-56.5 -111
t-77.5 -100t-86 -72.5t-79.5 -27.5zM133 173q-32 0 -43.5 9.5t-11.5 31.5q0 11 3 24t13 27q19 -6 47 -8t50 -2t46 2.5t47 5.5l-9 -76q-34 -4 -70 -9t-72 -5zM296 -25q-40 0 -58.5 20t-18.5 64q0 25 5.5 58.5t17.5 82t31 118.5h152q-23 -83 -37.5 -141t-14.5 -105
q0 -21 4 -36t14 -30q-26 -16 -48.5 -23.5t-46.5 -7.5zM156 316q-32 0 -43.5 9.5t-11.5 31.5q0 11 3.5 24.5t12.5 27.5q19 -6 47 -8t51 -2q21 0 42.5 2t43.5 4l-9 -76q-34 -4 -67.5 -8.5t-68.5 -4.5zM569 184q-18 5 -45 7t-49 2q-26 0 -52.5 -2t-53.5 -4l9 76q38 5 76 9t76 4
q33 0 44.5 -10t11.5 -31q0 -11 -3.5 -24.5t-13.5 -26.5zM592 327q-19 5 -46 7t-49 2q-20 0 -41 -0.5t-42 -2.5l19 75q30 5 60 8t60 3q33 0 44.5 -10t11.5 -31q0 -11 -4 -24.5t-13 -26.5z" />
    <glyph glyph-name="brokenbar" unicode="&#xa6;" horiz-adv-x="459" 
d="M195 465l68 299l-16 84q24 15 53.5 23.5t54.5 8.5q33 0 47 -14.5t14 -48.5l-80 -352h-141zM124 -180q-33 0 -47 14.5t-14 48.5l80 353h141l-68 -300l16 -84q-25 -14 -54 -23t-54 -9z" />
    <glyph glyph-name="section" unicode="&#xa7;" horiz-adv-x="713" 
d="M444 90l-86 83q55 15 86.5 41t31.5 63q0 29 -25 48.5t-65.5 35t-85 32t-84.5 40.5t-65.5 60t-25.5 91q0 47 23 85.5t64 67t96 43.5t120 15q78 0 133 -15t83.5 -43t28.5 -67q0 -23 -11.5 -45.5t-31.5 -37.5q-30 58 -80 90t-115 32q-66 0 -111 -24t-45 -75q0 -30 25.5 -50
t65.5 -36t84.5 -33t84.5 -41.5t65.5 -61.5t25.5 -94q0 -49 -23 -89t-65 -69t-98 -46zM289 -187q-78 0 -133 15.5t-83.5 43t-28.5 66.5q0 23 12 45.5t32 37.5q31 -58 80.5 -90t113.5 -32q66 0 111.5 24.5t45.5 74.5q0 30 -25.5 50t-65.5 36t-85.5 33t-85 41.5t-65 62
t-25.5 93.5q0 46 19.5 83.5t56.5 65.5t86 47l104 -76q-52 -15 -82 -41.5t-30 -61.5q0 -29 25 -48.5t65.5 -34.5t85 -32t84.5 -40.5t65.5 -60t25.5 -91.5q0 -47 -23 -85.5t-64 -67t-96 -43.5t-120 -15z" />
    <glyph glyph-name="dieresis" unicode="&#xa8;" horiz-adv-x="600" 
d="M474 676q-33 0 -54 18t-21 47q0 25 13.5 44t35 30t47.5 11q31 0 51 -17.5t20 -46.5q0 -37 -27 -61.5t-65 -24.5zM199 676q-32 0 -51.5 18t-19.5 47q0 25 13 44t34 30t45 11q33 0 54 -17.5t21 -46.5q0 -24 -12.5 -44t-34.5 -31t-49 -11z" />
    <glyph glyph-name="copyright" unicode="&#xa9;" horiz-adv-x="896" 
d="M424 150q-65 0 -125.5 21.5t-109 64t-76.5 107t-28 150.5q0 121 56.5 211.5t158 141t237.5 50.5q47 0 70 -8.5t32 -26t11 -43.5q83 -45 122 -118.5t39 -153.5q0 -98 -33.5 -172t-89.5 -124t-124.5 -75t-139.5 -25zM423 213q78 0 139.5 28t105 75.5t66 106.5t22.5 120
q0 47 -17 95t-51 88t-86 64.5t-122 24.5q-91 0 -165 -36t-117.5 -107.5t-43.5 -177.5q0 -96 37.5 -158.5t99 -92.5t132.5 -30zM437 321q-72 0 -112.5 40.5t-40.5 113.5q0 52 17.5 97t49.5 78t74 51t91 18q42 0 66 -14t24 -39q0 -21 -15 -34t-38 -13t-43 10.5t-32 36.5
q-33 -13 -58 -41.5t-39.5 -68t-14.5 -85.5q0 -50 19.5 -78.5t52.5 -28.5q26 0 47 13t33 36.5t14 51.5q24 0 37.5 -9t13.5 -31q0 -29 -20 -52.5t-53 -37.5t-73 -14z" />
    <glyph glyph-name="ordfeminine" unicode="&#xaa;" horiz-adv-x="554" 
d="M205 333q-57 0 -92 44t-35 116q0 82 38 144.5t101 97.5t139 35q30 0 57 -6q4 -9 6 -22.5t2 -29.5q-71 0 -119 -26t-72 -69t-24 -96q0 -38 16 -59t44 -21q54 0 86.5 66.5t47.5 204.5q33 41 83 41q48 0 48 -51q0 -19 -7 -51t-16 -71t-16 -80t-7 -79q0 -18 5 -33.5t15 -23.5
q-20 -15 -40 -23t-41 -8q-34 0 -52 19.5t-18 54.5q0 7 1 14t2 15l-7 3q-23 -50 -61 -78t-84 -28z" />
    <glyph glyph-name="guillemotleft" unicode="&#xab;" horiz-adv-x="645" 
d="M478 25q-26 32 -54.5 70t-53.5 75t-40.5 68t-15.5 50q0 24 13.5 48.5t41 53.5t72.5 67.5t108 91.5q14 0 29.5 -6.5t26 -20t10.5 -34.5q0 -22 -17.5 -44.5t-47.5 -45t-67 -47t-77 -51.5q49 -49 82 -84t50 -64t17 -59q0 -20 -9 -35.5t-26 -24t-42 -8.5zM212 25
q-26 32 -54.5 70t-53.5 75t-40.5 68t-15.5 50q0 24 13 48.5t40.5 53.5t72.5 67.5t109 91.5q14 0 29 -6.5t25.5 -20t10.5 -34.5q0 -22 -17.5 -44.5t-47 -45t-66.5 -47t-76 -51.5q48 -49 81 -84t50 -64t17 -59q0 -20 -9 -35.5t-26 -24t-42 -8.5z" />
    <glyph glyph-name="logicalnot" unicode="&#xac;" horiz-adv-x="713" 
d="M479 86q-25 0 -32 15.5t-1 55.5l44 281l122 -45l-44 -286q-28 -10 -50.5 -15.5t-38.5 -5.5zM200 308q-41 0 -56 10t-15 34q0 16 5.5 38t15.5 47h390q41 0 56.5 -9t15.5 -35l-21 -85h-391z" />
    <glyph glyph-name="uni00AD" unicode="&#xad;" horiz-adv-x="512" 
d="M117 216q-24 0 -38.5 12t-14.5 46q0 37 21 79q13 -3 24 -4t24 -1q36 0 70 6.5t66 16t64.5 16.5t66.5 7q23 0 38 -12t15 -45q0 -17 -5 -37.5t-16 -41.5q-13 3 -24 4t-23 1q-37 0 -70.5 -7t-66 -16.5t-64.5 -16.5t-67 -7z" />
    <glyph glyph-name="registered" unicode="&#xae;" horiz-adv-x="896" 
d="M424 150q-65 0 -125.5 21.5t-109 64t-76.5 107t-28 150.5q0 121 56.5 211.5t158 141t237.5 50.5q47 0 70 -8.5t32 -26t11 -43.5q83 -45 122 -118.5t39 -153.5q0 -98 -33.5 -172t-89.5 -124t-124.5 -75t-139.5 -25zM423 213q78 0 139.5 28t105 75.5t66 106.5t22.5 120
q0 47 -17 95t-51 88t-86 64.5t-122 24.5q-91 0 -165 -36t-117.5 -107.5t-43.5 -177.5q0 -96 37.5 -158.5t99 -92.5t132.5 -30zM449 463q-28 0 -48.5 6t-41.5 23l8 37q12 -10 27 -13.5t30 -3.5q32 0 55.5 11t36.5 31t13 46q0 17 -7 32.5t-22.5 25t-41.5 9.5q-20 0 -40 -9
t-41 -26v32q16 16 32.5 28t37.5 19t51 7q37 0 62 -15.5t38.5 -41t13.5 -54.5q0 -26 -10 -51.5t-30 -46.5t-50.5 -33.5t-72.5 -12.5zM340 320q-24 0 -35 12t-11 40q0 14 2 34.5t6 51.5t12 78.5t19 114.5l-20 41q21 13 40.5 20t36.5 7q29 0 29 -35q0 -6 -3 -25.5t-8.5 -48
t-11 -60t-10.5 -62.5t-8 -57t-3 -41q0 -19 3 -31.5t11 -21.5q-24 -17 -49 -17zM566 321q-19 0 -32 7.5t-25 26.5t-28 55l-30 72l71 29q16 -41 33 -75t34 -58.5t30 -35.5q-5 -6 -14.5 -10.5t-20 -7.5t-18.5 -3z" />
    <glyph glyph-name="macron" unicode="&#xaf;" horiz-adv-x="600" 
d="M148 698q-46 0 -46 48q0 18 7 42t18 44q11 -5 30.5 -8.5t35.5 -3.5q45 0 91.5 4t95.5 4q72 0 72 -55q0 -16 -3 -31t-11 -32q-8 3 -28 5.5t-39 2.5q-53 0 -112.5 -10t-110.5 -10z" />
    <glyph glyph-name="degree" unicode="&#xb0;" horiz-adv-x="490" 
d="M262 258.403q-85 0 -135.5 49.4004q-50.5 49.4014 -50.5 133.002q0 69.3506 32.5 121.127q32.5 51.7754 90.5 80.751q58 28.9746 133 28.9746q13 0 28 -2.375t25 -6.1748q3 -2.84961 4.5 -9.97461q1.5 -7.12598 2.5 -17.5752q49 -10.4502 74 -47.9756
q25 -37.5264 25 -98.3271q0 -64.6006 -30.5 -117.326t-82 -83.126t-116.5 -30.4004zM267 338.204q29 0 52 19.001q23 19 36.5 51.7754t13.5 74.5762q0 90.251 -82 90.251q-10 0 -19.5 -1.4248q-9.5 -1.42578 -19.5 -5.22559q-23 -23.75 -36 -62.2256t-13 -72.6758
q0 -42.751 18.5 -68.4014t49.5 -25.6504z" />
    <glyph glyph-name="plusminus" unicode="&#xb1;" horiz-adv-x="714" 
d="M312 131q-24 0 -31.5 15.5t-0.5 55.5l62 391q56 21 89 21q25 0 31.5 -15.5t0.5 -55.5l-62 -391q-27 -10 -49.5 -15.5t-39.5 -5.5zM201 308q-41 0 -56 10t-15 34q0 16 5.5 38t15.5 47h390q41 0 56.5 -9t15.5 -35q0 -33 -21 -85h-391zM128 -146q-41 0 -56 10t-15 34
q0 16 5.5 38t15.5 47h390q41 0 56.5 -9t15.5 -35q0 -33 -21 -85h-391z" />
    <glyph glyph-name="uni00B2" unicode="&#xb2;" horiz-adv-x="466" 
d="M198 347l-92 25q74 34 117.5 66.5t63 63.5t19.5 58q0 29 -15.5 46.5t-45.5 17.5t-53.5 -21t-30.5 -66q-30 3 -46.5 19t-16.5 42q0 51 48 81.5t126 30.5q46 0 80.5 -17t54.5 -46t20 -65q0 -42 -22.5 -79t-73 -74.5t-133.5 -81.5zM120 272q-25 0 -42 17t-17 42
q0 33 26.5 55t68.5 22q17 0 42 -7t52.5 -16.5t53 -16.5t43.5 -7l91 49q8 -18 11.5 -32.5t3.5 -28.5q0 -32 -30.5 -54.5t-75.5 -22.5q-38 0 -73 10t-77 24q-40 -34 -77 -34z" />
    <glyph glyph-name="uni00B3" unicode="&#xb3;" horiz-adv-x="420" 
d="M186 272q-60 0 -94.5 17t-34.5 47q0 22 14.5 36.5t37.5 14.5q22 0 42.5 -16.5t35.5 -43.5q43 0 69 18.5t26 48.5q0 31 -28 49.5t-74 18.5v42q48 0 78.5 19.5t30.5 49.5q0 26 -16.5 40.5t-47.5 14.5q-30 0 -52.5 -21.5t-28.5 -58.5q-27 3 -42 18t-15 39q0 47 43 76t113 29
q69 0 110 -29.5t41 -81.5q0 -37 -23 -66.5t-65 -44.5q41 -13 62.5 -37.5t21.5 -56.5q0 -36 -26 -63.5t-72 -43t-106 -15.5z" />
    <glyph glyph-name="acute" unicode="&#xb4;" horiz-adv-x="600" 
d="M126 666q-16 0 -27.5 14.5t-15.5 42.5q47 17 82 39.5t63.5 44.5t54 37t53.5 15q57 0 57 -69q0 -16 -2 -31t-7 -28q-45 0 -84 -10t-71.5 -22.5t-58 -22.5t-44.5 -10z" />
    <glyph glyph-name="uni03BC" unicode="&#xb5;" horiz-adv-x="749" 
d="M131 -200q-39 0 -58 23.5t-19 72.5q0 19 7 74t19 136.5t28.5 179.5t35.5 203l-48 59q30 24 68 38t69 14q34 0 48 -13.5t14 -46.5q0 -18 -7.5 -57t-18 -87.5t-21.5 -97.5t-18 -89t-7 -61q0 -84 86 -84q54 0 101.5 39.5t74.5 107.5l-1 -154l-41 21q-12 -28 -39 -49.5
t-62.5 -32t-72.5 -4.5t-69 34q-11 -77 -3.5 -123.5t24.5 -68.5q-17 -15 -41 -24.5t-49 -9.5zM536 -25q-43 0 -63 25t-20 79q0 25 8 75.5t25 131t44 195.5l-46 67q24 17 48 28.5t47 17.5t44 6q33 0 47 -14t14 -47q0 -8 -6.5 -35.5t-16 -67.5t-20 -87.5t-20.5 -97.5t-16 -95.5
t-6 -82.5q0 -46 21 -64q-38 -34 -84 -34z" />
    <glyph glyph-name="paragraph" unicode="&#xb6;" horiz-adv-x="615" 
d="M373 -96q-52 0 -73.5 32t-21.5 81q0 40 12.5 91.5t33 107.5t46.5 112.5t53 108.5h-20q-34 -59 -77 -88t-95 -29q-50 0 -83.5 22.5t-50 59.5t-16.5 81t16.5 88t50 81t83.5 59.5t117 22.5q31 0 68 -8.5t70 -30t54.5 -60.5t21.5 -100q0 -44 -15.5 -104.5t-36 -131
t-36 -145.5t-15.5 -149q0 -21 6 -38t18 -28q-28 -18 -57 -26.5t-53 -8.5z" />
    <glyph glyph-name="periodcentered" unicode="&#xb7;" horiz-adv-x="333" 
d="M140 208q-35 0 -58.5 23.5t-23.5 56.5q0 26 12.5 48t34 35.5t49.5 13.5q36 0 59 -23t23 -57q0 -25 -13 -47t-34.5 -36t-48.5 -14z" />
    <glyph glyph-name="cedilla" unicode="&#xb8;" horiz-adv-x="600" 
d="M156 -287q-59 0 -94 23t-35 61q0 24 17.5 44t46.5 31.5t65 11.5q-21 -11 -32.5 -29t-11.5 -40t12 -33.5t36 -11.5q33 0 54.5 21t21.5 53q0 78 -80 117q83 0 132 -31.5t49 -86.5q0 -36 -24 -65.5t-65 -47t-92 -17.5z" />
    <glyph glyph-name="uni00B9" unicode="&#xb9;" horiz-adv-x="363" 
d="M210 272q-37 0 -55.5 18t-18.5 57q0 20 4 50.5t9.5 64t11.5 63.5t11 51q-15 0 -31.5 10t-28.5 29.5t-14 46.5q49 8 80.5 19.5t55 20t46.5 8.5q42 0 42 -47q0 -19 -8 -53l-18 -76.5t-18 -86t-8 -81.5q0 -21 3 -39.5t10 -33.5q-38 -21 -73 -21z" />
    <glyph glyph-name="ordmasculine" unicode="&#xba;" horiz-adv-x="510" 
d="M269 333q-86 0 -137 50.5t-51 136.5q0 73 33.5 129.5t91 88.5t131.5 32q15 0 27.5 -1.5t25.5 -4.5q4 -10 6.5 -22.5t1.5 -27.5q-56 -1 -98.5 -26.5t-66.5 -70t-24 -103.5q0 -55 21.5 -84.5t61.5 -29.5q51 0 83.5 42t32.5 109q0 40 -11 70.5t-33 55.5q11 17 29 26t37 9
q39 0 61 -33t22 -86q0 -75 -29.5 -133.5t-84.5 -92.5t-130 -34z" />
    <glyph glyph-name="guillemotright" unicode="&#xbb;" horiz-adv-x="661" 
d="M184 560q26 -32 54.5 -70t53.5 -75t40.5 -68t15.5 -50q0 -24 -13.5 -48.5t-41 -53.5t-72.5 -67.5t-108 -91.5q-14 0 -29.5 6.5t-26 20t-10.5 34.5q0 22 17.5 44.5t47.5 45t67 47t77 51.5q-49 49 -82 84t-50 64t-17 59q0 20 9 35.5t26 24t42 8.5zM450 560q26 -32 54.5 -70
t53.5 -75t40.5 -68t15.5 -50q0 -24 -13 -48.5t-40.5 -53.5t-72.5 -67.5t-109 -91.5q-14 0 -29 6.5t-25.5 20t-10.5 34.5q0 22 17.5 44.5t47 45t66.5 47t76 51.5q-48 49 -81 84t-50 64t-17 59q0 20 9 35.5t26 24t42 8.5z" />
    <glyph glyph-name="onequarter" unicode="&#xbc;" horiz-adv-x="1043" 
d="M210 272q-37 0 -55.5 18t-18.5 57q0 20 4 50.5t9.5 64t11.5 63.5t11 51q-15 0 -31.5 10t-28.5 29.5t-14 46.5q49 8 80.5 19.5t55 20t46.5 8.5q42 0 42 -47q0 -19 -8 -53l-18 -76.5t-18 -86t-8 -81.5q0 -21 3 -39.5t10 -33.5q-38 -21 -73 -21zM326 -40q-17 0 -34.5 5.5
t-28.5 13.5q48 90 103 200.5t117 246t130 301.5q28 69 84 69q17 0 34.5 -5t28.5 -14q-71 -129 -157 -314t-193 -434q-29 -69 -84 -69zM703 35q-56 0 -86 18t-30 51q0 17 14 42t35 53.5t41 58.5t34 60t14 55q0 15 -6 28q15 6 33.5 10t31.5 4q70 0 70 -77q0 -45 -42 -102
t-128 -124h200l-16 -56q-32 -8 -79 -14.5t-86 -6.5zM894 -23q-34 0 -52 22t-18 60q0 24 9.5 62t25.5 80.5t34 78.5q14 10 36.5 17.5t41.5 7.5t25.5 -4t6.5 -17q0 -15 -11.5 -51t-22.5 -83t-11 -94q0 -15 3 -29.5t8 -28.5q-21 -11 -38 -16t-37 -5z" />
    <glyph glyph-name="onehalf" unicode="&#xbd;" horiz-adv-x="1096" 
d="M210 272q-37 0 -55.5 18t-18.5 57q0 20 4 50.5t9.5 64t11.5 63.5t11 51q-15 0 -31.5 10t-28.5 29.5t-14 46.5q49 8 80.5 19.5t55 20t46.5 8.5q42 0 42 -47q0 -19 -8 -53l-18 -76.5t-18 -86t-8 -81.5q0 -21 3 -39.5t10 -33.5q-38 -21 -73 -21zM326 -40q-17 0 -34.5 5.5
t-28.5 13.5q48 90 103 200.5t117 246t130 301.5q28 69 84 69q17 0 34.5 -5t28.5 -14q-71 -129 -157 -314t-193 -434q-29 -69 -84 -69zM761 52l-92 25q73 34 117 66.5t63 63.5t19 58q0 29 -15 46.5t-45 17.5t-54 -21t-30 -66q-30 3 -46.5 19t-16.5 42q0 51 48 81.5t126 30.5
q46 0 80.5 -17t54.5 -46t20 -65q0 -43 -22.5 -79.5t-73 -74t-133.5 -81.5zM683 -23q-25 0 -42 17t-17 42q0 33 26.5 55t68.5 22q17 0 42 -7t52.5 -16.5t53 -16.5t43.5 -7l90 49q9 -18 12.5 -32.5t3.5 -28.5q0 -32 -30.5 -54.5t-75.5 -22.5q-39 0 -73.5 10t-76.5 24
q-40 -34 -77 -34z" />
    <glyph glyph-name="threequarters" unicode="&#xbe;" horiz-adv-x="1100" 
d="M186 272q-60 0 -94.5 17t-34.5 47q0 22 14.5 36.5t37.5 14.5q22 0 42.5 -16.5t35.5 -43.5q43 0 69 18.5t26 48.5q0 31 -28 49.5t-74 18.5v42q48 0 78.5 19.5t30.5 49.5q0 26 -16.5 40.5t-47.5 14.5q-30 0 -52.5 -21.5t-28.5 -58.5q-27 3 -42 18t-15 39q0 47 43 76t113 29
q69 0 110 -29.5t41 -81.5q0 -37 -23 -66.5t-65 -44.5q41 -13 62.5 -37.5t21.5 -56.5q0 -36 -26 -63.5t-72 -43t-106 -15.5zM383 -40q-17 0 -34.5 5.5t-28.5 13.5q48 90 103 200.5t117 246t130 301.5q28 69 84 69q17 0 34.5 -5t28.5 -14q-71 -129 -157 -314t-193 -434
q-29 -69 -84 -69zM760 35q-56 0 -86 18t-30 51q0 17 14 42t35 53.5t41 58.5t34 60t14 55q0 15 -6 28q15 6 33.5 10t31.5 4q70 0 70 -77q0 -45 -42 -102t-128 -124h200l-16 -56q-32 -8 -79 -14.5t-86 -6.5zM951 -23q-34 0 -52 22t-18 60q0 24 9.5 62t25.5 80.5t34 78.5
q14 10 36.5 17.5t41.5 7.5t25.5 -4t6.5 -17q0 -15 -11.5 -51t-22.5 -83t-11 -94q0 -15 3 -29.5t8 -28.5q-21 -11 -38 -16t-37 -5z" />
    <glyph glyph-name="questiondown" unicode="&#xbf;" horiz-adv-x="596" 
d="M239 327q40 0 62.5 -22.5t22.5 -56.5q-42 -4 -78.5 -20t-64.5 -43t-43.5 -62.5t-15.5 -77.5q0 -50 27.5 -83.5t80.5 -33.5q32 0 64 15.5t57.5 49t36.5 87.5q27 0 44.5 -11t25 -29t7.5 -40q0 -27 -13.5 -61.5t-43.5 -66t-80 -52t-121 -20.5q-90 0 -143 34t-77 87t-24 112
q0 64 23.5 118.5t63 93.5t89 60.5t100.5 21.5zM317 600q35 0 58.5 -23.5t23.5 -56.5q0 -26 -12.5 -48t-34.5 -35.5t-49 -13.5q-36 0 -59 23t-23 57q0 25 12.5 47t34.5 36t49 14z" />
    <glyph glyph-name="Agrave" unicode="&#xc0;" horiz-adv-x="716" 
d="M105 -26q-68 0 -68 88q0 37 15.5 89t47 122t81 159.5t116.5 199.5l-32 55q38 23 69.5 33t68.5 10q46 0 60 -22q31 22 62 22q38 0 56 -24.5t18 -78.5q0 -51 -1 -109.5t-0.5 -120t3.5 -120.5t10 -111.5t21 -94t35 -65.5q-40 -32 -91 -32q-37 0 -61.5 18.5t-39.5 60.5
t-21.5 112.5t-6.5 174.5q0 95 0.5 165t2.5 116h-12q-84 -127 -139.5 -228.5t-83 -176.5t-27.5 -121q0 -55 16 -89q-20 -15 -45.5 -23.5t-53.5 -8.5zM154 179l18 86h346l-16 -86h-348zM568 801q-19 0 -44.5 10t-58 22.5t-71.5 22.5t-84 10q-4 13 -6.5 28.5t-2.5 31.5
q0 68 57 68q28 0 53.5 -14.5t54 -36.5t63.5 -44.5t82 -39.5q-4 -28 -15 -43t-28 -15z" />
    <glyph glyph-name="Aacute" unicode="&#xc1;" horiz-adv-x="716" 
d="M105 -26q-68 0 -68 88q0 37 15.5 89t47 122t81 159.5t116.5 199.5l-32 55q38 23 69.5 33t68.5 10q46 0 60 -22q31 22 62 22q38 0 56 -24.5t18 -78.5q0 -51 -1 -109.5t-0.5 -120t3.5 -120.5t10 -111.5t21 -94t35 -65.5q-40 -32 -91 -32q-37 0 -61.5 18.5t-39.5 60.5
t-21.5 112.5t-6.5 174.5q0 95 0.5 165t2.5 116h-12q-84 -127 -139.5 -228.5t-83 -176.5t-27.5 -121q0 -55 16 -89q-20 -15 -45.5 -23.5t-53.5 -8.5zM154 179l18 86h346l-16 -86h-348zM376 801q-16 0 -27.5 14.5t-15.5 42.5q47 17 82 39.5t63.5 44.5t54 37t53.5 15
q57 0 57 -69q0 -16 -2 -31t-7 -28q-45 0 -84 -10t-71.5 -22.5t-58 -22.5t-44.5 -10z" />
    <glyph glyph-name="Acircumflex" unicode="&#xc2;" horiz-adv-x="716" 
d="M105 -26q-68 0 -68 88q0 37 15.5 89t47 122t81 159.5t116.5 199.5l-32 55q38 23 69.5 33t68.5 10q46 0 60 -22q31 22 62 22q38 0 56 -24.5t18 -78.5q0 -51 -1 -109.5t-0.5 -120t3.5 -120.5t10 -111.5t21 -94t35 -65.5q-40 -32 -91 -32q-37 0 -61.5 18.5t-39.5 60.5
t-21.5 112.5t-6.5 174.5q0 95 0.5 165t2.5 116h-12q-84 -127 -139.5 -228.5t-83 -176.5t-27.5 -121q0 -55 16 -89q-20 -15 -45.5 -23.5t-53.5 -8.5zM154 179l18 86h346l-16 -86h-348zM367 799q-26 0 -38 9.5t-12 22.5q0 25 16.5 55t41 59.5t46.5 48.5q20 13 46 21t63 8
q35 0 60 -14t25 -46l3 -80q1 -25 9.5 -40.5t20.5 -24.5q-18 -9 -36.5 -14t-39.5 -5q-29 0 -47 13t-18 49q0 28 3 56t9 52h-16q-18 -17 -31 -41t-19.5 -53t-5.5 -58q-11 -7 -32.5 -12.5t-47.5 -5.5z" />
    <glyph glyph-name="Atilde" unicode="&#xc3;" horiz-adv-x="716" 
d="M105 -26q-68 0 -68 88q0 37 15.5 89t47 122t81 159.5t116.5 199.5l-32 55q38 23 69.5 33t68.5 10q46 0 60 -22q31 22 62 22q38 0 56 -24.5t18 -78.5q0 -51 -1 -109.5t-0.5 -120t3.5 -120.5t10 -111.5t21 -94t35 -65.5q-40 -32 -91 -32q-37 0 -61.5 18.5t-39.5 60.5
t-21.5 112.5t-6.5 174.5q0 95 0.5 165t2.5 116h-12q-84 -127 -139.5 -228.5t-83 -176.5t-27.5 -121q0 -55 16 -89q-20 -15 -45.5 -23.5t-53.5 -8.5zM154 179l18 86h346l-16 -86h-348zM343 819q-30 0 -43.5 12t-13.5 41q0 18 6.5 40t15.5 44q17 -7 34.5 -11t34.5 -4
q45 0 82.5 12.5t71.5 25t66 12.5q31 0 44 -12.5t13 -40.5q0 -18 -6 -40.5t-16 -44.5q-16 7 -33.5 11t-35.5 4q-44 0 -82 -12t-72 -24.5t-66 -12.5z" />
    <glyph glyph-name="Adieresis" unicode="&#xc4;" horiz-adv-x="716" 
d="M105 -26q-68 0 -68 88q0 37 15.5 89t47 122t81 159.5t116.5 199.5l-32 55q38 23 69.5 33t68.5 10q46 0 60 -22q31 22 62 22q38 0 56 -24.5t18 -78.5q0 -51 -1 -109.5t-0.5 -120t3.5 -120.5t10 -111.5t21 -94t35 -65.5q-40 -32 -91 -32q-37 0 -61.5 18.5t-39.5 60.5
t-21.5 112.5t-6.5 174.5q0 95 0.5 165t2.5 116h-12q-84 -127 -139.5 -228.5t-83 -176.5t-27.5 -121q0 -55 16 -89q-20 -15 -45.5 -23.5t-53.5 -8.5zM154 179l18 86h346l-16 -86h-348zM602 811q-33 0 -54 18t-21 47q0 25 13.5 44t35 30t47.5 11q31 0 51 -17.5t20 -46.5
q0 -37 -27 -61.5t-65 -24.5zM327 811q-32 0 -51.5 18t-19.5 47q0 25 13 44t34 30t45 11q33 0 54 -17.5t21 -46.5q0 -24 -12.5 -44t-34.5 -31t-49 -11z" />
    <glyph glyph-name="Aring" unicode="&#xc5;" horiz-adv-x="716" 
d="M105 -26q-68 0 -68 88q0 37 15.5 89t47 122t81 159.5t116.5 199.5l-32 55q38 23 69.5 33t68.5 10q46 0 60 -22q31 22 62 22q38 0 56 -24.5t18 -78.5q0 -51 -1 -109.5t-0.5 -120t3.5 -120.5t10 -111.5t21 -94t35 -65.5q-40 -32 -91 -32q-37 0 -61.5 18.5t-39.5 60.5
t-21.5 112.5t-6.5 174.5q0 95 0.5 165t2.5 116h-12q-84 -127 -139.5 -228.5t-83 -176.5t-27.5 -121q0 -55 16 -89q-20 -15 -45.5 -23.5t-53.5 -8.5zM154 179l18 86h346l-16 -86h-348zM463 769q-68 0 -108 36t-39 97q1 51 24 90t64 60.5t94 21.5q68 0 108 -35.5t39 -97.5
q0 -50 -23 -89t-64 -61t-95 -22zM470 834q33 0 54.5 30.5t21.5 77.5q0 69 -54 69q-11 0 -19.5 -1t-22.5 -5q-17 -19 -26 -45t-9 -54q0 -32 15 -52t40 -20z" />
    <glyph glyph-name="AE" unicode="&#xc6;" horiz-adv-x="893" 
d="M103 -29q-34 0 -50 22t-16 61q0 37 16.5 90t50.5 124t87 161.5t124 202.5l-31 55q38 21 69.5 30t68.5 9q29 0 48 -11.5t29 -33.5l-30 -60h-12q-91 -128 -151 -231.5t-89.5 -179t-29.5 -124.5q0 -24 3 -44t15 -39q-23 -17 -50.5 -24.5t-51.5 -7.5zM149 179l17 86h326
l-15 -86h-328zM712 -25q-60 0 -117.5 14.5t-103.5 42.5l23 62h219q33 4 62.5 11t58.5 19q5 -15 7 -26t2 -25q0 -49 -37 -73.5t-114 -24.5zM478 -26q-45 0 -65.5 23t-20.5 74q0 28 3.5 68t12.5 102t24 154.5t37 225.5l-42 54q39 24 76.5 37.5t68.5 13.5q54 0 54 -66
q0 -10 -4 -40.5t-11.5 -74t-16 -95.5t-18 -105t-16.5 -100.5t-11.5 -84t-4.5 -55.5q0 -31 10 -52.5t32 -38.5q-51 -40 -108 -40zM655 271q-24 0 -50 4t-62 13l15 83q27 -4 55 -6t58 -2l78 19q1 -7 1.5 -15.5t0.5 -15.5q0 -38 -24.5 -59t-71.5 -21zM767 555q-35 0 -72 4
t-72.5 13t-68.5 21l21 83q66 0 118 6t102.5 15.5t109.5 22.5q4 -14 5 -26t1 -23q0 -39 -19 -65t-52 -38.5t-73 -12.5z" />
    <glyph glyph-name="Ccedilla" unicode="&#xc7;" horiz-adv-x="678" 
d="M336 -25q-135 0 -212 76.5t-77 213.5q0 100 33.5 184t93 146t139.5 96.5t172 34.5q79 0 124.5 -26.5t45.5 -72.5q0 -38 -29 -63.5t-72 -25.5q-42 0 -80 20t-62 69q-60 -25 -108 -79t-75 -128.5t-27 -160.5q0 -95 36 -149t100 -54q50 0 88.5 25.5t61.5 69t26 97.5
q46 0 72 -18t26 -59q0 -54 -37.5 -98.5t-100 -71t-138.5 -26.5zM236 -301q-59 0 -94 23t-35 61q0 24 17.5 44t46.5 31.5t65 11.5q-21 -11 -32.5 -29t-11.5 -40t12 -33.5t36 -11.5q33 0 54.5 21t21.5 53q0 78 -80 117q83 0 132 -31.5t49 -86.5q0 -36 -24 -65.5t-65 -47
t-92 -17.5z" />
    <glyph glyph-name="Egrave" unicode="&#xc8;" horiz-adv-x="595" 
d="M180 -26q-45 0 -66 23t-21 74q0 27 3.5 65.5t12 97.5t22.5 148t35 217l-38 76q40 24 77.5 37.5t68.5 13.5q54 0 54 -66q0 -10 -4.5 -40.5t-11.5 -74t-16 -95.5t-18 -105t-16.5 -100.5t-12 -84t-4.5 -55.5q0 -31 10.5 -52.5t32.5 -38.5q-52 -40 -108 -40zM414 -25
q-60 0 -117.5 14.5t-104.5 42.5l23 62h220q33 4 62.5 11t57.5 19q6 -15 8 -26t2 -25q0 -49 -37 -73.5t-114 -24.5zM357 271q-25 0 -51 4t-62 13l16 83q27 -4 54.5 -6t57.5 -2l79 19q1 -7 1.5 -15.5t0.5 -15.5q0 -38 -25 -59t-71 -21zM468 555q-35 0 -71.5 4t-72 13t-68.5 21
l20 83q67 0 119 6t102 15.5t110 22.5q4 -14 5 -26t1 -23q0 -39 -19.5 -65t-52 -38.5t-73.5 -12.5zM509 801q-19 0 -44.5 10t-58 22.5t-71.5 22.5t-84 10q-4 13 -6.5 28.5t-2.5 31.5q0 68 57 68q28 0 53.5 -14.5t54 -36.5t63.5 -44.5t82 -39.5q-4 -28 -15 -43t-28 -15z" />
    <glyph glyph-name="Eacute" unicode="&#xc9;" horiz-adv-x="595" 
d="M180 -26q-45 0 -66 23t-21 74q0 27 3.5 65.5t12 97.5t22.5 148t35 217l-38 76q40 24 77.5 37.5t68.5 13.5q54 0 54 -66q0 -10 -4.5 -40.5t-11.5 -74t-16 -95.5t-18 -105t-16.5 -100.5t-12 -84t-4.5 -55.5q0 -31 10.5 -52.5t32.5 -38.5q-52 -40 -108 -40zM414 -25
q-60 0 -117.5 14.5t-104.5 42.5l23 62h220q33 4 62.5 11t57.5 19q6 -15 8 -26t2 -25q0 -49 -37 -73.5t-114 -24.5zM357 271q-25 0 -51 4t-62 13l16 83q27 -4 54.5 -6t57.5 -2l79 19q1 -7 1.5 -15.5t0.5 -15.5q0 -38 -25 -59t-71 -21zM468 555q-35 0 -71.5 4t-72 13t-68.5 21
l20 83q67 0 119 6t102 15.5t110 22.5q4 -14 5 -26t1 -23q0 -39 -19.5 -65t-52 -38.5t-73.5 -12.5zM318 801q-16 0 -27.5 14.5t-15.5 42.5q47 17 82 39.5t63.5 44.5t54 37t53.5 15q57 0 57 -69q0 -16 -2 -31t-7 -28q-45 0 -84 -10t-71.5 -22.5t-58 -22.5t-44.5 -10z" />
    <glyph glyph-name="Ecircumflex" unicode="&#xca;" horiz-adv-x="595" 
d="M180 -26q-45 0 -66 23t-21 74q0 27 3.5 65.5t12 97.5t22.5 148t35 217l-38 76q40 24 77.5 37.5t68.5 13.5q54 0 54 -66q0 -10 -4.5 -40.5t-11.5 -74t-16 -95.5t-18 -105t-16.5 -100.5t-12 -84t-4.5 -55.5q0 -31 10.5 -52.5t32.5 -38.5q-52 -40 -108 -40zM414 -25
q-60 0 -117.5 14.5t-104.5 42.5l23 62h220q33 4 62.5 11t57.5 19q6 -15 8 -26t2 -25q0 -49 -37 -73.5t-114 -24.5zM357 271q-25 0 -51 4t-62 13l16 83q27 -4 54.5 -6t57.5 -2l79 19q1 -7 1.5 -15.5t0.5 -15.5q0 -38 -25 -59t-71 -21zM468 555q-35 0 -71.5 4t-72 13t-68.5 21
l20 83q67 0 119 6t102 15.5t110 22.5q4 -14 5 -26t1 -23q0 -39 -19.5 -65t-52 -38.5t-73.5 -12.5zM309 799q-26 0 -38 9.5t-12 22.5q0 25 16.5 55t41 59.5t46.5 48.5q20 13 46 21t63 8q35 0 60 -14t25 -46l3 -80q1 -25 9.5 -40.5t20.5 -24.5q-18 -9 -36.5 -14t-39.5 -5
q-29 0 -47 13t-18 49q0 28 3 56t9 52h-16q-18 -17 -31 -41t-19.5 -53t-5.5 -58q-11 -7 -32.5 -12.5t-47.5 -5.5z" />
    <glyph glyph-name="Edieresis" unicode="&#xcb;" horiz-adv-x="595" 
d="M180 -26q-45 0 -66 23t-21 74q0 27 3.5 65.5t12 97.5t22.5 148t35 217l-38 76q40 24 77.5 37.5t68.5 13.5q54 0 54 -66q0 -10 -4.5 -40.5t-11.5 -74t-16 -95.5t-18 -105t-16.5 -100.5t-12 -84t-4.5 -55.5q0 -31 10.5 -52.5t32.5 -38.5q-52 -40 -108 -40zM414 -25
q-60 0 -117.5 14.5t-104.5 42.5l23 62h220q33 4 62.5 11t57.5 19q6 -15 8 -26t2 -25q0 -49 -37 -73.5t-114 -24.5zM357 271q-25 0 -51 4t-62 13l16 83q27 -4 54.5 -6t57.5 -2l79 19q1 -7 1.5 -15.5t0.5 -15.5q0 -38 -25 -59t-71 -21zM468 555q-35 0 -71.5 4t-72 13t-68.5 21
l20 83q67 0 119 6t102 15.5t110 22.5q4 -14 5 -26t1 -23q0 -39 -19.5 -65t-52 -38.5t-73.5 -12.5zM543 811q-33 0 -54 18t-21 47q0 25 13.5 44t35 30t47.5 11q31 0 51 -17.5t20 -46.5q0 -37 -27 -61.5t-65 -24.5zM268 811q-32 0 -51.5 18t-19.5 47q0 25 13 44t34 30t45 11
q33 0 54 -17.5t21 -46.5q0 -24 -12.5 -44t-34.5 -31t-49 -11z" />
    <glyph glyph-name="Igrave" unicode="&#xcc;" horiz-adv-x="375" 
d="M180 -25q-45 0 -66 23t-21 74q0 27 3.5 65t12 97.5t22.5 148.5t35 216l-38 76q40 24 77.5 37.5t68.5 13.5q54 0 54 -66q0 -10 -4.5 -40t-11.5 -74t-16 -95.5t-18 -104.5t-16.5 -100.5t-12 -84t-4.5 -55.5q0 -34 6.5 -58t19.5 -41q-44 -32 -91 -32zM371 801
q-19 0 -44.5 10t-58 22.5t-71.5 22.5t-84 10q-4 13 -6.5 28.5t-2.5 31.5q0 68 57 68q28 0 53.5 -14.5t54 -36.5t63.5 -44.5t82 -39.5q-4 -28 -15 -43t-28 -15z" />
    <glyph glyph-name="Iacute" unicode="&#xcd;" horiz-adv-x="375" 
d="M180 -25q-45 0 -66 23t-21 74q0 27 3.5 65t12 97.5t22.5 148.5t35 216l-38 76q40 24 77.5 37.5t68.5 13.5q54 0 54 -66q0 -10 -4.5 -40t-11.5 -74t-16 -95.5t-18 -104.5t-16.5 -100.5t-12 -84t-4.5 -55.5q0 -34 6.5 -58t19.5 -41q-44 -32 -91 -32zM180 801
q-16 0 -27.5 14.5t-15.5 42.5q47 17 82 39.5t63.5 44.5t54 37t53.5 15q57 0 57 -69q0 -16 -2 -31t-7 -28q-45 0 -84 -10t-71.5 -22.5t-58 -22.5t-44.5 -10z" />
    <glyph glyph-name="Icircumflex" unicode="&#xce;" horiz-adv-x="375" 
d="M180 -25q-45 0 -66 23t-21 74q0 27 3.5 65t12 97.5t22.5 148.5t35 216l-38 76q40 24 77.5 37.5t68.5 13.5q54 0 54 -66q0 -10 -4.5 -40t-11.5 -74t-16 -95.5t-18 -104.5t-16.5 -100.5t-12 -84t-4.5 -55.5q0 -34 6.5 -58t19.5 -41q-44 -32 -91 -32zM171 799q-26 0 -38 9.5
t-12 22.5q0 25 16.5 55t41 59.5t46.5 48.5q20 13 46 21t63 8q35 0 60 -14t25 -46l3 -80q1 -25 9.5 -40.5t20.5 -24.5q-18 -9 -36.5 -14t-39.5 -5q-29 0 -47 13t-18 49q0 28 3 56t9 52h-16q-18 -17 -31 -41t-19.5 -53t-5.5 -58q-11 -7 -32.5 -12.5t-47.5 -5.5z" />
    <glyph glyph-name="Idieresis" unicode="&#xcf;" horiz-adv-x="375" 
d="M180 -25q-45 0 -66 23t-21 74q0 27 3.5 65t12 97.5t22.5 148.5t35 216l-38 76q40 24 77.5 37.5t68.5 13.5q54 0 54 -66q0 -10 -4.5 -40t-11.5 -74t-16 -95.5t-18 -104.5t-16.5 -100.5t-12 -84t-4.5 -55.5q0 -34 6.5 -58t19.5 -41q-44 -32 -91 -32zM405 811q-33 0 -54 18
t-21 47q0 25 13.5 44t35 30t47.5 11q31 0 51 -17.5t20 -46.5q0 -37 -27 -61.5t-65 -24.5zM130 811q-32 0 -51.5 18t-19.5 47q0 25 13 44t34 30t45 11q33 0 54 -17.5t21 -46.5q0 -24 -12.5 -44t-34.5 -31t-49 -11z" />
    <glyph glyph-name="Eth" unicode="&#xd0;" horiz-adv-x="837" 
d="M328 -25q-115 0 -175 34.5t-60 101.5q0 24 4 61.5t12.5 94.5t22 139t33.5 193l-38 76q41 24 78.5 37.5t65.5 13.5q55 0 55 -66q0 -10 -4.5 -42.5t-11.5 -79t-15.5 -101t-17.5 -110.5t-16.5 -105.5t-11.5 -88t-4 -56.5q24 -9 48 -12.5t51 -3.5q81 0 142 41.5t96 115
t35 167.5q0 119 -49.5 182.5t-142.5 63.5q-38 0 -65.5 -7.5t-52.5 -21.5t-57 -34l-13 60q39 30 73.5 51.5t75.5 34t97 12.5q88 0 153 -39t101 -109.5t36 -166.5q0 -97 -32.5 -176.5t-91.5 -137.5t-141 -90t-180 -32zM67 291q-36 0 -49 12t-13 39q0 14 4 30.5t14 34.5
q21 -7 52 -10.5t57 -3.5q63 0 126 13t127 13q37 0 49.5 -12t12.5 -39q0 -14 -4 -30.5t-14 -33.5q-21 7 -51 10t-55 3q-42 0 -84.5 -6.5t-85.5 -13t-86 -6.5z" />
    <glyph glyph-name="Ntilde" unicode="&#xd1;" horiz-adv-x="850" 
d="M655 -26q-37 0 -66 8.5t-53.5 31t-47 66t-46.5 111t-52 166t-63 232.5h-53l-1 137q37 0 65.5 -12t53 -45.5t49.5 -97t55.5 -165t69.5 -251.5l87 -1zM180 -26q-45 0 -66 23t-21 74q0 27 3.5 65t12 97.5t22.5 148.5t35 217l-38 76q40 24 77.5 37.5t68.5 13.5q54 0 54 -66
q0 -10 -4.5 -40.5t-11.5 -74t-16 -95.5t-18 -105t-16.5 -100.5t-12 -84t-4.5 -55.5q0 -34 6.5 -58t19.5 -41q-44 -32 -91 -32zM655 -26q-46 0 -66.5 23t-20.5 75q0 27 3 65t11.5 97t23 148t36.5 218l-37 75q39 25 76 38t68 13q54 0 54 -65q0 -10 -4.5 -40.5t-12 -74.5
t-16 -96t-17.5 -104.5t-16.5 -100.5t-12 -84.5t-4.5 -55.5q0 -34 6.5 -57.5t19.5 -42.5q-23 -16 -45 -23.5t-46 -7.5zM383 819q-30 0 -43.5 12t-13.5 41q0 18 6.5 40t15.5 44q17 -7 34.5 -11t34.5 -4q45 0 82.5 12.5t71.5 25t66 12.5q31 0 44 -12.5t13 -40.5q0 -18 -6 -40.5
t-16 -44.5q-16 7 -33.5 11t-35.5 4q-44 0 -82 -12t-72 -24.5t-66 -12.5z" />
    <glyph glyph-name="Ograve" unicode="&#xd2;" horiz-adv-x="753" 
d="M339 -25q-88 0 -154 38.5t-102 107t-36 161.5q0 102 30.5 183.5t84 139.5t122.5 89t145 31q56 0 81 -17t25 -54q0 -12 -1.5 -22t-7.5 -23q-11 3 -28.5 5.5t-30.5 2.5q-75 0 -135 -42.5t-94.5 -117.5t-34.5 -173q0 -114 46.5 -171t122.5 -57q40 0 80 19t75 54t60 84.5
t33 110.5q-67 30 -92 75.5t-25 95.5q0 34 14 61t38.5 43t54.5 16q57 0 88 -48t31 -131q0 -98 -29 -182t-81.5 -146.5t-124 -97.5t-155.5 -35zM586 801q-19 0 -44.5 10t-58 22.5t-71.5 22.5t-84 10q-4 13 -6.5 28.5t-2.5 31.5q0 68 57 68q28 0 53.5 -14.5t54 -36.5
t63.5 -44.5t82 -39.5q-4 -28 -15 -43t-28 -15z" />
    <glyph glyph-name="Oacute" unicode="&#xd3;" horiz-adv-x="753" 
d="M339 -25q-88 0 -154 38.5t-102 107t-36 161.5q0 102 30.5 183.5t84 139.5t122.5 89t145 31q56 0 81 -17t25 -54q0 -12 -1.5 -22t-7.5 -23q-11 3 -28.5 5.5t-30.5 2.5q-75 0 -135 -42.5t-94.5 -117.5t-34.5 -173q0 -114 46.5 -171t122.5 -57q40 0 80 19t75 54t60 84.5
t33 110.5q-67 30 -92 75.5t-25 95.5q0 34 14 61t38.5 43t54.5 16q57 0 88 -48t31 -131q0 -98 -29 -182t-81.5 -146.5t-124 -97.5t-155.5 -35zM395 801q-16 0 -27.5 14.5t-15.5 42.5q47 17 82 39.5t63.5 44.5t54 37t53.5 15q57 0 57 -69q0 -16 -2 -31t-7 -28q-45 0 -84 -10
t-71.5 -22.5t-58 -22.5t-44.5 -10z" />
    <glyph glyph-name="Ocircumflex" unicode="&#xd4;" horiz-adv-x="753" 
d="M339 -25q-88 0 -154 38.5t-102 107t-36 161.5q0 102 30.5 183.5t84 139.5t122.5 89t145 31q56 0 81 -17t25 -54q0 -12 -1.5 -22t-7.5 -23q-11 3 -28.5 5.5t-30.5 2.5q-75 0 -135 -42.5t-94.5 -117.5t-34.5 -173q0 -114 46.5 -171t122.5 -57q40 0 80 19t75 54t60 84.5
t33 110.5q-67 30 -92 75.5t-25 95.5q0 34 14 61t38.5 43t54.5 16q57 0 88 -48t31 -131q0 -98 -29 -182t-81.5 -146.5t-124 -97.5t-155.5 -35zM386 799q-26 0 -38 9.5t-12 22.5q0 25 16.5 55t41 59.5t46.5 48.5q20 13 46 21t63 8q35 0 60 -14t25 -46l3 -80q1 -25 9.5 -40.5
t20.5 -24.5q-18 -9 -36.5 -14t-39.5 -5q-29 0 -47 13t-18 49q0 28 3 56t9 52h-16q-18 -17 -31 -41t-19.5 -53t-5.5 -58q-11 -7 -32.5 -12.5t-47.5 -5.5z" />
    <glyph glyph-name="Otilde" unicode="&#xd5;" horiz-adv-x="753" 
d="M339 -25q-88 0 -154 38.5t-102 107t-36 161.5q0 102 30.5 183.5t84 139.5t122.5 89t145 31q56 0 81 -17t25 -54q0 -12 -1.5 -22t-7.5 -23q-11 3 -28.5 5.5t-30.5 2.5q-75 0 -135 -42.5t-94.5 -117.5t-34.5 -173q0 -114 46.5 -171t122.5 -57q40 0 80 19t75 54t60 84.5
t33 110.5q-67 30 -92 75.5t-25 95.5q0 34 14 61t38.5 43t54.5 16q57 0 88 -48t31 -131q0 -98 -29 -182t-81.5 -146.5t-124 -97.5t-155.5 -35zM361 819q-30 0 -43.5 12t-13.5 41q0 18 6.5 40t15.5 44q17 -7 34.5 -11t34.5 -4q45 0 82.5 12.5t71.5 25t66 12.5q31 0 44 -12.5
t13 -40.5q0 -18 -6 -40.5t-16 -44.5q-16 7 -33.5 11t-35.5 4q-44 0 -82 -12t-72 -24.5t-66 -12.5z" />
    <glyph glyph-name="Odieresis" unicode="&#xd6;" horiz-adv-x="753" 
d="M339 -25q-88 0 -154 38.5t-102 107t-36 161.5q0 102 30.5 183.5t84 139.5t122.5 89t145 31q56 0 81 -17t25 -54q0 -12 -1.5 -22t-7.5 -23q-11 3 -28.5 5.5t-30.5 2.5q-75 0 -135 -42.5t-94.5 -117.5t-34.5 -173q0 -114 46.5 -171t122.5 -57q40 0 80 19t75 54t60 84.5
t33 110.5q-67 30 -92 75.5t-25 95.5q0 34 14 61t38.5 43t54.5 16q57 0 88 -48t31 -131q0 -98 -29 -182t-81.5 -146.5t-124 -97.5t-155.5 -35zM620 811q-33 0 -54 18t-21 47q0 25 13.5 44t35 30t47.5 11q31 0 51 -17.5t20 -46.5q0 -37 -27 -61.5t-65 -24.5zM345 811
q-32 0 -51.5 18t-19.5 47q0 25 13 44t34 30t45 11q33 0 54 -17.5t21 -46.5q0 -24 -12.5 -44t-34.5 -31t-49 -11z" />
    <glyph glyph-name="multiply" unicode="&#xd7;" horiz-adv-x="675" 
d="M193 143q-21 8 -41 19.5t-33 25t-13 26.5q0 11 9.5 25t31.5 34l363 328q22 -8 41.5 -20t32 -25t12.5 -26q0 -11 -9 -25.5t-32 -33.5zM460 143l-280 335q-12 15 -18.5 25.5t-6.5 19.5q0 16 13.5 29.5t34 26t39.5 22.5l280 -335q12 -16 18.5 -26t6.5 -20q0 -15 -13.5 -29
t-34 -25.5t-39.5 -22.5z" />
    <glyph glyph-name="Oslash" unicode="&#xd8;" horiz-adv-x="753" 
d="M339 -25q-88 0 -154 38.5t-102 107t-36 161.5q0 102 30.5 183.5t84 139.5t122.5 89t145 31q56 0 81 -17t25 -54q0 -12 -1.5 -22t-7.5 -23q-11 3 -28.5 5.5t-30.5 2.5q-75 0 -135 -42.5t-94.5 -117.5t-34.5 -173q0 -114 46.5 -171t122.5 -57q40 0 80 19t75 54t60 84.5
t33 110.5q-67 30 -92 75.5t-25 95.5q0 34 14 61t38.5 43t54.5 16q57 0 88 -48t31 -131q0 -98 -29 -182t-81.5 -146.5t-124 -97.5t-155.5 -35zM309 -103q-18 0 -36.5 5.5t-30.5 13.5q48 144 102.5 348.5t115.5 479.5q15 69 71 69q18 0 36.5 -5t30.5 -14q-48 -143 -102 -348
t-116 -480q-15 -69 -71 -69z" />
    <glyph glyph-name="Ugrave" unicode="&#xd9;" horiz-adv-x="815" 
d="M617 -26q-30 0 -48 14.5t-27 39.5t-9 57q0 25 4.5 51.5t10.5 51.5h-7q-30 -58 -74.5 -106t-100 -77t-119.5 -29q-42 0 -71.5 14t-47.5 38t-26.5 55.5t-8.5 65.5q0 23 3 55t11 82t21.5 126t34.5 187l-37 76q41 26 77 38.5t67 12.5q55 0 55 -66q0 -9 -6 -42.5t-15.5 -81
t-20 -100.5t-20 -103.5t-15 -89.5t-5.5 -58q0 -47 16 -73.5t63 -26.5q38 0 81.5 29.5t84 82.5t66.5 124q-4 21 -7.5 51.5t-3.5 65.5q0 39 5 80t17 78t31 66.5t46 46.5t64 17q18 0 36.5 -5t35.5 -16q-15 -53 -31.5 -127.5t-31 -158t-23.5 -164.5t-9 -147q0 -68 22 -102
q-22 -16 -43.5 -24t-44.5 -8zM589 801q-19 0 -44.5 10t-58 22.5t-71.5 22.5t-84 10q-4 13 -6.5 28.5t-2.5 31.5q0 68 57 68q28 0 53.5 -14.5t54 -36.5t63.5 -44.5t82 -39.5q-4 -28 -15 -43t-28 -15z" />
    <glyph glyph-name="Uacute" unicode="&#xda;" horiz-adv-x="815" 
d="M617 -26q-30 0 -48 14.5t-27 39.5t-9 57q0 25 4.5 51.5t10.5 51.5h-7q-30 -58 -74.5 -106t-100 -77t-119.5 -29q-42 0 -71.5 14t-47.5 38t-26.5 55.5t-8.5 65.5q0 23 3 55t11 82t21.5 126t34.5 187l-37 76q41 26 77 38.5t67 12.5q55 0 55 -66q0 -9 -6 -42.5t-15.5 -81
t-20 -100.5t-20 -103.5t-15 -89.5t-5.5 -58q0 -47 16 -73.5t63 -26.5q38 0 81.5 29.5t84 82.5t66.5 124q-4 21 -7.5 51.5t-3.5 65.5q0 39 5 80t17 78t31 66.5t46 46.5t64 17q18 0 36.5 -5t35.5 -16q-15 -53 -31.5 -127.5t-31 -158t-23.5 -164.5t-9 -147q0 -68 22 -102
q-22 -16 -43.5 -24t-44.5 -8zM398 801q-16 0 -27.5 14.5t-15.5 42.5q47 17 82 39.5t63.5 44.5t54 37t53.5 15q57 0 57 -69q0 -16 -2 -31t-7 -28q-45 0 -84 -10t-71.5 -22.5t-58 -22.5t-44.5 -10z" />
    <glyph glyph-name="Ucircumflex" unicode="&#xdb;" horiz-adv-x="815" 
d="M617 -26q-30 0 -48 14.5t-27 39.5t-9 57q0 25 4.5 51.5t10.5 51.5h-7q-30 -58 -74.5 -106t-100 -77t-119.5 -29q-42 0 -71.5 14t-47.5 38t-26.5 55.5t-8.5 65.5q0 23 3 55t11 82t21.5 126t34.5 187l-37 76q41 26 77 38.5t67 12.5q55 0 55 -66q0 -9 -6 -42.5t-15.5 -81
t-20 -100.5t-20 -103.5t-15 -89.5t-5.5 -58q0 -47 16 -73.5t63 -26.5q38 0 81.5 29.5t84 82.5t66.5 124q-4 21 -7.5 51.5t-3.5 65.5q0 39 5 80t17 78t31 66.5t46 46.5t64 17q18 0 36.5 -5t35.5 -16q-15 -53 -31.5 -127.5t-31 -158t-23.5 -164.5t-9 -147q0 -68 22 -102
q-22 -16 -43.5 -24t-44.5 -8zM388 799q-26 0 -38 9.5t-12 22.5q0 25 16.5 55t41 59.5t46.5 48.5q20 13 46 21t63 8q35 0 60 -14t25 -46l3 -80q1 -25 9.5 -40.5t20.5 -24.5q-18 -9 -36.5 -14t-39.5 -5q-29 0 -47 13t-18 49q0 28 3 56t9 52h-16q-18 -17 -31 -41t-19.5 -53
t-5.5 -58q-11 -7 -32.5 -12.5t-47.5 -5.5z" />
    <glyph glyph-name="Udieresis" unicode="&#xdc;" horiz-adv-x="815" 
d="M617 -26q-30 0 -48 14.5t-27 39.5t-9 57q0 25 4.5 51.5t10.5 51.5h-7q-30 -58 -74.5 -106t-100 -77t-119.5 -29q-42 0 -71.5 14t-47.5 38t-26.5 55.5t-8.5 65.5q0 23 3 55t11 82t21.5 126t34.5 187l-37 76q41 26 77 38.5t67 12.5q55 0 55 -66q0 -9 -6 -42.5t-15.5 -81
t-20 -100.5t-20 -103.5t-15 -89.5t-5.5 -58q0 -47 16 -73.5t63 -26.5q38 0 81.5 29.5t84 82.5t66.5 124q-4 21 -7.5 51.5t-3.5 65.5q0 39 5 80t17 78t31 66.5t46 46.5t64 17q18 0 36.5 -5t35.5 -16q-15 -53 -31.5 -127.5t-31 -158t-23.5 -164.5t-9 -147q0 -68 22 -102
q-22 -16 -43.5 -24t-44.5 -8zM623 811q-33 0 -54 18t-21 47q0 25 13.5 44t35 30t47.5 11q31 0 51 -17.5t20 -46.5q0 -37 -27 -61.5t-65 -24.5zM348 811q-32 0 -51.5 18t-19.5 47q0 25 13 44t34 30t45 11q33 0 54 -17.5t21 -46.5q0 -24 -12.5 -44t-34.5 -31t-49 -11z" />
    <glyph glyph-name="Yacute" unicode="&#xdd;" horiz-adv-x="808" 
d="M99 -242q-80 0 -118 29t-38 76q0 20 9.5 40.5t20.5 33.5q12 -16 30 -31t47 -25t72 -10q39 0 90 17.5t106.5 54.5t107.5 95t94.5 138t67.5 184t25 234q0 29 -5 53.5t-18 46.5q30 18 55 25t48 7q34 0 52.5 -24t18.5 -67q0 -76 -15.5 -160t-44.5 -169t-72 -165t-99 -149.5
t-123 -122t-145 -82t-166 -29.5zM385 -30q-66 0 -107.5 24.5t-64 66.5t-32.5 96.5t-12 115.5t-3 122.5t-6 118.5t-20 103.5t-46 76.5q43 32 90 32q52 0 80 -29.5t40 -79.5t14.5 -111.5t1.5 -128t2.5 -128t17 -111.5t43.5 -79.5t85 -29.5zM388 801q-16 0 -27.5 14.5
t-15.5 42.5q47 17 82 39.5t63.5 44.5t54 37t53.5 15q57 0 57 -69q0 -16 -2 -31t-7 -28q-45 0 -84 -10t-71.5 -22.5t-58 -22.5t-44.5 -10z" />
    <glyph glyph-name="Thorn" unicode="&#xde;" horiz-adv-x="700" 
d="M384 111q-55 0 -97.5 14t-81.5 41l25 69q23 -17 51.5 -24.5t56.5 -7.5q61 0 105 24.5t68.5 67.5t24.5 97q0 38 -13 70.5t-42.5 52.5t-79.5 20q-37 0 -74 -17.5t-79 -48.5v60q31 29 62 51.5t71 36t96 13.5q70 0 118 -31.5t72.5 -82.5t24.5 -110q0 -55 -18.5 -108t-56 -95
t-96 -67t-137.5 -25zM180 -26q-45 0 -66 23t-21 74q0 27 3.5 65t12 97.5t22.5 148.5t35 217l-38 76q40 24 77.5 37.5t68.5 13.5q54 0 54 -66q0 -10 -4.5 -40.5t-11.5 -74t-16 -95.5t-18 -105t-16.5 -100.5t-12 -84t-4.5 -55.5q0 -34 6.5 -58t19.5 -41q-44 -32 -91 -32z" />
    <glyph glyph-name="germandbls" unicode="&#xdf;" horiz-adv-x="705" 
d="M150 -210q-39 0 -58.5 23.5t-19.5 69.5q0 23 10.5 97.5t30.5 195.5t47 282q24 133 98.5 200t196.5 67q67 0 116.5 -19.5t77 -55.5t27.5 -84q0 -59 -38 -108.5t-111 -82.5q45 -11 79 -38.5t53.5 -66t19.5 -82.5q0 -100 -68.5 -156.5t-188.5 -56.5q-72 0 -112.5 23
t-40.5 64q0 22 12.5 42t35.5 34q9 -37 36 -59.5t63 -22.5q37 0 65.5 18t44.5 50t16 72q0 55 -27 98.5t-75 67.5q33 17 58 45t38.5 62t13.5 68q0 49 -26.5 79t-69.5 30q-41 0 -70.5 -20.5t-49 -65t-33.5 -118.5q-23 -124 -39 -216.5t-26 -158.5t-14.5 -108t-4.5 -62
q0 -52 24 -73q-18 -16 -42 -25t-49 -9zM118 316q-46 0 -65 11.5t-19 39.5q0 34 19 64q17 -5 40.5 -8.5t48.5 -3.5t43 2t43 7l16 -95q-15 -4 -37 -8t-45.5 -6.5t-43.5 -2.5z" />
    <glyph glyph-name="agrave" unicode="&#xe0;" horiz-adv-x="747" 
d="M249 -25q-55 0 -96.5 29t-64.5 82t-23 124q0 84 29.5 155t81.5 124t123 82t155 29q44 0 89 -8q6 -11 9 -26t3 -32q-79 0 -142.5 -23.5t-108.5 -66t-69 -99t-24 -121.5q0 -62 25.5 -96.5t72.5 -34.5q87 0 142 109.5t82 331.5q16 20 38 30.5t47 10.5q28 0 43.5 -14
t15.5 -41q0 -31 -11 -80t-25.5 -109t-25.5 -126t-11 -132q0 -44 22 -64q-20 -17 -42 -25.5t-44 -8.5q-39 0 -60 23.5t-21 67.5q0 12 1.5 25.5t4.5 27.5l-10 5q-34 -71 -88 -110t-118 -39zM537 666q-19 0 -44.5 10t-58 22.5t-71.5 22.5t-84 10q-4 13 -6.5 28.5t-2.5 31.5
q0 68 57 68q28 0 53.5 -14.5t54 -36.5t63.5 -44.5t82 -39.5q-4 -28 -15 -43t-28 -15z" />
    <glyph glyph-name="aacute" unicode="&#xe1;" horiz-adv-x="747" 
d="M249 -25q-55 0 -96.5 29t-64.5 82t-23 124q0 84 29.5 155t81.5 124t123 82t155 29q44 0 89 -8q6 -11 9 -26t3 -32q-79 0 -142.5 -23.5t-108.5 -66t-69 -99t-24 -121.5q0 -62 25.5 -96.5t72.5 -34.5q87 0 142 109.5t82 331.5q16 20 38 30.5t47 10.5q28 0 43.5 -14
t15.5 -41q0 -31 -11 -80t-25.5 -109t-25.5 -126t-11 -132q0 -44 22 -64q-20 -17 -42 -25.5t-44 -8.5q-39 0 -60 23.5t-21 67.5q0 12 1.5 25.5t4.5 27.5l-10 5q-34 -71 -88 -110t-118 -39zM346 666q-16 0 -27.5 14.5t-15.5 42.5q47 17 82 39.5t63.5 44.5t54 37t53.5 15
q57 0 57 -69q0 -16 -2 -31t-7 -28q-45 0 -84 -10t-71.5 -22.5t-58 -22.5t-44.5 -10z" />
    <glyph glyph-name="acircumflex" unicode="&#xe2;" horiz-adv-x="747" 
d="M249 -25q-55 0 -96.5 29t-64.5 82t-23 124q0 84 29.5 155t81.5 124t123 82t155 29q44 0 89 -8q6 -11 9 -26t3 -32q-79 0 -142.5 -23.5t-108.5 -66t-69 -99t-24 -121.5q0 -62 25.5 -96.5t72.5 -34.5q87 0 142 109.5t82 331.5q16 20 38 30.5t47 10.5q28 0 43.5 -14
t15.5 -41q0 -31 -11 -80t-25.5 -109t-25.5 -126t-11 -132q0 -44 22 -64q-20 -17 -42 -25.5t-44 -8.5q-39 0 -60 23.5t-21 67.5q0 12 1.5 25.5t4.5 27.5l-10 5q-34 -71 -88 -110t-118 -39zM337 664q-26 0 -38 9.5t-12 22.5q0 25 16.5 55t41 59.5t46.5 48.5q20 13 46 21t63 8
q35 0 60 -14t25 -46l3 -80q1 -25 9.5 -40.5t20.5 -24.5q-18 -9 -36.5 -14t-39.5 -5q-29 0 -47 13t-18 49q0 28 3 56t9 52h-16q-18 -17 -31 -41t-19.5 -53t-5.5 -58q-11 -7 -32.5 -12.5t-47.5 -5.5z" />
    <glyph glyph-name="atilde" unicode="&#xe3;" horiz-adv-x="747" 
d="M249 -25q-55 0 -96.5 29t-64.5 82t-23 124q0 84 29.5 155t81.5 124t123 82t155 29q44 0 89 -8q6 -11 9 -26t3 -32q-79 0 -142.5 -23.5t-108.5 -66t-69 -99t-24 -121.5q0 -62 25.5 -96.5t72.5 -34.5q87 0 142 109.5t82 331.5q16 20 38 30.5t47 10.5q28 0 43.5 -14
t15.5 -41q0 -31 -11 -80t-25.5 -109t-25.5 -126t-11 -132q0 -44 22 -64q-20 -17 -42 -25.5t-44 -8.5q-39 0 -60 23.5t-21 67.5q0 12 1.5 25.5t4.5 27.5l-10 5q-34 -71 -88 -110t-118 -39zM312 684q-30 0 -43.5 12t-13.5 41q0 18 6.5 40t15.5 44q17 -7 34.5 -11t34.5 -4
q45 0 82.5 12.5t71.5 25t66 12.5q31 0 44 -12.5t13 -40.5q0 -18 -6 -40.5t-16 -44.5q-16 7 -33.5 11t-35.5 4q-44 0 -82 -12t-72 -24.5t-66 -12.5z" />
    <glyph glyph-name="adieresis" unicode="&#xe4;" horiz-adv-x="747" 
d="M249 -25q-55 0 -96.5 29t-64.5 82t-23 124q0 84 29.5 155t81.5 124t123 82t155 29q44 0 89 -8q6 -11 9 -26t3 -32q-79 0 -142.5 -23.5t-108.5 -66t-69 -99t-24 -121.5q0 -62 25.5 -96.5t72.5 -34.5q87 0 142 109.5t82 331.5q16 20 38 30.5t47 10.5q28 0 43.5 -14
t15.5 -41q0 -31 -11 -80t-25.5 -109t-25.5 -126t-11 -132q0 -44 22 -64q-20 -17 -42 -25.5t-44 -8.5q-39 0 -60 23.5t-21 67.5q0 12 1.5 25.5t4.5 27.5l-10 5q-34 -71 -88 -110t-118 -39zM571 676q-33 0 -54 18t-21 47q0 25 13.5 44t35 30t47.5 11q31 0 51 -17.5t20 -46.5
q0 -37 -27 -61.5t-65 -24.5zM296 676q-32 0 -51.5 18t-19.5 47q0 25 13 44t34 30t45 11q33 0 54 -17.5t21 -46.5q0 -24 -12.5 -44t-34.5 -31t-49 -11z" />
    <glyph glyph-name="aring" unicode="&#xe5;" horiz-adv-x="747" 
d="M249 -25q-55 0 -96.5 29t-64.5 82t-23 124q0 84 29.5 155t81.5 124t123 82t155 29q44 0 89 -8q6 -11 9 -26t3 -32q-79 0 -142.5 -23.5t-108.5 -66t-69 -99t-24 -121.5q0 -62 25.5 -96.5t72.5 -34.5q87 0 142 109.5t82 331.5q16 20 38 30.5t47 10.5q28 0 43.5 -14
t15.5 -41q0 -31 -11 -80t-25.5 -109t-25.5 -126t-11 -132q0 -44 22 -64q-20 -17 -42 -25.5t-44 -8.5q-39 0 -60 23.5t-21 67.5q0 12 1.5 25.5t4.5 27.5l-10 5q-34 -71 -88 -110t-118 -39zM433 634q-68 0 -108 36t-39 97q1 51 24 90t64 60.5t94 21.5q68 0 108 -35.5t39 -97.5
q0 -50 -23 -89t-64 -61t-95 -22zM440 699q33 0 54.5 30.5t21.5 77.5q0 69 -54 69q-11 0 -19.5 -1t-22.5 -5q-17 -19 -26 -45t-9 -54q0 -32 15 -52t40 -20z" />
    </font>
</defs>
</svg>
